<svg width="30" height="30" viewBox="0 0 30 30" fill="none" xmlns="http://www.w3.org/2000/svg">
<g clip-path="url(#clip0_5083_3227)">
<path d="M16.875 0H20.5875C20.8575 1.34062 21.6 3.03188 22.9031 4.71C24.1781 6.35437 25.8694 7.5 28.125 7.5V11.25C24.8381 11.25 22.3688 9.72375 20.625 7.82062V20.625C20.625 22.4792 20.0752 24.2918 19.045 25.8335C18.0149 27.3752 16.5507 28.5768 14.8377 29.2864C13.1246 29.9959 11.2396 30.1816 9.42103 29.8199C7.60246 29.4581 5.932 28.5652 4.62088 27.2541C3.30976 25.943 2.41688 24.2725 2.05514 22.454C1.69341 20.6354 1.87906 18.7504 2.58863 17.0373C3.29821 15.3243 4.49982 13.8601 6.04153 12.83C7.58324 11.7998 9.3958 11.25 11.25 11.25V15C10.1375 15 9.04995 15.3299 8.12492 15.948C7.19989 16.5661 6.47892 17.4446 6.05318 18.4724C5.62744 19.5002 5.51604 20.6312 5.73309 21.7224C5.95013 22.8135 6.48586 23.8158 7.27253 24.6025C8.0592 25.3891 9.06148 25.9249 10.1526 26.1419C11.2438 26.359 12.3748 26.2476 13.4026 25.8218C14.4304 25.3961 15.3089 24.6751 15.927 23.7501C16.5451 22.8251 16.875 21.7375 16.875 20.625V0Z" fill="white"/>
</g>
<defs>
<clipPath id="clip0_5083_3227">
<rect width="30" height="30" fill="white"/>
</clipPath>
</defs>
</svg>
