<svg width="30" height="30" viewBox="0 0 30 30" fill="none" xmlns="http://www.w3.org/2000/svg">
<path d="M9.375 22.5C8 22.5 6.82292 22.0104 5.84375 21.0312C4.86458 20.0521 4.375 18.875 4.375 17.5V12.4062C4.375 11.3438 4.70833 10.4115 5.375 9.60938C6.04167 8.80729 6.89583 8.3125 7.9375 8.125C9.125 7.89583 10.3021 7.73438 11.4687 7.64062C12.6354 7.54688 13.8125 7.5 15 7.5C16.1875 7.5 17.3698 7.54688 18.5469 7.64062C19.724 7.73438 20.8958 7.89583 22.0625 8.125C23.1042 8.33333 23.9583 8.83333 24.625 9.625C25.2917 10.4167 25.625 11.3438 25.625 12.4062V17.5C25.625 18.875 25.1354 20.0521 24.1562 21.0312C23.1771 22.0104 22 22.5 20.625 22.5H19.375C19.1042 22.5 18.8333 22.4844 18.5625 22.4531C18.2917 22.4219 18.0312 22.3542 17.7812 22.25L15.7812 21.5625C15.5312 21.4583 15.2708 21.4062 15 21.4062C14.7292 21.4062 14.4687 21.4583 14.2187 21.5625L12.2187 22.25C11.9687 22.3542 11.7083 22.4219 11.4375 22.4531C11.1667 22.4844 10.8958 22.5 10.625 22.5H9.375ZM9.375 20H10.625C10.7708 20 10.9115 19.9896 11.0469 19.9688C11.1823 19.9479 11.3125 19.9167 11.4375 19.875C12.0417 19.6875 12.6302 19.4896 13.2031 19.2812C13.776 19.0729 14.375 18.9688 15 18.9688C15.625 18.9688 16.2292 19.0677 16.8125 19.2656C17.3958 19.4635 17.9792 19.6667 18.5625 19.875C18.6875 19.9167 18.8177 19.9479 18.9531 19.9688C19.0885 19.9896 19.2292 20 19.375 20H20.625C21.3125 20 21.901 19.7552 22.3906 19.2656C22.8802 18.776 23.125 18.1875 23.125 17.5V12.4062C23.125 11.9479 22.9792 11.5521 22.6875 11.2188C22.3958 10.8854 22.0312 10.6667 21.5937 10.5625C20.5104 10.3333 19.4219 10.1823 18.3281 10.1094C17.2344 10.0365 16.125 10 15 10C13.875 10 12.7708 10.0417 11.6875 10.125C10.6042 10.2083 9.51042 10.3542 8.40625 10.5625C7.96875 10.6458 7.60417 10.8594 7.3125 11.2031C7.02083 11.5469 6.875 11.9479 6.875 12.4062V17.5C6.875 18.1875 7.11979 18.776 7.60937 19.2656C8.09896 19.7552 8.6875 20 9.375 20ZM1.25 17.5V12.5H3.125V17.5H1.25ZM26.875 17.5V12.5H28.75V17.5H26.875Z" fill="#009444"/>
</svg>
