<svg width="60" height="60" viewBox="0 0 60 60" fill="none" xmlns="http://www.w3.org/2000/svg">
<path d="M42.875 51.75L27.75 36.5C26.9167 36.8333 26.0729 37.0833 25.2188 37.25C24.3646 37.4167 23.4583 37.5 22.5 37.5C18.3333 37.5 14.7917 36.0417 11.875 33.125C8.95833 30.2083 7.5 26.6667 7.5 22.5C7.5 21 7.70833 19.5729 8.125 18.2188C8.54167 16.8646 9.125 15.5833 9.875 14.375L19 23.5L23.5 19L14.375 9.875C15.5833 9.125 16.8646 8.54167 18.2188 8.125C19.5729 7.70833 21 7.5 22.5 7.5C26.6667 7.5 30.2083 8.95833 33.125 11.875C36.0417 14.7917 37.5 18.3333 37.5 22.5C37.5 23.4583 37.4167 24.3646 37.25 25.2188C37.0833 26.0729 36.8333 26.9167 36.5 27.75L51.75 42.875C52.25 43.375 52.5 43.9792 52.5 44.6875C52.5 45.3958 52.25 46 51.75 46.5L46.5 51.75C46 52.25 45.3958 52.5 44.6875 52.5C43.9792 52.5 43.375 52.25 42.875 51.75ZM44.6875 46.4375L46.375 44.75L30.375 28.75C31.125 27.9167 31.6667 26.9479 32 25.8438C32.3333 24.7396 32.5 23.625 32.5 22.5C32.5 20 31.6979 17.8229 30.0938 15.9688C28.4896 14.1146 26.5 13 24.125 12.625L28.75 17.25C29.25 17.75 29.5 18.3333 29.5 19C29.5 19.6667 29.25 20.25 28.75 20.75L20.75 28.75C20.25 29.25 19.6667 29.5 19 29.5C18.3333 29.5 17.75 29.25 17.25 28.75L12.625 24.125C13 26.5 14.1146 28.4896 15.9688 30.0938C17.8229 31.6979 20 32.5 22.5 32.5C23.5833 32.5 24.6667 32.3333 25.75 32C26.8333 31.6667 27.8125 31.1458 28.6875 30.4375L44.6875 46.4375Z" fill="#7DDB8A"/>
</svg>
