<svg width="24" height="24" viewBox="0 0 24 24" fill="none" xmlns="http://www.w3.org/2000/svg">
<path d="M4.9873 20.0127H19.0127V15.9873H4.9873V20.0127ZM6.9873 14.0127H17.0127V9.9873H6.9873V14.0127ZM12.9932 6.53906L12.9873 6.53125V8.0127H17C17.5467 8.0127 18.014 8.20734 18.4033 8.59668C18.7927 8.98602 18.9873 9.45334 18.9873 10V14.0127H19C19.5467 14.0127 20.014 14.2073 20.4033 14.5967C20.7927 14.986 20.9873 15.4533 20.9873 16V21C20.9873 21.2802 20.8933 21.5149 20.7041 21.7041C20.5149 21.8933 20.2802 21.9873 20 21.9873H4C3.71981 21.9873 3.48511 21.8933 3.2959 21.7041C3.10669 21.5149 3.0127 21.2802 3.0127 21V16C3.0127 15.4533 3.20734 14.986 3.59668 14.5967C3.98602 14.2073 4.45334 14.0127 5 14.0127H5.0127V10C5.0127 9.45334 5.20734 8.98602 5.59668 8.59668C5.98602 8.20734 6.45334 8.0127 7 8.0127H11.0127V6.5498H11.0225L11.0068 6.54004C10.7082 6.34092 10.4675 6.10016 10.2852 5.81836C10.1034 5.53741 10.0127 5.19783 10.0127 4.7998C10.0127 4.55167 10.0618 4.30747 10.1611 4.06738C10.2604 3.82751 10.4097 3.60801 10.6084 3.40918L12 2.01758L13.3916 3.40918C13.5903 3.60801 13.7396 3.82751 13.8389 4.06738C13.9382 4.30747 13.9873 4.55167 13.9873 4.7998C13.9873 5.19783 13.8966 5.53741 13.7148 5.81836C13.5326 6.10006 13.2917 6.33998 12.9932 6.53906Z" fill="#7DDB8A" stroke="#7DDB8A" stroke-width="0.025"/>
</svg>
