<svg width="24" height="24" viewBox="0 0 24 24" fill="none" xmlns="http://www.w3.org/2000/svg">
<path d="M20.3818 18.4023L19.1973 19.9824L16.0166 17.5967L17.2021 16.0166L20.3818 18.4023ZM12.9873 17.9775L8.00684 14.9893L8 15L8.00781 14.9873H6.9873V18.9873H5.0127V14.9873H4C3.45334 14.9873 2.98602 14.7927 2.59668 14.4033C2.20734 14.014 2.0127 13.5467 2.0127 13V11C2.0127 10.4533 2.20734 9.98602 2.59668 9.59668C2.98602 9.20734 3.45334 9.0127 4 9.0127H8V9.01465L8.00684 9.01074L12.9873 6.02246V17.9775ZM14.0127 8.67871C14.4515 9.07394 14.8062 9.55368 15.0762 10.1182C15.3502 10.6913 15.4873 11.3185 15.4873 12C15.4873 12.6815 15.3502 13.3087 15.0762 13.8818C14.8063 14.4461 14.4513 14.9252 14.0127 15.3203V8.67871ZM10.9932 9.53906L8.54688 10.9873H3.9873V13.0127H8.54688L10.9932 14.4609L11.0127 14.4717V9.52832L10.9932 9.53906ZM21.9873 11.0127V12.9873H18.0127V11.0127H21.9873ZM20.3818 5.59668L17.2021 7.98242L16.0166 6.40234L19.1973 4.0166L20.3818 5.59668Z" fill="#7DDB8A" stroke="#7DDB8A" stroke-width="0.025"/>
</svg>
