<svg width="60" height="60" viewBox="0 0 60 60" fill="none" xmlns="http://www.w3.org/2000/svg">
<path d="M5 55L17.5 20L40 42.5L5 55ZM13.25 46.75L30.875 40.5L19.5 29.125L13.25 46.75ZM36.375 31.375L33.75 28.75L47.75 14.75C49.0833 13.4167 50.6875 12.75 52.5625 12.75C54.4375 12.75 56.0417 13.4167 57.375 14.75L58.875 16.25L56.25 18.875L54.75 17.375C54.1667 16.7917 53.4375 16.5 52.5625 16.5C51.6875 16.5 50.9583 16.7917 50.375 17.375L36.375 31.375ZM26.375 21.375L23.75 18.75L25.25 17.25C25.8333 16.6667 26.125 15.9583 26.125 15.125C26.125 14.2917 25.8333 13.5833 25.25 13L23.625 11.375L26.25 8.75L27.875 10.375C29.2083 11.7083 29.875 13.2917 29.875 15.125C29.875 16.9583 29.2083 18.5417 27.875 19.875L26.375 21.375ZM31.375 26.375L28.75 23.75L37.75 14.75C38.3333 14.1667 38.625 13.4375 38.625 12.5625C38.625 11.6875 38.3333 10.9583 37.75 10.375L33.75 6.375L36.375 3.75L40.375 7.75C41.7083 9.08333 42.375 10.6875 42.375 12.5625C42.375 14.4375 41.7083 16.0417 40.375 17.375L31.375 26.375ZM41.375 36.375L38.75 33.75L42.75 29.75C44.0833 28.4167 45.6875 27.75 47.5625 27.75C49.4375 27.75 51.0417 28.4167 52.375 29.75L56.375 33.75L53.75 36.375L49.75 32.375C49.1667 31.7917 48.4375 31.5 47.5625 31.5C46.6875 31.5 45.9583 31.7917 45.375 32.375L41.375 36.375Z" fill="#7DDB8A"/>
</svg>
