<svg width="60" height="60" viewBox="0 0 60 60" fill="none" xmlns="http://www.w3.org/2000/svg">
<path d="M30 55C26.5417 55 23.2917 54.3438 20.25 53.0312C17.2083 51.7188 14.5625 49.9375 12.3125 47.6875C10.0625 45.4375 8.28125 42.7917 6.96875 39.75C5.65625 36.7083 5 33.4583 5 30C5 24.5 6.60417 19.5521 9.8125 15.1562C13.0208 10.7604 17.25 7.75 22.5 6.125V11.5C18.7083 13.0417 15.6771 15.4896 13.4062 18.8438C11.1354 22.1979 10 25.9167 10 30C10 35.5833 11.9375 40.3125 15.8125 44.1875C19.6875 48.0625 24.4167 50 30 50C35.5833 50 40.3125 48.0625 44.1875 44.1875C48.0625 40.3125 50 35.5833 50 30C50 25.9167 48.8646 22.1979 46.5938 18.8438C44.3229 15.4896 41.2917 13.0417 37.5 11.5V6.125C42.75 7.75 46.9792 10.7604 50.1875 15.1562C53.3958 19.5521 55 24.5 55 30C55 33.4583 54.3438 36.7083 53.0312 39.75C51.7188 42.7917 49.9375 45.4375 47.6875 47.6875C45.4375 49.9375 42.7917 51.7188 39.75 53.0312C36.7083 54.3438 33.4583 55 30 55ZM30 40L17.5 27.5L21 24L27.5 30.4375V5H32.5V30.4375L39 24L42.5 27.5L30 40Z" fill="#5EA458"/>
</svg>
