<svg width="60" height="60" viewBox="0 0 60 60" fill="none" xmlns="http://www.w3.org/2000/svg">
<path d="M30 45C27.5 45 25.2396 44.3125 23.2188 42.9375C21.1979 41.5625 19.7083 39.75 18.75 37.5H41.25C40.2917 39.75 38.8021 41.5625 36.7813 42.9375C34.7604 44.3125 32.5 45 30 45ZM23.75 33.75C22.875 33.75 22.1354 33.4479 21.5313 32.8438C20.9271 32.2396 20.625 31.5 20.625 30.625C20.625 29.75 20.9271 29.0104 21.5313 28.4062C22.1354 27.8021 22.875 27.5 23.75 27.5C24.625 27.5 25.3646 27.8021 25.9688 28.4062C26.5729 29.0104 26.875 29.75 26.875 30.625C26.875 31.5 26.5729 32.2396 25.9688 32.8438C25.3646 33.4479 24.625 33.75 23.75 33.75ZM36.25 33.75C35.375 33.75 34.6354 33.4479 34.0313 32.8438C33.4271 32.2396 33.125 31.5 33.125 30.625C33.125 29.75 33.4271 29.0104 34.0313 28.4062C34.6354 27.8021 35.375 27.5 36.25 27.5C37.125 27.5 37.8646 27.8021 38.4688 28.4062C39.0729 29.0104 39.375 29.75 39.375 30.625C39.375 31.5 39.0729 32.2396 38.4688 32.8438C37.8646 33.4479 37.125 33.75 36.25 33.75ZM30 55C26.875 55 23.9479 54.4062 21.2188 53.2188C18.4896 52.0312 16.1146 50.4271 14.0938 48.4062C12.0729 46.3854 10.4688 44.0104 9.28125 41.2812C8.09375 38.5521 7.5 35.625 7.5 32.5C7.5 31.1667 7.60417 29.875 7.8125 28.625C8.02083 27.375 8.35417 26.1458 8.8125 24.9375L13.8125 25.8125C13.3542 26.8542 13.0208 27.9271 12.8125 29.0312C12.6042 30.1354 12.5 31.2917 12.5 32.5C12.5 37.375 14.1979 41.5104 17.5938 44.9062C20.9896 48.3021 25.125 50 30 50C34.875 50 39.0104 48.3021 42.4063 44.9062C45.8021 41.5104 47.5 37.375 47.5 32.5C47.5 31.8333 47.4583 31.1771 47.375 30.5312C47.2917 29.8854 47.1875 29.25 47.0625 28.625C43.6875 28.25 40.5625 27.25 37.6875 25.625C34.8125 24 32.3542 21.8958 30.3125 19.3125L34.6875 16.75C36.0208 18.2917 37.5313 19.6042 39.2188 20.6875C40.9063 21.7708 42.75 22.5833 44.75 23.125C43.7083 21.5 42.4271 20.0729 40.9063 18.8438C39.3854 17.6146 37.6875 16.6667 35.8125 16L41.0625 12.875C44.5208 14.8333 47.2917 17.5312 49.375 20.9688C51.4583 24.4062 52.5 28.25 52.5 32.5C52.5 35.625 51.9063 38.5521 50.7188 41.2812C49.5313 44.0104 47.9271 46.3854 45.9063 48.4062C43.8854 50.4271 41.5104 52.0312 38.7813 53.2188C36.0521 54.4062 33.125 55 30 55ZM12.5 21.5625L38.3125 11.875C36.9792 10.7917 35.5208 9.96875 33.9375 9.40625C32.3542 8.84375 30.6875 8.5625 28.9375 8.5625C24.9792 8.5625 21.4479 9.76042 18.3438 12.1562C15.2396 14.5521 13.2917 17.6875 12.5 21.5625ZM8.5 28.4375C8.20833 27.6042 7.96875 26.75 7.78125 25.875C7.59375 25 7.5 24.1042 7.5 23.1875C7.5 19.3958 8.5625 16 10.6875 13C12.8125 10 15.5 7.66667 18.75 6C18.6667 5.83333 18.6146 5.67708 18.5938 5.53125C18.5729 5.38542 18.5625 5.20833 18.5625 5C18.5625 4.29167 18.8021 3.69792 19.2813 3.21875C19.7604 2.73958 20.3542 2.5 21.0625 2.5C21.6458 2.5 22.1458 2.66667 22.5625 3C22.9792 3.33333 23.2708 3.75 23.4375 4.25C24.3542 4.04167 25.2604 3.875 26.1563 3.75C27.0521 3.625 27.9792 3.5625 28.9375 3.5625C31.7292 3.5625 34.3854 4.10417 36.9063 5.1875C39.4271 6.27083 41.6458 7.83333 43.5625 9.875L51.1875 7L52.9375 11.6875L8.5 28.4375Z" fill="#009444"/>
</svg>
