<svg width="60" height="60" viewBox="0 0 60 60" fill="none" xmlns="http://www.w3.org/2000/svg">
<path d="M0 45V41.0625C0 39.2708 0.916667 37.8125 2.75 36.6875C4.58333 35.5625 7 35 10 35C10.5417 35 11.0625 35.0104 11.5625 35.0312C12.0625 35.0521 12.5417 35.1042 13 35.1875C12.4167 36.0625 11.9792 36.9792 11.6875 37.9375C11.3958 38.8958 11.25 39.8958 11.25 40.9375V45H0ZM15 45V40.9375C15 39.6042 15.3646 38.3854 16.0938 37.2812C16.8229 36.1771 17.8542 35.2083 19.1875 34.375C20.5208 33.5417 22.1146 32.9167 23.9688 32.5C25.8229 32.0833 27.8333 31.875 30 31.875C32.2083 31.875 34.2396 32.0833 36.0938 32.5C37.9479 32.9167 39.5417 33.5417 40.875 34.375C42.2083 35.2083 43.2292 36.1771 43.9375 37.2812C44.6458 38.3854 45 39.6042 45 40.9375V45H15ZM48.75 45V40.9375C48.75 39.8542 48.6146 38.8333 48.3438 37.875C48.0729 36.9167 47.6667 36.0208 47.125 35.1875C47.5833 35.1042 48.0521 35.0521 48.5312 35.0312C49.0104 35.0104 49.5 35 50 35C53 35 55.4167 35.5521 57.25 36.6562C59.0833 37.7604 60 39.2292 60 41.0625V45H48.75ZM20.3125 40H39.75C39.3333 39.1667 38.1771 38.4375 36.2812 37.8125C34.3854 37.1875 32.2917 36.875 30 36.875C27.7083 36.875 25.6146 37.1875 23.7188 37.8125C21.8229 38.4375 20.6875 39.1667 20.3125 40ZM10 32.5C8.625 32.5 7.44792 32.0104 6.46875 31.0312C5.48958 30.0521 5 28.875 5 27.5C5 26.0833 5.48958 24.8958 6.46875 23.9375C7.44792 22.9792 8.625 22.5 10 22.5C11.4167 22.5 12.6042 22.9792 13.5625 23.9375C14.5208 24.8958 15 26.0833 15 27.5C15 28.875 14.5208 30.0521 13.5625 31.0312C12.6042 32.0104 11.4167 32.5 10 32.5ZM50 32.5C48.625 32.5 47.4479 32.0104 46.4688 31.0312C45.4896 30.0521 45 28.875 45 27.5C45 26.0833 45.4896 24.8958 46.4688 23.9375C47.4479 22.9792 48.625 22.5 50 22.5C51.4167 22.5 52.6042 22.9792 53.5625 23.9375C54.5208 24.8958 55 26.0833 55 27.5C55 28.875 54.5208 30.0521 53.5625 31.0312C52.6042 32.0104 51.4167 32.5 50 32.5ZM30 30C27.9167 30 26.1458 29.2708 24.6875 27.8125C23.2292 26.3542 22.5 24.5833 22.5 22.5C22.5 20.375 23.2292 18.5938 24.6875 17.1562C26.1458 15.7188 27.9167 15 30 15C32.125 15 33.9062 15.7188 35.3438 17.1562C36.7812 18.5938 37.5 20.375 37.5 22.5C37.5 24.5833 36.7812 26.3542 35.3438 27.8125C33.9062 29.2708 32.125 30 30 30ZM30 25C30.7083 25 31.3021 24.7604 31.7812 24.2812C32.2604 23.8021 32.5 23.2083 32.5 22.5C32.5 21.7917 32.2604 21.1979 31.7812 20.7188C31.3021 20.2396 30.7083 20 30 20C29.2917 20 28.6979 20.2396 28.2188 20.7188C27.7396 21.1979 27.5 21.7917 27.5 22.5C27.5 23.2083 27.7396 23.8021 28.2188 24.2812C28.6979 24.7604 29.2917 25 30 25Z" fill="#5EA458"/>
</svg>
