<svg width="60" height="60" viewBox="0 0 60 60" fill="none" xmlns="http://www.w3.org/2000/svg">
<path d="M22 27.375L27.375 21.9375L23.875 18.375L21.125 21.125L17.625 17.625L20.3125 14.875L17.5 12.0625L12.0625 17.5L22 27.375ZM42.5 47.9375L47.9375 42.5L45.125 39.6875L42.375 42.375L38.875 38.875L41.5625 36.125L38 32.625L32.625 38L42.5 47.9375ZM18.125 52.5H7.5V41.875L18.4375 30.9375L5 17.5L17.5 5L31 18.5L40.4375 9C40.9375 8.5 41.5 8.125 42.125 7.875C42.75 7.625 43.3958 7.5 44.0625 7.5C44.7292 7.5 45.375 7.625 46 7.875C46.625 8.125 47.1875 8.5 47.6875 9L51 12.375C51.5 12.875 51.875 13.4375 52.125 14.0625C52.375 14.6875 52.5 15.3333 52.5 16C52.5 16.6667 52.375 17.3021 52.125 17.9062C51.875 18.5104 51.5 19.0625 51 19.5625L41.5625 29.0625L55 42.5L42.5 55L29.0625 41.5625L18.125 52.5ZM12.5 47.5H16L40.5 23.0625L36.9375 19.5L12.5 44V47.5ZM38.75 21.3125L36.9375 19.5L40.5 23.0625L38.75 21.3125Z" fill="#7DDB8A"/>
</svg>
