<svg width="60" height="60" viewBox="0 0 60 60" fill="none" xmlns="http://www.w3.org/2000/svg">
<path d="M30 45C35.5833 45 40.3125 43.0521 44.1875 39.1562C48.0625 35.2604 50 30.5417 50 25C50 23.7083 49.8958 22.4688 49.6875 21.2812C49.4791 20.0938 49.1458 18.9375 48.6875 17.8125C47.5625 18.5208 46.375 19.0625 45.125 19.4375C43.875 19.8125 42.5833 20 41.25 20C39 20 36.8854 19.4896 34.9062 18.4688C32.927 17.4479 31.2916 16 30 14.125C28.7083 16 27.0729 17.4479 25.0937 18.4688C23.1145 19.4896 21 20 18.75 20C17.4166 20 16.125 19.8125 14.875 19.4375C13.625 19.0625 12.4375 18.5208 11.3125 17.8125C10.8541 18.9375 10.5208 20.0938 10.3125 21.2812C10.1041 22.4688 9.99996 23.7083 9.99996 25C9.99996 30.5417 11.9479 35.2604 15.8437 39.1562C19.7395 43.0521 24.4583 45 30 45ZM22.5 30.625C23.375 30.625 24.1145 30.3229 24.7187 29.7188C25.3229 29.1146 25.625 28.375 25.625 27.5C25.625 26.625 25.3229 25.8854 24.7187 25.2812C24.1145 24.6771 23.375 24.375 22.5 24.375C21.625 24.375 20.8854 24.6771 20.2812 25.2812C19.677 25.8854 19.375 26.625 19.375 27.5C19.375 28.375 19.677 29.1146 20.2812 29.7188C20.8854 30.3229 21.625 30.625 22.5 30.625ZM37.5 30.625C38.375 30.625 39.1145 30.3229 39.7187 29.7188C40.3229 29.1146 40.625 28.375 40.625 27.5C40.625 26.625 40.3229 25.8854 39.7187 25.2812C39.1145 24.6771 38.375 24.375 37.5 24.375C36.625 24.375 35.8854 24.6771 35.2812 25.2812C34.677 25.8854 34.375 26.625 34.375 27.5C34.375 28.375 34.677 29.1146 35.2812 29.7188C35.8854 30.3229 36.625 30.625 37.5 30.625ZM18.75 15C21.1666 15 23.2291 14.1458 24.9375 12.4375C26.6458 10.7292 27.5 8.66667 27.5 6.25V5.125C24.6666 5.45833 22.0625 6.35417 19.6875 7.8125C17.3125 9.27083 15.3333 11.125 13.75 13.375C14.5 13.875 15.2916 14.2708 16.125 14.5625C16.9583 14.8542 17.8333 15 18.75 15ZM41.25 15C42.1666 15 43.0416 14.8646 43.875 14.5938C44.7083 14.3229 45.5 13.9167 46.25 13.375C44.6666 11.125 42.6979 9.27083 40.3437 7.8125C37.9895 6.35417 35.375 5.45833 32.5 5.125V6.25C32.5 8.66667 33.3541 10.7292 35.0625 12.4375C36.7708 14.1458 38.8333 15 41.25 15ZM5.49996 55C4.04163 55 2.81246 54.4583 1.81246 53.375C0.812459 52.2917 0.374959 51.0208 0.499959 49.5625L2.74996 24.875C3.08329 21.375 4.03121 18.1042 5.59371 15.0625C7.15621 12.0208 9.15621 9.38542 11.5937 7.15625C14.0312 4.92708 16.8229 3.17708 19.9687 1.90625C23.1145 0.635417 26.4583 0 30 0C33.5416 0 36.8854 0.635417 40.0312 1.90625C43.177 3.17708 45.9687 4.92708 48.4062 7.15625C50.8437 9.38542 52.8437 12.0208 54.4062 15.0625C55.9687 18.1042 56.9166 21.375 57.25 24.875L59.5 49.5625C59.625 51.0208 59.1875 52.2917 58.1875 53.375C57.1875 54.4583 55.9583 55 54.5 55H5.49996ZM30 50C24.7916 50 20.1041 48.5521 15.9375 45.6562C11.7708 42.7604 8.74996 39.0417 6.87496 34.5L5.49996 50H54.5L53.125 34.5C51.25 39.0417 48.2395 42.7604 44.0937 45.6562C39.9479 48.5521 35.25 50 30 50ZM30 50H54.5H5.49996H30Z" fill="#009444"/>
</svg>
