<svg width="60" height="60" viewBox="0 0 60 60" fill="none" xmlns="http://www.w3.org/2000/svg">
<path d="M48.75 52.5C47.7083 52.5 46.8229 52.1354 46.0938 51.4062C45.3646 50.6771 45 49.7917 45 48.75C45 47.7083 45.3646 46.8229 46.0938 46.0938C46.8229 45.3646 47.7083 45 48.75 45C49.7917 45 50.6771 45.3646 51.4062 46.0938C52.1354 46.8229 52.5 47.7083 52.5 48.75C52.5 49.7917 52.1354 50.6771 51.4062 51.4062C50.6771 52.1354 49.7917 52.5 48.75 52.5ZM25 55C20.8333 55 17.2917 54.5104 14.375 53.5312C11.4583 52.5521 10 51.375 10 50C10 49.0417 10.6875 48.1875 12.0625 47.4375C13.4375 46.6875 15.25 46.0833 17.5 45.625V50H22.5V5L42.5 14.75L27.5 22.5V45.125C31.0833 45.3333 34.0625 45.8854 36.4375 46.7812C38.8125 47.6771 40 48.75 40 50C40 51.375 38.5417 52.5521 35.625 53.5312C32.7083 54.5104 29.1667 55 25 55Z" fill="#5EA458"/>
</svg>
