<svg width="24" height="24" viewBox="0 0 24 24" fill="none" xmlns="http://www.w3.org/2000/svg">
<path d="M19.5 18.0127C19.9134 18.0127 20.2644 18.157 20.5537 18.4463C20.843 18.7356 20.9873 19.0866 20.9873 19.5C20.9873 19.9134 20.843 20.2644 20.5537 20.5537C20.2644 20.843 19.9134 20.9873 19.5 20.9873C19.0866 20.9873 18.7356 20.843 18.4463 20.5537C18.157 20.2644 18.0127 19.9134 18.0127 19.5C18.0127 19.0866 18.157 18.7356 18.4463 18.4463C18.7356 18.157 19.0866 18.0127 19.5 18.0127ZM10.9941 8.98828L10.9873 8.97559V18.0615L10.999 18.0625C12.4315 18.1458 13.6219 18.3669 14.5703 18.7246C15.0446 18.9035 15.3999 19.0994 15.6357 19.3125C15.8712 19.5254 15.9873 19.7546 15.9873 20C15.9873 20.27 15.8445 20.5219 15.5547 20.7559C15.2647 20.9899 14.8287 21.2048 14.2461 21.4004C13.0811 21.7915 11.6658 21.9873 10 21.9873C8.33424 21.9873 6.91893 21.7915 5.75391 21.4004C5.17127 21.2048 4.7353 20.9899 4.44531 20.7559C4.15548 20.5219 4.0127 20.27 4.0127 20C4.0127 19.6237 4.28244 19.2856 4.83105 18.9863C5.37648 18.6888 6.09507 18.4484 6.9873 18.2656V20.0127H9.0127V2.02051L16.9717 5.89941L10.9941 8.98828Z" fill="#7DDB8A" stroke="#7DDB8A" stroke-width="0.025"/>
</svg>
