<svg preserveAspectRatio="none" width="100%" height="100%" overflow="visible" style="display: block;" viewBox="0 0 60 60" fill="none" xmlns="http://www.w3.org/2000/svg">
<g id="handshake_24dp_E3E3E3_FILL0_wght400_GRAD0_opsz24 1">
<path id="Vector" d="M29.6875 50C29.8542 50 30.0208 49.9583 30.1875 49.875C30.3542 49.7917 30.4792 49.7083 30.5625 49.625L51.0625 29.125C51.5625 28.625 51.9271 28.0625 52.1563 27.4375C52.3854 26.8125 52.5 26.1875 52.5 25.5625C52.5 24.8958 52.3854 24.2604 52.1563 23.6562C51.9271 23.0521 51.5625 22.5208 51.0625 22.0625L40.4375 11.4375C39.9792 10.9375 39.4479 10.5729 38.8438 10.3437C38.2396 10.1146 37.6042 10 36.9375 10C36.3125 10 35.6875 10.1146 35.0625 10.3437C34.4375 10.5729 33.875 10.9375 33.375 11.4375L32.6875 12.125L37.3125 16.8125C37.9375 17.3958 38.3958 18.0625 38.6875 18.8125C38.9792 19.5625 39.125 20.3542 39.125 21.1875C39.125 22.9375 38.5313 24.4062 37.3438 25.5937C36.1563 26.7812 34.6875 27.375 32.9375 27.375C32.1042 27.375 31.3021 27.2292 30.5312 26.9375C29.7604 26.6458 29.0833 26.2083 28.5 25.625L23.8125 21L12.875 31.9375C12.75 32.0625 12.6562 32.1979 12.5937 32.3437C12.5312 32.4896 12.5 32.6458 12.5 32.8125C12.5 33.1458 12.625 33.4479 12.875 33.7187C13.125 33.9896 13.4167 34.125 13.75 34.125C13.9167 34.125 14.0833 34.0833 14.25 34C14.4167 33.9167 14.5417 33.8333 14.625 33.75L23.125 25.25L26.625 28.75L18.1875 37.25C18.0625 37.375 17.9687 37.5104 17.9062 37.6562C17.8437 37.8021 17.8125 37.9583 17.8125 38.125C17.8125 38.4583 17.9375 38.75 18.1875 39C18.4375 39.25 18.7292 39.375 19.0625 39.375C19.2292 39.375 19.3958 39.3333 19.5625 39.25C19.7292 39.1667 19.8542 39.0833 19.9375 39L28.4375 30.5625L31.9375 34.0625L23.5 42.5625C23.375 42.6458 23.2812 42.7708 23.2187 42.9375C23.1562 43.1042 23.125 43.2708 23.125 43.4375C23.125 43.7708 23.25 44.0625 23.5 44.3125C23.75 44.5625 24.0417 44.6875 24.375 44.6875C24.5417 44.6875 24.6979 44.6562 24.8437 44.5937C24.9896 44.5312 25.125 44.4375 25.25 44.3125L33.75 35.875L37.25 39.375L28.75 47.875C28.625 48 28.5312 48.1354 28.4687 48.2812C28.4062 48.4271 28.375 48.5833 28.375 48.75C28.375 49.0833 28.5104 49.375 28.7812 49.625C29.0521 49.875 29.3542 50 29.6875 50ZM29.625 55C28.0833 55 26.7187 54.4896 25.5312 53.4687C24.3437 52.4479 23.6458 51.1667 23.4375 49.625C22.0208 49.4167 20.8333 48.8333 19.875 47.875C18.9167 46.9167 18.3333 45.7292 18.125 44.3125C16.7083 44.1042 15.5312 43.5104 14.5937 42.5312C13.6562 41.5521 13.0833 40.375 12.875 39C11.2917 38.7917 10 38.1042 9 36.9375C8 35.7708 7.5 34.3958 7.5 32.8125C7.5 31.9792 7.65625 31.1771 7.96875 30.4062C8.28125 29.6354 8.72917 28.9583 9.3125 28.375L23.8125 13.9375L32 22.125C32.0833 22.25 32.2083 22.3437 32.375 22.4062C32.5417 22.4687 32.7083 22.5 32.875 22.5C33.25 22.5 33.5625 22.3854 33.8125 22.1562C34.0625 21.9271 34.1875 21.625 34.1875 21.25C34.1875 21.0833 34.1562 20.9167 34.0937 20.75C34.0312 20.5833 33.9375 20.4583 33.8125 20.375L24.875 11.4375C24.4167 10.9375 23.8854 10.5729 23.2812 10.3437C22.6771 10.1146 22.0417 10 21.375 10C20.75 10 20.125 10.1146 19.5 10.3437C18.875 10.5729 18.3125 10.9375 17.8125 11.4375L9 20.3125C8.625 20.6875 8.3125 21.125 8.0625 21.625C7.8125 22.125 7.64583 22.625 7.5625 23.125C7.47917 23.625 7.47917 24.1354 7.5625 24.6562C7.64583 25.1771 7.8125 25.6667 8.0625 26.125L4.4375 29.75C3.72917 28.7917 3.20833 27.7396 2.875 26.5937C2.54167 25.4479 2.41667 24.2917 2.5 23.125C2.58333 21.9583 2.875 20.8229 3.375 19.7187C3.875 18.6146 4.5625 17.625 5.4375 16.75L14.25 7.9375C15.25 6.97917 16.3646 6.25 17.5937 5.75C18.8229 5.25 20.0833 5 21.375 5C22.6667 5 23.9271 5.25 25.1562 5.75C26.3854 6.25 27.4792 6.97917 28.4375 7.9375L29.125 8.625L29.8125 7.9375C30.8125 6.97917 31.9271 6.25 33.1562 5.75C34.3854 5.25 35.6458 5 36.9375 5C38.2292 5 39.4896 5.25 40.7188 5.75C41.9479 6.25 43.0417 6.97917 44 7.9375L54.5625 18.5C55.5208 19.4583 56.25 20.5625 56.75 21.8125C57.25 23.0625 57.5 24.3333 57.5 25.625C57.5 26.9167 57.25 28.1771 56.75 29.4062C56.25 30.6354 55.5208 31.7292 54.5625 32.6875L34.0625 53.125C33.4792 53.7083 32.8021 54.1667 32.0312 54.5C31.2604 54.8333 30.4583 55 29.625 55Z" fill="var(--fill-0, #009444)"/>
</g>
</svg>
