<svg width="60" height="60" viewBox="0 0 60 60" fill="none" xmlns="http://www.w3.org/2000/svg">
<path d="M2.5 47.5V10H7.5V35H27.5V15H47.5C50.25 15 52.6042 15.9792 54.5625 17.9375C56.5208 19.8958 57.5 22.25 57.5 25V47.5H52.5V40H7.5V47.5H2.5ZM17.5 32.5C15.4167 32.5 13.6458 31.7708 12.1875 30.3125C10.7292 28.8542 10 27.0833 10 25C10 22.9167 10.7292 21.1458 12.1875 19.6875C13.6458 18.2292 15.4167 17.5 17.5 17.5C19.5833 17.5 21.3542 18.2292 22.8125 19.6875C24.2708 21.1458 25 22.9167 25 25C25 27.0833 24.2708 28.8542 22.8125 30.3125C21.3542 31.7708 19.5833 32.5 17.5 32.5ZM32.5 35H52.5V25C52.5 23.625 52.0104 22.4479 51.0312 21.4688C50.0521 20.4896 48.875 20 47.5 20H32.5V35ZM17.5 27.5C18.2083 27.5 18.8021 27.2604 19.2812 26.7812C19.7604 26.3021 20 25.7083 20 25C20 24.2917 19.7604 23.6979 19.2812 23.2188C18.8021 22.7396 18.2083 22.5 17.5 22.5C16.7917 22.5 16.1979 22.7396 15.7188 23.2188C15.2396 23.6979 15 24.2917 15 25C15 25.7083 15.2396 26.3021 15.7188 26.7812C16.1979 27.2604 16.7917 27.5 17.5 27.5Z" fill="#7DDB8A"/>
</svg>
