<svg preserveAspectRatio="none" width="100%" height="100%" overflow="visible" style="display: block;" viewBox="0 0 1810 570" fill="none" xmlns="http://www.w3.org/2000/svg">
<g id="Group">
<path id="Vector" d="M1303.76 569.02C1085.68 268.31 652.71 216.71 320.06 331.71C206.61 370.64 99.79 428.9 6.21 503.77L0.950005 497.15C95.75 422.21 203.66 364.2 318.02 325.7C652.35 212.27 1086.69 266.09 1303.76 569.01V569.02Z" fill="var(--fill-0, #105E50)"/>
<path id="Vector_2" d="M1316.41 560.85C1092.48 260.99 656.96 209.91 321.55 327.89C207.32 367.79 99.93 427.33 6.25 503.75L0.920006 497.19C95.83 420.67 204.32 361.38 319.47 321.9C656.56 205.49 1093.47 258.78 1316.4 560.85H1316.41Z" fill="var(--fill-0, #105E50)"/>
<path id="Vector_3" d="M1329.05 552.68C1099.36 253.65 661.18 203.09 323.02 324.03C208.01 364.91 100.05 425.72 6.28001 503.72L0.889999 497.21C95.9 419.1 204.97 358.51 320.91 318.06C660.76 198.68 1100.33 251.43 1329.04 552.68H1329.05Z" fill="var(--fill-0, #104F2E)"/>
<path id="Vector_4" d="M1341.69 544.51C1106.42 246.4 665.28 196 324.47 320.06C208.68 361.97 100.14 424.08 6.32 503.69L0.870003 497.23C95.95 417.48 205.61 355.59 322.33 314.09C664.84 191.58 1107.36 244.16 1341.7 544.5L1341.69 544.51Z" fill="var(--fill-0, #0E5C4E)"/>
<path id="Vector_5" d="M1354.33 536.34C1155.89 288.64 807.43 212.97 505.6 267.37C322.27 300.22 147.26 381.75 6.35001 503.67L0.840004 497.26C95.99 415.9 206.24 352.69 323.76 310.2C669.09 184.69 1114.33 236.78 1354.34 536.34H1354.33Z" fill="var(--fill-0, #4CB050)"/>
<path id="Vector_6" d="M1366.97 528.17C1077.28 182.11 526.71 171.96 158.07 393.32C104.23 425.33 53.32 462.24 6.37 503.64L0.800003 497.28C48.39 455.79 99.91 418.88 154.31 386.95C525.36 166.88 1078.11 179.29 1366.97 528.17Z" fill="var(--fill-0, #23CEBC)"/>
<path id="Vector_7" d="M1379.61 520.01C1127.75 223.95 677.96 175.55 328.83 308.34C210.62 353.14 100.37 419.21 6.4 503.63L0.770004 497.33C96.03 412.71 207.43 346.82 326.6 302.41C677.46 171.15 1128.6 221.7 1379.62 520.02L1379.61 520.01Z" fill="var(--fill-0, #23CEBC)"/>
<path id="Vector_8" d="M1392.26 511.84C1089.45 167.34 533.08 158.03 158.98 388.87C104.65 422.19 53.41 460.57 6.44 503.59L0.75 497.34C48.37 454.2 100.22 415.81 155.13 382.55C531.79 152.94 1090.16 164.48 1392.26 511.84Z" fill="var(--fill-0, #5EB861)"/>
<path id="Vector_9" d="M1404.9 503.67C1276.54 357.53 1091.49 269.78 901.21 239.16C583.77 187.78 242.41 282.97 6.47 503.56L0.720001 497.36C239.18 276.79 582.88 182.62 901.73 236.02C1092.17 267.73 1277.15 356.59 1404.91 503.65L1404.9 503.67Z" fill="var(--fill-0, #2F7D32)"/>
<path id="Vector_10" d="M1417.54 495.5C1102.62 152.69 538.6 144.02 159.85 384.39C105.02 419.03 53.49 458.89 6.49001 503.53L0.68 497.39C48.33 452.61 100.49 412.72 155.91 378.13C537.16 138.96 1103.29 149.82 1417.54 495.5Z" fill="var(--fill-0, #23CEBC)"/>
<path id="Vector_11" d="M1430.18 487.33C1157.07 193.91 694.61 147.31 334.52 292.29C213.18 341.18 100.56 412.46 6.52 503.51L0.650002 497.42C95.91 406.18 209.71 334.98 332.16 286.4C694.17 142.91 1157.73 191.59 1430.18 487.32V487.33Z" fill="var(--fill-0, #014421)"/>
<path id="Vector_12" d="M1442.82 479.16C1164.5 186.38 698.77 140.1 335.93 288.26C213.78 338.16 100.58 410.8 6.55 503.49L0.630005 497.46C48.27 451 100.73 409.59 156.64 373.65C542.41 124.83 1116.71 135.23 1442.82 479.17V479.16Z" fill="var(--fill-0, #014421)"/>
<path id="Vector_13" d="M1455.46 470.99C1124.76 132.18 546.04 133 161.34 378.84C105.53 414.8 53.36 456.43 6.57 503.45L0.590004 497.47C48.08 450.24 100.93 408.54 157.35 372.61C544.52 127.96 1125.33 129.31 1455.46 470.99Z" fill="var(--fill-0, #4CB050)"/>
<path id="Vector_14" d="M1468.11 462.82C1131.58 125.03 548.62 125.7 161.72 376.51C105.68 413.16 53.37 455.57 6.61 503.42L0.580002 497.5C48.05 449.43 101.03 406.94 157.69 370.32C547.08 120.67 1132.12 122.16 1468.11 462.82Z" fill="var(--fill-0, #2F7D32)"/>
<path id="Vector_15" d="M1480.75 454.66C1138.56 117.76 551.1 118.38 162.05 374.15C105.77 411.5 53.35 454.7 6.63 503.41L0.550003 497.54C47.98 448.61 101.09 405.32 157.98 367.98C549.53 113.35 1139.06 114.88 1480.75 454.66Z" fill="var(--fill-0, #0E5C4E)"/>
<path id="Vector_16" d="M1493.39 446.49C1145.48 110.56 553.62 111.03 162.4 371.81C105.89 409.86 53.35 453.84 6.66 503.38L0.520004 497.57C47.92 447.79 101.15 403.71 158.28 365.67C552.02 106.02 1145.94 107.67 1493.39 446.5V446.49Z" fill="var(--fill-0, #105E50)"/>
<path id="Vector_17" d="M1506.03 438.32C1152.44 103.32 556.11 103.67 162.73 369.45C105.99 408.2 53.33 452.97 6.68 503.35L0.490005 497.59C47.86 446.97 101.2 402.09 158.57 363.34C554.49 98.66 1152.86 100.42 1506.03 438.32Z" fill="var(--fill-0, #104F2E)"/>
<path id="Vector_18" d="M1518.67 430.15C1160.17 96.08 557.9 96.32 163.03 367.05C106.06 406.51 53.3 452.09 6.71 503.32L0.470001 497.62C47.78 446.12 101.23 400.43 158.83 360.97C556.26 91.32 1160.56 93.17 1518.67 430.16V430.15Z" fill="var(--fill-0, #014421)"/>
<path id="Vector_19" d="M1531.31 421.98C1167.25 88.78 560.32 88.92 163.33 364.68C106.13 404.85 53.26 451.22 6.72 503.29L0.43 497.64C47.69 445.29 101.25 398.79 159.09 358.62C558.65 83.92 1167.59 85.86 1531.3 421.98H1531.31Z" fill="var(--fill-0, #2F7D32)"/>
<path id="Vector_20" d="M1543.95 413.81C1174.5 81.39 562.62 81.56 163.61 362.27C106.19 403.15 53.22 450.33 6.76 503.26L0.420006 497.67C47.6 444.45 101.27 397.13 159.34 356.23C560.94 76.56 1174.82 78.4601 1543.96 413.81H1543.95Z" fill="var(--fill-0, #014421)"/>
<path id="Vector_21" d="M1556.6 405.64C1181.68 74.04 564.98 74.13 163.9 359.88C106.25 401.47 53.19 449.45 6.79 503.24L0.400002 497.7C47.52 443.62 101.29 395.49 159.59 353.88C563.28 69.14 1181.96 71.12 1556.6 405.65V405.64Z" fill="var(--fill-0, #104F2E)"/>
<path id="Vector_22" d="M1569.24 397.47C1189.01 66.58 567.22 66.67 164.15 357.44C106.28 399.75 53.12 448.55 6.81001 503.2L0.370003 497.72C47.41 442.76 101.27 393.81 159.79 351.46C565.48 61.68 1189.25 63.63 1569.24 397.46V397.47Z" fill="var(--fill-0, #014421)"/>
<path id="Vector_23" d="M1581.88 389.31C1196.92 59.29 568.87 59.27 164.41 355.05C106.32 398.08 53.07 447.68 6.84 503.19L0.360001 497.76C47.32 441.94 101.28 392.17 160.03 349.1C567.13 54.29 1197.14 56.34 1581.89 389.31H1581.88Z" fill="var(--fill-0, #0E5C4E)"/>
<path id="Vector_24" d="M1594.52 381.14C1204.36 51.8 571.01 51.84 164.63 352.61C106.32 396.36 52.99 446.78 6.86 503.16L0.330002 497.79C47.19 441.09 101.24 390.48 160.21 346.69C569.24 46.8699 1204.55 48.85 1594.53 381.15L1594.52 381.14Z" fill="var(--fill-0, #014421)"/>
<path id="Vector_25" d="M1607.16 372.97C1211.74 44.35 573.2 44.34 164.86 350.19C106.33 394.66 52.92 445.9 6.87 503.13L0.300003 497.82C47.08 440.25 101.21 388.82 160.4 344.3C571.4 39.37 1211.87 41.4 1607.16 372.98V372.97Z" fill="var(--fill-0, #105E50)"/>
<path id="Vector_26" d="M1619.8 364.8C1215.36 31.45 578.72 28.03 165.08 346.9C106.48 392.59 53.01 444.9 6.9 503.1L0.280006 497.84C47.12 439.3 101.3 386.81 160.55 341.06C576.91 23.05 1215.56 28.49 1619.8 364.8Z" fill="var(--fill-0, #105E50)"/>
<path id="Vector_27" d="M1632.45 356.63C1222.72 23.68 581.04 20.53 165.33 344.5C106.51 390.9 52.95 444.01 6.93 503.07L0.270004 497.87C47.01 438.46 101.29 385.16 160.77 338.69C579.21 15.58 1222.86 20.7 1632.46 356.64L1632.45 356.63Z" fill="var(--fill-0, #014421)"/>
<path id="Vector_28" d="M1645.09 348.46C1230.17 15.8 583.28 13.19 165.52 342.06C106.48 389.18 52.84 443.11 6.95 503.04L0.240005 497.89C46.86 437.59 101.22 383.46 160.92 336.27C581.42 8.24001 1230.28 12.8 1645.09 348.46Z" fill="var(--fill-0, #4CB050)"/>
<path id="Vector_29" d="M1657.73 340.29C1237.54 7.96002 585.56 5.67999 165.73 339.64C106.48 387.48 52.74 442.22 6.96 503.01L0.209999 497.92C46.72 436.75 101.18 381.8 161.1 333.88C583.67 0.72998 1237.62 4.96002 1657.73 340.29Z" fill="var(--fill-0, #5EB861)"/>
<path id="Vector_30" d="M1670.37 332.12C1426.93 141.32 1107.15 60.48 801.1 88.99C496.8 115.86 191.72 253.79 6.98 502.98L0.190002 497.94C187.22 248.03 494.47 110.41 800.72 84.77C1107.39 57.61 1427.42 139.91 1670.36 332.11L1670.37 332.12Z" fill="var(--fill-0, #014421)"/>
<path id="Vector_31" d="M1683.01 323.96C1282.03 15.07 684.98 -6.49995 259.73 266.12C162.44 329.35 75.33 409.08 7 502.96L0.170006 497.98C46.44 435.04 101.06 378.45 161.42 329.08C588.12 -14.34 1252.38 -10.85 1683.01 323.96Z" fill="var(--fill-0, #5EB861)"/>
<path id="Vector_32" d="M1695.65 315.79C1289.73 7.09999 688.15 -14.05 260.33 262.67C162.54 326.84 75.17 407.76 7.02 502.93L0.150002 498C69.37 402.25 157.69 321.18 256.57 256.91C686.75 -18.7 1289.9 4.39998 1695.65 315.78V315.79Z" fill="var(--fill-0, #104F2E)"/>
<path id="Vector_33" d="M1708.29 307.62C1298.1 -0.949997 690.7 -21.38 260.88 259.18C162.55 324.24 74.96 406.41 7.04 502.9L0.130005 498.03C69.13 400.95 157.68 318.61 257.1 253.45C689.28 -26.02 1298.26 -3.64998 1708.29 307.62Z" fill="var(--fill-0, #105E50)"/>
<path id="Vector_34" d="M1720.94 299.45C1274.83 -31.77 596.65 -31.9 166.59 327.44C106.28 378.91 52.18 437.74 7.06001 502.88L0.110001 498.06C45.96 432.48 100.8 373.39 161.8 321.8C594.66 -36.82 1274.78 -34.79 1720.93 299.45H1720.94Z" fill="var(--fill-0, #4CB050)"/>
<path id="Vector_35" d="M1733.58 291.28C1297.46 -28.39 648.82 -38.5 213.32 287.25C198.08 299.08 181.31 312.38 166.76 325.03C106.22 377.21 52.03 436.83 7.08 502.85L0.100006 498.09C45.8 431.61 100.73 371.72 161.95 319.42C176.68 306.75 193.57 293.45 209.02 281.58C647.1 -43.27 1297.5 -31.23 1733.58 291.29V291.28Z" fill="var(--fill-0, #2F7D32)"/>
<path id="Vector_36" d="M1746.22 283.11C1309.05 -33.47 663.7 -45.92 225.75 275.22C205.85 289.97 185.61 306.34 166.9 322.58C106.16 375.5 51.9 435.94 7.10001 502.82L0.0800018 498.11C45.63 430.75 100.63 370.03 162.06 316.99C180.98 300.72 201.41 284.33 221.54 269.55C662.05 -50.67 1309.13 -36.27 1746.22 283.11Z" fill="var(--fill-0, #4CB050)"/>
<path id="Vector_37" d="M1758.86 274.94C1297.31 -55.78 603.15 -54.59 166.99 320.08C106.05 373.74 51.75 435.02 7.12 502.79L0.0600052 498.14C45.43 429.89 100.48 368.32 162.12 314.53C601.08 -59.5 1297.26 -58.78 1758.87 274.95L1758.86 274.94Z" fill="var(--fill-0, #104F2E)"/>
<path id="Vector_38" d="M1771.5 266.77C1519.76 88.16 1204.08 7.94001 897.29 29.13C553.37 52.36 199.53 206.82 7.13 502.77L0.0400009 498.17C45.26 429.04 100.36 366.63 162.2 312.1C603.17 -67.12 1304.76 -66.81 1771.5 266.78V266.77Z" fill="var(--fill-0, #014421)"/>
<path id="Vector_39" d="M1784.14 258.61C1444.33 20.39 993.28 -42.2 597.84 78.09C362.05 149.71 140.88 292.47 7.15 502.75L0.0200043 498.2C90.1 357.88 220.2 246.29 366.48 167.77C806.55 -66.24 1377.28 -28.72 1784.14 258.61Z" fill="var(--fill-0, #2F7D32)"/>
<path id="Vector_40" d="M1796.79 250.44C1319.98 -79.95 609.42 -77.61 167.29 312.69C105.75 368.56 51.29 432.33 7.17001 502.71L0.0100021 498.22C44.88 427.32 100.09 363.23 162.34 307.2C607.32 -82.51 1319.79 -82.99 1796.79 250.43V250.44Z" fill="var(--fill-0, #104F2E)"/>
<path id="Vector_41" d="M1809.43 242.27C1328.15 -87.9 610.9 -85.12 167.37 310.23C105.62 366.84 51.12 431.43 7.19 502.69L0 498.25C44.67 426.45 99.94 361.53 162.39 304.76C608.8 -90.01 1327.92 -90.95 1809.43 242.27Z" fill="var(--fill-0, #5EB861)"/>
</g>
</svg>
