<svg preserveAspectRatio="none" width="100%" height="100%" overflow="visible" style="display: block;" viewBox="0 0 60 60" fill="none" xmlns="http://www.w3.org/2000/svg">
<g id="location_on_24dp_E3E3E3_FILL0_wght400_GRAD0_opsz24 1">
<path id="Vector" d="M30 30C31.375 30 32.5521 29.5104 33.5312 28.5312C34.5104 27.5521 35 26.375 35 25C35 23.625 34.5104 22.4479 33.5312 21.4687C32.5521 20.4896 31.375 20 30 20C28.625 20 27.4479 20.4896 26.4688 21.4687C25.4896 22.4479 25 23.625 25 25C25 26.375 25.4896 27.5521 26.4688 28.5312C27.4479 29.5104 28.625 30 30 30ZM30 48.375C35.0833 43.7083 38.8542 39.4687 41.3125 35.6562C43.7708 31.8437 45 28.4583 45 25.5C45 20.9583 43.5521 17.2396 40.6562 14.3437C37.7604 11.4479 34.2083 10 30 10C25.7917 10 22.2396 11.4479 19.3438 14.3437C16.4479 17.2396 15 20.9583 15 25.5C15 28.4583 16.2292 31.8437 18.6875 35.6562C21.1458 39.4687 24.9167 43.7083 30 48.375ZM30 55C23.2917 49.2917 18.2812 43.9896 14.9688 39.0937C11.6562 34.1979 10 29.6667 10 25.5C10 19.25 12.0104 14.2708 16.0312 10.5625C20.0521 6.85417 24.7083 5 30 5C35.2917 5 39.9479 6.85417 43.9688 10.5625C47.9896 14.2708 50 19.25 50 25.5C50 29.6667 48.3438 34.1979 45.0312 39.0937C41.7188 43.9896 36.7083 49.2917 30 55Z" fill="var(--fill-0, #009444)"/>
</g>
</svg>
