<svg width="60" height="60" viewBox="0 0 60 60" fill="none" xmlns="http://www.w3.org/2000/svg">
<path d="M7.5 52.5V47.5H12.5V7.5H37.5V10H47.5V47.5H52.5V52.5H42.5V15H37.5V52.5H7.5ZM27.5 32.5C28.2083 32.5 28.8021 32.2604 29.2812 31.7812C29.7604 31.3021 30 30.7083 30 30C30 29.2917 29.7604 28.6979 29.2812 28.2188C28.8021 27.7396 28.2083 27.5 27.5 27.5C26.7917 27.5 26.1979 27.7396 25.7188 28.2188C25.2396 28.6979 25 29.2917 25 30C25 30.7083 25.2396 31.3021 25.7188 31.7812C26.1979 32.2604 26.7917 32.5 27.5 32.5ZM17.5 47.5H32.5V12.5H17.5V47.5Z" fill="#7DDB8A"/>
</svg>
