<svg preserveAspectRatio="none" width="100%" height="100%" overflow="visible" style="display: block;" viewBox="0 0 50 50" fill="none" xmlns="http://www.w3.org/2000/svg">
<g id="rocket_launch_24dp_E3E3E3_FILL0_wght400_GRAD0_opsz24 1">
<path id="Vector" d="M11.7708 20.8854L15.8333 22.6042C16.3194 21.6319 16.8229 20.6944 17.3438 19.7917C17.8646 18.8889 18.4375 17.9861 19.0625 17.0833L16.1458 16.5104L11.7708 20.8854ZM19.1667 25.2083L25.1042 31.0937C26.5625 30.5382 28.125 29.6875 29.7917 28.5417C31.4583 27.3958 33.0208 26.0937 34.4792 24.6354C36.9097 22.2049 38.8108 19.5052 40.1823 16.5365C41.5538 13.5677 42.1528 10.8333 41.9792 8.33333C39.4792 8.15972 36.7361 8.75868 33.75 10.1302C30.7639 11.5017 28.0556 13.4028 25.625 15.8333C24.1667 17.2917 22.8646 18.8542 21.7188 20.5208C20.5729 22.1875 19.7222 23.75 19.1667 25.2083ZM28.4375 21.8229C27.6389 21.0243 27.2396 20.0434 27.2396 18.8802C27.2396 17.717 27.6389 16.7361 28.4375 15.9375C29.2361 15.1389 30.2257 14.7396 31.4063 14.7396C32.5868 14.7396 33.5764 15.1389 34.375 15.9375C35.1736 16.7361 35.5729 17.717 35.5729 18.8802C35.5729 20.0434 35.1736 21.0243 34.375 21.8229C33.5764 22.6215 32.5868 23.0208 31.4063 23.0208C30.2257 23.0208 29.2361 22.6215 28.4375 21.8229ZM29.4271 38.5417L33.8021 34.1667L33.2292 31.25C32.3264 31.875 31.4236 32.4392 30.5208 32.9427C29.6181 33.4462 28.6806 33.941 27.7083 34.4271L29.4271 38.5417ZM45.7292 4.53125C46.3889 8.73264 45.9809 12.8212 44.5052 16.7969C43.0295 20.7726 40.4861 24.566 36.875 28.1771L37.9167 33.3333C38.0556 34.0278 38.0208 34.7049 37.8125 35.3646C37.6042 36.0243 37.2569 36.5972 36.7708 37.0833L28.0208 45.8333L23.6458 35.5729L14.7396 26.6667L4.47917 22.2917L13.1771 13.5417C13.6632 13.0556 14.2448 12.7083 14.9219 12.5C15.599 12.2917 16.2847 12.2569 16.9792 12.3958L22.1354 13.4375C25.7465 9.82639 29.5313 7.27431 33.4896 5.78125C37.4479 4.28819 41.5278 3.87153 45.7292 4.53125ZM8.17708 33.2812C9.39236 32.066 10.8767 31.4497 12.6302 31.4323C14.3837 31.4149 15.8681 32.0139 17.0833 33.2292C18.2986 34.4444 18.8976 35.9288 18.8802 37.6823C18.8628 39.4358 18.2465 40.9201 17.0313 42.1354C16.1632 43.0035 14.7135 43.75 12.6823 44.375C10.651 45 7.84722 45.5556 4.27083 46.0417C4.75694 42.4653 5.3125 39.6615 5.9375 37.6302C6.5625 35.599 7.30903 34.1493 8.17708 33.2812ZM11.1458 36.1979C10.7986 36.5451 10.4514 37.1788 10.1042 38.099C9.75694 39.0191 9.51389 39.9479 9.375 40.8854C10.3125 40.7465 11.2413 40.5122 12.1615 40.1823C13.0816 39.8524 13.7153 39.5139 14.0625 39.1667C14.4792 38.75 14.7049 38.2465 14.7396 37.6562C14.7743 37.066 14.5833 36.5625 14.1667 36.1458C13.75 35.7292 13.2465 35.5295 12.6563 35.5469C12.066 35.5642 11.5625 35.7812 11.1458 36.1979Z" fill="var(--fill-0, white)"/>
</g>
</svg>
