<svg preserveAspectRatio="none" width="100%" height="100%" overflow="visible" style="display: block;" viewBox="0 0 19 21" fill="none" xmlns="http://www.w3.org/2000/svg">
<g id="Saudi_Riyal_Symbol-2 1" clip-path="url(#clip0_5167_3802)">
<path id="Vector" d="M11.8248 18.4047C11.4858 19.1482 11.2617 19.955 11.1758 20.8011L18.3508 19.2928C18.6898 18.5495 18.9138 17.7425 18.9998 16.8964L11.8248 18.4047Z" fill="var(--fill-0, black)"/>
<path id="Vector_2" d="M18.3504 14.9729C18.6894 14.2296 18.9136 13.4226 18.9994 12.5765L13.4103 13.7521V11.4923L18.3502 10.4541C18.6893 9.71082 18.9134 8.90384 18.9993 8.05775L13.4102 9.23228V1.10533C12.5537 1.58086 11.7932 2.21384 11.1749 2.96048V9.7023L8.93963 10.1721V0C8.08322 0.475362 7.32264 1.10851 6.70437 1.85515V10.6418L1.70295 11.6928C1.3639 12.4361 1.13961 13.2431 1.05358 14.0892L6.70437 12.9016V15.7475L0.648448 17.0201C0.309398 17.7634 0.0852801 18.5704 -0.000581111 19.4165L6.33827 18.0843C6.85429 17.9782 7.29779 17.6765 7.58613 17.2613L8.74864 15.5569V15.5566C8.86932 15.3802 8.93963 15.1676 8.93963 14.9386V12.4318L11.1749 11.9619V16.4816L18.3502 14.9726L18.3504 14.9729Z" fill="var(--fill-0, black)"/>
</g>
<defs>
<clipPath id="clip0_5167_3802">
<rect width="19" height="21" fill="white"/>
</clipPath>
</defs>
</svg>
