<svg preserveAspectRatio="none" width="100%" height="100%" overflow="visible" style="display: block;" viewBox="0 0 45 50" fill="none" xmlns="http://www.w3.org/2000/svg">
<g id="Saudi_Riyal_Symbol-2 1" clip-path="url(#clip0_5167_3739)">
<path id="Vector" d="M28.0062 43.8207C27.2032 45.5909 26.6723 47.5119 26.469 49.5264L43.4624 45.9351C44.2654 44.1654 44.7958 42.244 44.9996 40.2295L28.0062 43.8207Z" fill="var(--fill-0, black)"/>
<path id="Vector_2" d="M43.4622 35.6498C44.2653 33.88 44.7961 31.9586 44.9994 29.9441L31.7621 32.743V27.3625L43.4618 24.8908C44.2649 23.121 44.7957 21.1996 44.999 19.1851L31.7617 21.9816V2.63175C29.7334 3.76396 27.932 5.27106 26.4677 7.04877V23.1007L21.1736 24.2194V0C19.1453 1.13181 17.3439 2.63931 15.8796 4.41702V25.3377L4.0341 27.8401C3.23109 29.6098 2.69988 31.5312 2.49613 33.5457L15.8796 30.7182V37.4939L1.53659 40.5241C0.73358 42.2938 0.202774 44.2152 -0.000581111 46.2297L15.0125 43.0579C16.2346 42.8052 17.285 42.0869 17.968 41.0983L20.7213 37.0403V37.0395C21.0071 36.6196 21.1736 36.1134 21.1736 35.5682V29.5995L26.4677 28.4808V39.2418L43.4618 35.649L43.4622 35.6498Z" fill="var(--fill-0, black)"/>
</g>
<defs>
<clipPath id="clip0_5167_3739">
<rect width="45" height="50" fill="white"/>
</clipPath>
</defs>
</svg>
