<svg width="24" height="24" viewBox="0 0 24 24" fill="none" xmlns="http://www.w3.org/2000/svg">
<path d="M6.5 5.0127C6.81407 5.0127 7.09925 5.10332 7.35547 5.28516C7.61153 5.46691 7.78854 5.70656 7.8877 6.00391H7.88867L9.9873 12V20C9.9873 20.2802 9.89331 20.5149 9.7041 20.7041C9.51489 20.8933 9.28019 20.9873 9 20.9873H8C7.71981 20.9873 7.48511 20.8933 7.2959 20.7041C7.10669 20.5149 7.0127 20.2802 7.0127 20V18.9873H2.0127V17.0127H8.0127V11.9873H2.0127V10.0127H7.21777L7.21191 9.99609L6.16211 6.99609L6.15918 6.9873H2.0127V5.0127H6.5ZM13 2.0127H21C21.5467 2.0127 22.014 2.20734 22.4033 2.59668C22.7927 2.98602 22.9873 3.45334 22.9873 4V12C22.9873 12.5467 22.7927 13.014 22.4033 13.4033C22.014 13.7927 21.5467 13.9873 21 13.9873H17.9873V20.9873H16.0127V13.9873H13C12.4533 13.9873 11.986 13.7927 11.5967 13.4033C11.2073 13.014 11.0127 12.5467 11.0127 12V4C11.0127 3.45334 11.2073 2.98602 11.5967 2.59668C11.986 2.20734 12.4533 2.0127 13 2.0127ZM5.5 13.0127C5.91339 13.0127 6.26442 13.157 6.55371 13.4463C6.84301 13.7356 6.9873 14.0866 6.9873 14.5C6.9873 14.9134 6.84301 15.2644 6.55371 15.5537C6.26442 15.843 5.91339 15.9873 5.5 15.9873C5.08661 15.9873 4.73558 15.843 4.44629 15.5537C4.15699 15.2644 4.0127 14.9134 4.0127 14.5C4.0127 14.0866 4.15699 13.7356 4.44629 13.4463C4.73558 13.157 5.08661 13.0127 5.5 13.0127ZM12.9873 12.0127H21.0127V3.9873H12.9873V12.0127ZM18.5 5.0127C18.9134 5.0127 19.2644 5.15699 19.5537 5.44629C19.843 5.73558 19.9873 6.08661 19.9873 6.5V7.5C19.9873 7.91339 19.843 8.26442 19.5537 8.55371C19.2644 8.84301 18.9134 8.9873 18.5 8.9873H16.4873V10.9873H15.0127V5.0127H18.5ZM16.4873 7.5127H18.5127V6.4873H16.4873V7.5127Z" fill="#7DDB8A" stroke="#7DDB8A" stroke-width="0.025"/>
</svg>
