<svg width="60" height="60" viewBox="0 0 60 60" fill="none" xmlns="http://www.w3.org/2000/svg">
<path d="M30 55C26.5417 55 23.2917 54.3438 20.25 53.0312C17.2083 51.7188 14.5625 49.9375 12.3125 47.6875C10.0625 45.4375 8.28125 42.7917 6.96875 39.75C5.65625 36.7083 5 33.4583 5 30C5 26.5417 5.65625 23.2917 6.96875 20.25C8.28125 17.2083 10.0625 14.5625 12.3125 12.3125C14.5625 10.0625 17.2083 8.28125 20.25 6.96875C23.2917 5.65625 26.5417 5 30 5C33.4583 5 36.7083 5.65625 39.75 6.96875C42.7917 8.28125 45.4375 10.0625 47.6875 12.3125C49.9375 14.5625 51.7188 17.2083 53.0312 20.25C54.3438 23.2917 55 26.5417 55 30C55 33.4583 54.3438 36.7083 53.0312 39.75C51.7188 42.7917 49.9375 45.4375 47.6875 47.6875C45.4375 49.9375 42.7917 51.7188 39.75 53.0312C36.7083 54.3438 33.4583 55 30 55ZM27.5 49.875V45C26.125 45 24.9479 44.5104 23.9688 43.5312C22.9896 42.5521 22.5 41.375 22.5 40V37.5L10.5 25.5C10.375 26.25 10.2604 27 10.1562 27.75C10.0521 28.5 10 29.25 10 30C10 35.0417 11.6562 39.4583 14.9688 43.25C18.2812 47.0417 22.4583 49.25 27.5 49.875ZM44.75 43.5C46.4583 41.625 47.7604 39.5312 48.6562 37.2188C49.5521 34.9062 50 32.5 50 30C50 25.9167 48.8646 22.1875 46.5938 18.8125C44.3229 15.4375 41.2917 13 37.5 11.5V12.5C37.5 13.875 37.0104 15.0521 36.0312 16.0312C35.0521 17.0104 33.875 17.5 32.5 17.5H27.5V22.5C27.5 23.2083 27.2604 23.8021 26.7812 24.2812C26.3021 24.7604 25.7083 25 25 25H20V30H35C35.7083 30 36.3021 30.2396 36.7812 30.7188C37.2604 31.1979 37.5 31.7917 37.5 32.5V40H40C41.0833 40 42.0625 40.3229 42.9375 40.9688C43.8125 41.6146 44.4167 42.4583 44.75 43.5Z" fill="#009444"/>
</svg>
