<svg width="24" height="24" viewBox="0 0 24 24" fill="none" xmlns="http://www.w3.org/2000/svg">
<path d="M18.9873 21.9873H17.0127V13.9873H14.0127V7C14.0127 5.61997 14.499 4.44433 15.4717 3.47168C16.4413 2.50202 17.6128 2.01567 18.9873 2.0127V21.9873ZM7.0127 12.8408L7.00293 12.8379C6.15572 12.6052 5.44538 12.1403 4.87207 11.4424C4.29897 10.7447 4.0127 9.93053 4.0127 9V2.0127H5.9873V9.0127H7.0127V2.0127H8.9873V9.0127H10.0127V2.0127H11.9873V9C11.9873 9.93053 11.701 10.7447 11.1279 11.4424C10.5546 12.1403 9.84428 12.6052 8.99707 12.8379L8.9873 12.8408V21.9873H7.0127V12.8408Z" fill="#7DDB8A" stroke="#7DDB8A" stroke-width="0.025"/>
</svg>
