<svg width="1125" height="1257" viewBox="0 0 1125 1257" fill="none" xmlns="http://www.w3.org/2000/svg">
<g clip-path="url(#clip0_247_42)">
<path d="M699.96 1113.56C679.89 1158.06 666.623 1206.36 661.541 1257L1086.26 1166.72C1106.33 1122.22 1119.58 1073.92 1124.68 1023.28L699.96 1113.56Z" fill="black"/>
<path d="M1086.26 896.235C1106.33 851.743 1119.59 803.44 1124.68 752.795L793.835 823.159V687.894L1086.25 625.754C1106.32 581.262 1119.58 532.959 1124.67 482.314L793.825 552.618V66.1621C743.131 94.6259 698.109 132.514 661.511 177.206V580.752L529.197 608.875V0C478.502 28.4538 433.48 66.3522 396.883 111.044V636.989L100.829 699.9C80.7592 744.391 67.4827 792.695 62.3903 843.339L396.883 772.255V942.597L38.4086 1018.77C18.3389 1063.27 5.07245 1111.57 -0.0100146 1162.21L375.212 1082.48C405.757 1076.12 432.01 1058.06 449.078 1033.21L517.891 931.192V931.172C525.035 920.617 529.197 907.89 529.197 894.184V744.131L661.511 716.007V986.539L1086.25 896.215L1086.26 896.235Z" fill="black"/>
</g>
<defs>
<clipPath id="clip0_247_42">
<rect width="1124.14" height="1256.39" fill="white" transform="scale(1.00049)"/>
</clipPath>
</defs>
</svg>
