<svg width="2209" height="1863" viewBox="0 0 2209 1863" fill="none" xmlns="http://www.w3.org/2000/svg">
<g clip-path="url(#clip0_2433_3001)">
<g style="mix-blend-mode:screen">
<path d="M1697.06 1068.43C1362.09 900.979 954.63 1056.85 714.604 1315.06C632.606 1402.86 565.603 1504.87 518.159 1615.58L510.379 1612.11C558.869 1500.77 626.955 1398.47 709.961 1310.63C952.215 1053.04 1361.94 898.52 1697.06 1068.42L1697.06 1068.43Z" fill="#105E50"/>
<path d="M1704.4 1055.21C1364.65 891.252 955.179 1048.78 714.119 1310.94C631.889 1399.98 564.986 1503.4 518.185 1615.54L510.371 1612.16C558.213 1499.35 626.207 1395.64 709.45 1306.55C952.738 1045.01 1364.49 888.811 1704.39 1055.21L1704.4 1055.21Z" fill="#105E50"/>
<path d="M1711.72 1042C1367.28 881.469 955.692 1040.7 713.596 1306.8C631.139 1397.08 564.332 1501.9 518.197 1615.5L510.354 1612.19C557.533 1497.91 625.427 1392.76 708.91 1302.44C953.238 1036.95 1367.09 879.029 1711.71 1042L1711.72 1042Z" fill="#104F2E"/>
<path d="M1719.05 1028.78C1370.1 871.683 955.972 1032.44 713.005 1302.57C630.344 1394.13 563.637 1500.39 518.218 1615.46L510.346 1612.22C556.813 1496.44 624.614 1389.85 708.292 1298.22C953.495 1028.69 1369.87 869.239 1719.05 1028.77L1719.05 1028.78Z" fill="#0E5C4E"/>
<path d="M1726.37 1015.57C1433.82 886.413 1089.76 981.292 848.389 1170.86C701.689 1285.83 585.339 1440.5 518.236 1615.42L510.333 1612.26C556.102 1495.01 623.802 1386.96 707.72 1294.07C954.002 1020.54 1372.55 859.379 1726.38 1015.56L1726.37 1015.57Z" fill="#4CB050"/>
<path d="M1733.7 1002.35C1313.96 827.723 822.011 1075.59 600.368 1445.82C567.846 1499.6 540.23 1556.41 518.239 1615.39L510.307 1612.29C532.822 1552.94 560.978 1495.85 594.033 1441.87C818.417 1071.67 1313.36 824.811 1733.7 1002.35Z" fill="#23CEBC"/>
<path d="M1741.03 989.15C1378.37 841.629 957.534 1008.21 711.328 1290.04C627.89 1385.32 561.54 1495.93 518.261 1615.36L510.304 1612.35C554.631 1492.13 622.083 1381.15 706.554 1285.77C955.014 1004.51 1378.06 839.218 1741.04 989.154L1741.03 989.15Z" fill="#23CEBC"/>
<path d="M1748.36 975.932C1317.75 808.82 821.069 1060.14 599.072 1441.41C566.735 1496.6 539.521 1554.87 518.277 1615.31L510.291 1612.37C532.054 1551.52 559.802 1492.95 592.681 1437.55C817.524 1056.19 1317.03 805.928 1748.36 975.932Z" fill="#5EB861"/>
<path d="M1755.69 962.718C1573.1 891.783 1367.93 899.583 1185.11 960.973C879.969 1063.12 622.882 1307.66 518.29 1615.27L510.274 1612.4C617.105 1303.63 876.745 1058.92 1184.08 957.919C1367.56 897.43 1573.2 890.657 1755.69 962.695L1755.69 962.718Z" fill="#2F7D32"/>
<path d="M1763.02 949.504C1322.48 789.557 819.337 1045.02 597.726 1436.99C565.57 1493.6 538.799 1553.33 518.293 1615.23L510.253 1612.45C531.268 1550.12 558.582 1490.06 591.283 1433.23C815.673 1041.17 1321.72 786.675 1763.02 949.504Z" fill="#23CEBC"/>
<path d="M1770.34 936.29C1390.13 801.05 958.93 975.16 708.783 1273.02C624.508 1373.42 558.521 1489.79 518.31 1615.2L510.241 1612.49C551.441 1486.34 618.509 1369.49 703.913 1268.84C956.463 971.426 1389.62 798.665 1770.34 936.281L1770.34 936.29Z" fill="#014421"/>
<path d="M1777.67 923.076C1393.15 790.841 959.206 966.763 708.127 1268.75C623.612 1370.43 557.755 1488.3 518.328 1615.17L510.242 1612.53C530.454 1548.7 557.316 1487.15 589.814 1428.87C813.646 1026.06 1326.71 767.349 1777.67 923.085L1777.67 923.076Z" fill="#014421"/>
<path d="M1784.99 909.863C1332.39 760.862 820.716 1031.69 596.423 1431.33C564.024 1489.57 537.522 1551.19 518.326 1615.12L510.211 1612.56C529.927 1548.11 556.997 1486.11 589.951 1427.61C816.991 1027.88 1331.54 758.026 1784.99 909.863Z" fill="#4CB050"/>
<path d="M1792.33 896.644C1335.05 751.278 819.551 1023.95 595.659 1429.07C563.382 1488.03 537.125 1550.42 518.348 1615.08L510.216 1612.59C529.518 1547.4 556.33 1484.63 589.17 1425.4C815.813 1020.16 1334.17 748.456 1792.33 896.644Z" fill="#2F7D32"/>
<path d="M1799.66 883.439C1337.79 741.511 818.289 1016.23 594.837 1426.8C562.678 1486.5 536.696 1549.65 518.361 1615.06L510.209 1612.64C529.069 1546.7 555.618 1483.15 588.322 1423.17C814.524 1012.46 1336.87 738.699 1799.66 883.439Z" fill="#0E5C4E"/>
<path d="M1806.99 870.226C1340.51 731.835 817.048 1008.48 594.041 1424.54C562.009 1484.98 536.29 1548.88 518.373 1615.02L510.196 1612.68C528.629 1545.99 554.911 1481.69 587.496 1420.97C813.266 1004.74 1339.55 729.033 1806.99 870.235L1806.99 870.226Z" fill="#105E50"/>
<path d="M1814.31 857.012C1343.25 722.105 815.775 1000.73 593.219 1422.27C561.314 1483.45 535.862 1548.11 518.376 1614.98L510.179 1612.72C528.188 1545.29 554.19 1480.21 586.653 1418.74C811.976 996.997 1342.25 719.313 1814.31 857.012Z" fill="#104F2E"/>
<path d="M1821.64 843.798C1346.67 712.015 813.888 993.311 592.351 1419.98C560.578 1481.9 535.419 1547.33 518.389 1614.94L510.176 1612.75C527.716 1544.56 553.433 1478.71 585.763 1416.5C810.076 989.6 1345.64 709.228 1821.64 843.807L1821.64 843.798Z" fill="#014421"/>
<path d="M1828.96 830.584C1349.49 702.175 812.535 985.556 591.497 1417.72C559.856 1480.38 534.973 1546.57 518.384 1614.91L510.15 1612.79C527.244 1543.86 552.676 1477.23 584.884 1414.28C808.696 981.859 1348.41 699.402 1828.95 830.589L1828.96 830.584Z" fill="#2F7D32"/>
<path d="M1836.29 817.371C1352.41 692.176 811.094 977.893 590.607 1415.43C559.106 1478.83 534.518 1545.79 518.405 1614.87L510.155 1612.82C526.768 1543.15 551.91 1475.74 583.976 1412.02C807.247 974.201 1351.31 689.403 1836.3 817.366L1836.29 817.371Z" fill="#014421"/>
<path d="M1843.62 804.152C1355.3 682.244 809.674 970.14 589.735 1413.16C558.366 1477.3 534.075 1545.02 518.422 1614.83L510.152 1612.86C526.305 1542.45 551.153 1474.26 583.088 1409.8C805.813 966.465 1354.16 679.499 1843.63 804.161L1843.62 804.152Z" fill="#104F2E"/>
<path d="M1850.95 790.938C1358.26 672.144 808.133 962.415 588.804 1410.86C557.58 1475.75 533.588 1544.25 518.421 1614.79L510.135 1612.89C525.802 1541.73 550.342 1472.77 582.122 1407.54C804.237 958.76 1357.08 669.391 1850.94 790.929L1850.95 790.938Z" fill="#014421"/>
<path d="M1858.28 777.734C1361.81 661.926 806.098 955.02 587.905 1408.6C556.827 1474.23 533.133 1543.49 518.442 1614.77L510.145 1612.93C525.335 1541.04 549.576 1471.29 581.22 1405.31C802.207 951.373 1360.62 659.182 1858.29 777.729L1858.28 777.734Z" fill="#0E5C4E"/>
<path d="M1865.61 764.52C1364.86 651.747 804.483 947.369 586.948 1406.31C556.014 1472.69 532.638 1542.72 518.446 1614.73L510.132 1612.97C524.819 1540.34 548.743 1469.8 580.241 1403.07C800.57 943.745 1363.64 649.017 1865.62 764.524L1865.61 764.52Z" fill="#014421"/>
<path d="M1872.93 751.306C1367.87 641.633 802.879 939.632 586.008 1404.03C555.22 1471.17 532.16 1541.97 518.441 1614.7L510.12 1613.01C524.325 1539.63 547.932 1468.33 579.28 1400.84C798.939 936.022 1366.59 638.931 1872.94 751.315L1872.93 751.306Z" fill="#105E50"/>
<path d="M1880.26 738.092C1364.98 628.394 800.061 922.453 584.649 1400.99C554.376 1469.24 531.768 1541.03 518.453 1614.66L510.112 1613.04C523.911 1538.77 547.063 1466.48 577.883 1397.87C796.108 918.839 1363.76 625.651 1880.26 738.092Z" fill="#105E50"/>
<path d="M1887.59 724.874C1367.83 618.003 798.572 914.656 583.737 1398.72C553.604 1467.71 531.294 1540.26 518.465 1614.62L510.117 1613.07C523.417 1538.06 546.275 1465.01 576.959 1395.65C794.615 911.078 1366.54 615.269 1887.61 724.878L1887.59 724.874Z" fill="#014421"/>
<path d="M1894.92 711.66C1370.7 607.471 797.088 907.039 582.753 1396.45C552.765 1466.19 530.772 1539.51 518.469 1614.58L510.1 1613.1C522.874 1537.36 545.41 1463.52 575.948 1393.41C793.104 903.475 1369.38 604.734 1894.92 711.66Z" fill="#4CB050"/>
<path d="M1902.24 698.446C1373.52 597.012 795.558 899.251 581.796 1394.18C551.963 1464.67 530.263 1538.76 518.464 1614.55L510.087 1613.14C522.353 1536.67 544.591 1462.06 574.979 1391.19C791.549 895.701 1372.17 594.289 1902.24 698.446Z" fill="#5EB861"/>
<path d="M1909.57 685.232C1604.07 628.021 1282.95 704.887 1025.61 873.246C769.054 1039.32 564.251 1305.19 518.467 1614.51L510.079 1613.17C557.549 1302.13 764.418 1035.53 1023.28 869.645C1281.8 702.205 1603.84 626.53 1909.56 685.228L1909.57 685.232Z" fill="#014421"/>
<path d="M1916.9 672.028C1416.24 582.614 877.775 841.947 630.249 1284.49C574.026 1386.51 534.601 1498.54 518.475 1614.48L510.08 1613.21C521.298 1535.27 542.903 1459.11 572.996 1386.74C788.369 880.132 1377.76 573.246 1916.9 672.028Z" fill="#5EB861"/>
<path d="M1924.23 658.814C1419.29 571.885 877.014 833.708 629.151 1281.12C572.929 1384.21 533.836 1497.44 518.479 1614.45L510.072 1613.24C526.102 1495.21 565.964 1381.41 623.104 1277.72C873.579 830.198 1418.16 569.388 1924.22 658.805L1924.23 658.814Z" fill="#104F2E"/>
<path d="M1931.55 645.6C1422.89 560.771 875.809 825.955 627.99 1277.74C571.71 1381.88 533.013 1496.33 518.482 1614.41L510.069 1613.28C525.276 1494.16 564.742 1379.11 621.939 1274.37C872.361 822.463 1421.76 558.279 1931.55 645.6Z" fill="#105E50"/>
<path d="M1938.89 632.382C1387.75 544.038 787.624 860.43 576.796 1382.86C547.739 1457.09 527.652 1535.01 518.491 1614.39L510.065 1613.31C519.664 1533.2 540.283 1454.7 569.894 1380.05C783.54 856.954 1386.28 541.358 1938.88 632.386L1938.89 632.382Z" fill="#4CB050"/>
<path d="M1946.21 619.168C1409.37 536.503 830.668 830.173 599.164 1325.07C591.266 1342.77 582.708 1362.51 575.808 1380.62C546.883 1455.59 527.089 1534.26 518.494 1614.35L510.07 1613.34C519.112 1532.5 539.432 1453.24 568.903 1377.84C575.953 1359.63 584.616 1339.84 592.681 1322C826.894 826.705 1408.06 533.941 1946.22 619.177L1946.21 619.168Z" fill="#2F7D32"/>
<path d="M1953.54 605.954C1417.22 526.545 840.33 816.585 604.481 1308.5C593.839 1330.99 583.66 1355.09 574.775 1378.36C546.022 1454.09 526.554 1533.53 518.498 1614.31L510.062 1613.37C518.555 1531.81 538.546 1451.77 567.852 1375.62C576.91 1352.22 587.247 1328.01 598.078 1305.38C836.627 813.102 1415.97 524.001 1953.54 605.954Z" fill="#4CB050"/>
<path d="M1960.86 592.74C1396.3 512.05 782.66 837.081 573.674 1376.08C545.094 1452.57 525.987 1532.77 518.501 1614.28L510.059 1613.41C517.972 1531.13 537.606 1450.31 566.744 1373.39C778.51 833.652 1394.84 509.388 1960.88 592.745L1960.86 592.74Z" fill="#104F2E"/>
<path d="M1968.19 579.527C1661.1 537.103 1343.9 612.61 1082.46 774.761C789.12 956.067 548.98 1259.49 518.501 1614.25L510.055 1613.44C517.421 1530.45 536.701 1448.86 565.667 1371.17C776.761 825.854 1397.68 498.698 1968.19 579.536L1968.19 579.527Z" fill="#014421"/>
<path d="M1975.52 566.322C1562.36 511.632 1133.7 666.1 840.619 958.349C665.81 1132.51 537.533 1363.55 518.509 1614.23L510.052 1613.48C523.491 1445.81 585.908 1285.19 678.259 1146.62C957.13 731.724 1479.84 498.955 1975.52 566.322Z" fill="#2F7D32"/>
<path d="M1982.86 553.103C1404.94 479.831 777.337 813.545 570.449 1369.33C542.382 1448.07 524.31 1530.58 518.508 1614.18L510.052 1613.5C516.272 1529.09 534.857 1445.94 563.477 1366.72C773.165 810.138 1403.34 477.198 1982.85 553.094L1982.86 553.103Z" fill="#104F2E"/>
<path d="M1990.18 539.889C1408.42 468.9 775.1 806.131 569.358 1367.09C541.455 1446.59 523.734 1529.85 518.516 1614.15L510.057 1613.53C515.675 1528.4 533.921 1444.49 562.369 1364.51C770.933 802.733 1406.78 466.277 1990.18 539.889Z" fill="#5EB861"/>
</g>
<path style="mix-blend-mode:screen" opacity="0.7" d="M1414.52 823.55C1394.6 781.8 1243.03 812.411 1075.97 891.921C908.919 971.431 789.642 1069.73 809.562 1111.48C829.482 1153.23 981.056 1122.62 1148.11 1043.11C1315.17 963.602 1434.44 865.3 1414.52 823.55Z" fill="url(#paint0_radial_2433_3001)"/>
<path style="mix-blend-mode:screen" opacity="0.7" d="M1306.97 874.74C1292.45 844.302 1193.4 861.163 1085.75 912.402C978.091 963.641 902.593 1029.85 917.116 1060.29C931.639 1090.73 1030.68 1073.87 1138.34 1022.63C1246 971.391 1321.49 905.179 1306.97 874.74Z" fill="url(#paint1_radial_2433_3001)"/>
</g>
<defs>
<radialGradient id="paint0_radial_2433_3001" cx="0" cy="0" r="1" gradientTransform="matrix(272.813 -23.5262 11.3279 119.641 9355.22 261.461)" gradientUnits="userSpaceOnUse">
<stop stop-color="#006B4F"/>
<stop offset="0.18" stop-color="#006A4E" stop-opacity="0.96"/>
<stop offset="0.38" stop-color="#02684E" stop-opacity="0.83"/>
<stop offset="0.59" stop-color="#05654E" stop-opacity="0.62"/>
<stop offset="0.8" stop-color="#09604E" stop-opacity="0.33"/>
<stop offset="1" stop-color="#0E5C4E" stop-opacity="0"/>
</radialGradient>
<radialGradient id="paint1_radial_2433_3001" cx="0" cy="0" r="1" gradientTransform="matrix(168.654 -14.544 7.90993 83.5413 10385.2 154.564)" gradientUnits="userSpaceOnUse">
<stop stop-color="#006B4F"/>
<stop offset="0.16" stop-color="#006A4E" stop-opacity="0.94"/>
<stop offset="0.39" stop-color="#03674E" stop-opacity="0.76"/>
<stop offset="0.66" stop-color="#07624E" stop-opacity="0.47"/>
<stop offset="0.96" stop-color="#0D5C4E" stop-opacity="0.06"/>
<stop offset="1" stop-color="#0E5C4E" stop-opacity="0"/>
</radialGradient>
<clipPath id="clip0_2433_3001">
<rect width="1920" height="1092.81" fill="white" transform="translate(0 896.067) scale(1.00035) rotate(-27.8098)"/>
</clipPath>
</defs>
</svg>
