<svg width="1920" height="1080" viewBox="0 0 1920 1080" fill="none" xmlns="http://www.w3.org/2000/svg">
<g clip-path="url(#clip0_2429_2013)">
<g style="mix-blend-mode:screen">
<path d="M1420.14 932.8C1202.06 632.09 769.09 580.49 436.44 695.49C322.99 734.42 216.17 792.68 122.59 867.55L117.33 860.93C212.13 785.99 320.04 727.98 434.4 689.48C768.73 576.05 1203.07 629.87 1420.14 932.79V932.8Z" fill="#105E50"/>
<path d="M1432.79 924.63C1208.86 624.77 773.34 573.69 437.93 691.67C323.7 731.57 216.31 791.11 122.63 867.53L117.3 860.97C212.21 784.45 320.7 725.16 435.85 685.68C772.94 569.27 1209.85 622.56 1432.78 924.63H1432.79Z" fill="#105E50"/>
<path d="M1445.43 916.46C1215.74 617.43 777.56 566.87 439.4 687.81C324.39 728.69 216.43 789.5 122.66 867.5L117.27 860.99C212.28 782.88 321.35 722.29 437.29 681.84C777.14 562.46 1216.71 615.21 1445.42 916.46H1445.43Z" fill="#104F2E"/>
<path d="M1458.07 908.29C1222.8 610.18 781.66 559.78 440.85 683.84C325.06 725.75 216.52 787.86 122.7 867.47L117.25 861.01C212.33 781.26 321.99 719.37 438.71 677.87C781.22 555.36 1223.74 607.94 1458.08 908.28L1458.07 908.29Z" fill="#0E5C4E"/>
<path d="M1470.71 900.12C1272.27 652.42 923.81 576.75 621.98 631.15C438.65 664 263.64 745.53 122.73 867.45L117.22 861.04C212.37 779.68 322.62 716.47 440.14 673.98C785.47 548.47 1230.71 600.56 1470.72 900.12H1470.71Z" fill="#4CB050"/>
<path d="M1483.35 891.95C1193.66 545.89 643.09 535.74 274.45 757.1C220.61 789.11 169.7 826.02 122.75 867.42L117.18 861.06C164.77 819.57 216.29 782.66 270.69 750.73C641.74 530.66 1194.49 543.07 1483.35 891.95Z" fill="#23CEBC"/>
<path d="M1495.99 883.79C1244.13 587.73 794.34 539.33 445.21 672.12C327 716.92 216.75 782.99 122.78 867.41L117.15 861.11C212.41 776.49 323.81 710.6 442.98 666.19C793.84 534.93 1244.98 585.48 1496 883.8L1495.99 883.79Z" fill="#23CEBC"/>
<path d="M1508.64 875.62C1205.83 531.12 649.46 521.81 275.36 752.65C221.03 785.97 169.79 824.35 122.82 867.37L117.13 861.12C164.75 817.98 216.6 779.59 271.51 746.33C648.17 516.72 1206.54 528.26 1508.64 875.62Z" fill="#5EB861"/>
<path d="M1521.28 867.45C1392.92 721.31 1207.87 633.56 1017.59 602.94C700.15 551.56 358.79 646.75 122.85 867.34L117.1 861.14C355.56 640.57 699.26 546.4 1018.11 599.8C1208.55 631.51 1393.53 720.37 1521.29 867.43L1521.28 867.45Z" fill="#2F7D32"/>
<path d="M1533.92 859.28C1219 516.47 654.98 507.8 276.23 748.17C221.4 782.81 169.87 822.67 122.87 867.31L117.06 861.17C164.71 816.39 216.87 776.5 272.29 741.91C653.54 502.74 1219.67 513.6 1533.92 859.28Z" fill="#23CEBC"/>
<path d="M1546.56 851.11C1273.45 557.69 810.99 511.09 450.9 656.07C329.56 704.96 216.94 776.24 122.9 867.29L117.03 861.2C212.29 769.96 326.09 698.76 448.54 650.18C810.55 506.69 1274.11 555.37 1546.56 851.1V851.11Z" fill="#014421"/>
<path d="M1559.2 842.94C1280.88 550.16 815.15 503.88 452.31 652.04C330.16 701.94 216.96 774.58 122.93 867.27L117.01 861.24C164.65 814.78 217.11 773.37 273.02 737.43C658.79 488.61 1233.09 499.01 1559.2 842.95V842.94Z" fill="#014421"/>
<path d="M1571.84 834.77C1241.14 495.96 662.42 496.78 277.72 742.62C221.91 778.58 169.74 820.21 122.95 867.23L116.97 861.25C164.46 814.02 217.31 772.32 273.73 736.39C660.9 491.74 1241.71 493.09 1571.84 834.77Z" fill="#4CB050"/>
<path d="M1584.49 826.6C1247.96 488.81 665 489.48 278.1 740.29C222.06 776.94 169.75 819.35 122.99 867.2L116.96 861.28C164.43 813.21 217.41 770.72 274.07 734.1C663.46 484.45 1248.5 485.94 1584.49 826.6Z" fill="#2F7D32"/>
<path d="M1597.13 818.44C1254.94 481.54 667.48 482.16 278.43 737.93C222.15 775.28 169.73 818.48 123.01 867.19L116.93 861.32C164.36 812.39 217.47 769.1 274.36 731.76C665.91 477.13 1255.44 478.66 1597.13 818.44Z" fill="#0E5C4E"/>
<path d="M1609.77 810.27C1261.86 474.34 670 474.81 278.78 735.59C222.27 773.64 169.73 817.62 123.04 867.16L116.9 861.35C164.3 811.57 217.53 767.49 274.66 729.45C668.4 469.8 1262.32 471.45 1609.77 810.28V810.27Z" fill="#105E50"/>
<path d="M1622.41 802.1C1268.82 467.1 672.49 467.45 279.11 733.23C222.37 771.98 169.71 816.75 123.06 867.13L116.87 861.37C164.24 810.75 217.58 765.87 274.95 727.12C670.87 462.44 1269.24 464.2 1622.41 802.1Z" fill="#104F2E"/>
<path d="M1635.05 793.93C1276.55 459.86 674.28 460.1 279.41 730.83C222.44 770.29 169.68 815.87 123.09 867.1L116.85 861.4C164.16 809.9 217.61 764.21 275.21 724.75C672.64 455.1 1276.94 456.95 1635.05 793.94V793.93Z" fill="#014421"/>
<path d="M1647.69 785.76C1283.63 452.56 676.7 452.7 279.71 728.46C222.51 768.63 169.64 815 123.1 867.07L116.81 861.42C164.07 809.07 217.63 762.57 275.47 722.4C675.03 447.7 1283.97 449.64 1647.68 785.76H1647.69Z" fill="#2F7D32"/>
<path d="M1660.33 777.59C1290.88 445.17 679 445.34 279.99 726.05C222.57 766.93 169.6 814.11 123.14 867.04L116.8 861.45C163.98 808.23 217.65 760.91 275.72 720.01C677.32 440.34 1291.2 442.24 1660.34 777.59H1660.33Z" fill="#014421"/>
<path d="M1672.98 769.42C1298.06 437.82 681.36 437.91 280.28 723.66C222.63 765.25 169.57 813.23 123.17 867.02L116.78 861.48C163.9 807.4 217.67 759.27 275.97 717.66C679.66 432.92 1298.34 434.9 1672.98 769.43V769.42Z" fill="#104F2E"/>
<path d="M1685.62 761.25C1305.39 430.36 683.6 430.45 280.53 721.22C222.66 763.53 169.5 812.33 123.19 866.98L116.75 861.5C163.79 806.54 217.65 757.59 276.17 715.24C681.86 425.46 1305.63 427.41 1685.62 761.24V761.25Z" fill="#014421"/>
<path d="M1698.26 753.09C1313.3 423.07 685.25 423.05 280.79 718.83C222.7 761.86 169.45 811.46 123.22 866.97L116.74 861.54C163.7 805.72 217.66 755.95 276.41 712.88C683.51 418.07 1313.52 420.12 1698.27 753.09H1698.26Z" fill="#0E5C4E"/>
<path d="M1710.9 744.92C1320.74 415.58 687.39 415.62 281.01 716.39C222.7 760.14 169.37 810.56 123.24 866.94L116.71 861.57C163.57 804.87 217.62 754.26 276.59 710.47C685.62 410.65 1320.93 412.63 1710.91 744.93L1710.9 744.92Z" fill="#014421"/>
<path d="M1723.54 736.75C1328.12 408.13 689.58 408.12 281.24 713.97C222.71 758.44 169.3 809.68 123.25 866.91L116.68 861.6C163.46 804.03 217.59 752.6 276.78 708.08C687.78 403.15 1328.25 405.18 1723.54 736.76V736.75Z" fill="#105E50"/>
<path d="M1736.18 728.58C1331.74 395.23 695.1 391.81 281.46 710.68C222.86 756.37 169.39 808.68 123.28 866.88L116.66 861.62C163.5 803.08 217.68 750.59 276.93 704.84C693.29 386.83 1331.94 392.27 1736.18 728.58Z" fill="#105E50"/>
<path d="M1748.83 720.41C1339.1 387.46 697.42 384.31 281.71 708.28C222.89 754.68 169.33 807.79 123.31 866.85L116.65 861.65C163.39 802.24 217.67 748.94 277.15 702.47C695.59 379.36 1339.24 384.48 1748.84 720.42L1748.83 720.41Z" fill="#014421"/>
<path d="M1761.47 712.24C1346.55 379.58 699.66 376.97 281.9 705.84C222.86 752.96 169.22 806.89 123.33 866.82L116.62 861.67C163.24 801.37 217.6 747.24 277.3 700.05C697.8 372.02 1346.66 376.58 1761.47 712.24Z" fill="#4CB050"/>
<path d="M1774.11 704.07C1353.92 371.74 701.94 369.46 282.11 703.42C222.86 751.26 169.12 806 123.34 866.79L116.59 861.7C163.1 800.53 217.56 745.58 277.48 697.66C700.05 364.51 1354 368.74 1774.11 704.07Z" fill="#5EB861"/>
<path d="M1786.75 695.9C1543.31 505.1 1223.53 424.26 917.48 452.77C613.18 479.64 308.1 617.57 123.36 866.76L116.57 861.72C303.6 611.81 610.85 474.19 917.1 448.55C1223.77 421.39 1543.8 503.69 1786.74 695.89L1786.75 695.9Z" fill="#014421"/>
<path d="M1799.39 687.74C1398.41 378.85 801.36 357.28 376.11 629.9C278.82 693.13 191.71 772.86 123.38 866.74L116.55 861.76C162.82 798.82 217.44 742.23 277.8 692.86C704.5 349.44 1368.76 352.93 1799.39 687.74Z" fill="#5EB861"/>
<path d="M1812.03 679.57C1406.11 370.88 804.53 349.73 376.71 626.45C278.92 690.62 191.55 771.54 123.4 866.71L116.53 861.78C185.75 766.03 274.07 684.96 372.95 620.69C803.13 345.08 1406.28 368.18 1812.03 679.56V679.57Z" fill="#104F2E"/>
<path d="M1824.67 671.4C1414.48 362.83 807.08 342.4 377.26 622.96C278.93 688.02 191.34 770.19 123.42 866.68L116.51 861.81C185.51 764.73 274.06 682.39 373.48 617.23C805.66 337.76 1414.64 360.13 1824.67 671.4Z" fill="#105E50"/>
<path d="M1837.32 663.23C1391.21 332.01 713.03 331.88 282.97 691.22C222.66 742.69 168.56 801.52 123.44 866.66L116.49 861.84C162.34 796.26 217.18 737.17 278.18 685.58C711.04 326.96 1391.16 328.99 1837.31 663.23H1837.32Z" fill="#4CB050"/>
<path d="M1849.96 655.06C1413.84 335.39 765.2 325.28 329.7 651.03C314.46 662.86 297.69 676.16 283.14 688.81C222.6 740.99 168.41 800.61 123.46 866.63L116.48 861.87C162.18 795.39 217.11 735.5 278.33 683.2C293.06 670.53 309.95 657.23 325.4 645.36C763.48 320.51 1413.88 332.55 1849.96 655.07V655.06Z" fill="#2F7D32"/>
<path d="M1862.6 646.89C1425.43 330.31 780.08 317.86 342.13 639C322.23 653.75 301.99 670.12 283.28 686.36C222.54 739.28 168.28 799.72 123.48 866.6L116.46 861.89C162.01 794.53 217.01 733.81 278.44 680.77C297.36 664.5 317.79 648.11 337.92 633.33C778.43 313.11 1425.51 327.51 1862.6 646.89Z" fill="#4CB050"/>
<path d="M1875.24 638.72C1413.69 308 719.53 309.19 283.37 683.86C222.43 737.52 168.13 798.8 123.5 866.57L116.44 861.92C161.81 793.67 216.86 732.1 278.5 678.31C717.46 304.28 1413.64 305 1875.25 638.73L1875.24 638.72Z" fill="#104F2E"/>
<path d="M1887.88 630.55C1636.14 451.94 1320.46 371.72 1013.67 392.91C669.75 416.14 315.91 570.6 123.51 866.55L116.42 861.95C161.64 792.82 216.74 730.41 278.58 675.88C719.55 296.66 1421.14 296.97 1887.88 630.56V630.55Z" fill="#014421"/>
<path d="M1900.52 622.39C1560.71 384.17 1109.66 321.58 714.22 441.87C478.43 513.49 257.26 656.25 123.53 866.53L116.4 861.98C206.48 721.66 336.58 610.07 482.86 531.55C922.93 297.54 1493.66 335.06 1900.52 622.39Z" fill="#2F7D32"/>
<path d="M1913.17 614.22C1436.36 283.83 725.8 286.17 283.67 676.47C222.13 732.34 167.67 796.11 123.55 866.49L116.39 862C161.26 791.1 216.47 727.01 278.72 670.98C723.7 281.27 1436.17 280.79 1913.17 614.21V614.22Z" fill="#104F2E"/>
<path d="M1925.81 606.05C1444.53 275.88 727.28 278.66 283.75 674.01C222 730.62 167.5 795.21 123.57 866.47L116.38 862.03C161.05 790.23 216.32 725.31 278.77 668.54C725.18 273.77 1444.3 272.83 1925.81 606.05Z" fill="#5EB861"/>
</g>
<path style="mix-blend-mode:screen" opacity="0.7" d="M1284.53 588.596C1286.39 542.932 1138.09 499.819 953.3 492.3C768.509 484.781 617.2 515.704 615.342 561.368C613.484 607.032 761.781 650.145 946.571 657.663C1131.36 665.182 1282.67 634.26 1284.53 588.596Z" fill="url(#paint0_radial_2429_2013)"/>
<path style="mix-blend-mode:screen" opacity="0.7" d="M1165.56 583.755C1166.91 550.463 1071.47 519.547 952.388 514.701C833.304 509.856 735.669 532.916 734.314 566.208C732.959 599.5 828.398 630.416 947.483 635.262C1066.57 640.107 1164.2 617.047 1165.56 583.755Z" fill="url(#paint1_radial_2429_2013)"/>
</g>
<defs>
<radialGradient id="paint0_radial_2429_2013" cx="0" cy="0" r="1" gradientUnits="userSpaceOnUse" gradientTransform="translate(8567.76 3757.35) rotate(22.64) scale(273.246 118.931)">
<stop stop-color="#006B4F"/>
<stop offset="0.18" stop-color="#006A4E" stop-opacity="0.96"/>
<stop offset="0.38" stop-color="#02684E" stop-opacity="0.83"/>
<stop offset="0.59" stop-color="#05654E" stop-opacity="0.62"/>
<stop offset="0.8" stop-color="#09604E" stop-opacity="0.33"/>
<stop offset="1" stop-color="#0E5C4E" stop-opacity="0"/>
</radialGradient>
<radialGradient id="paint1_radial_2429_2013" cx="0" cy="0" r="1" gradientUnits="userSpaceOnUse" gradientTransform="translate(9528.29 4138.65) rotate(22.64) scale(168.922 83.0456)">
<stop stop-color="#006B4F"/>
<stop offset="0.16" stop-color="#006A4E" stop-opacity="0.94"/>
<stop offset="0.39" stop-color="#03674E" stop-opacity="0.76"/>
<stop offset="0.66" stop-color="#07624E" stop-opacity="0.47"/>
<stop offset="0.96" stop-color="#0D5C4E" stop-opacity="0.06"/>
<stop offset="1" stop-color="#0E5C4E" stop-opacity="0"/>
</radialGradient>
<clipPath id="clip0_2429_2013">
<rect width="1920" height="1080" fill="white"/>
</clipPath>
</defs>
</svg>
