<svg width="190" height="40" viewBox="0 0 190 40" fill="none" xmlns="http://www.w3.org/2000/svg">
<g clip-path="url(#clip0_0_171)">
<path d="M15 5C10.9294 5 10.4175 5.01875 8.81812 5.09C7.21875 5.165 6.12937 5.41625 5.175 5.7875C4.17346 6.16311 3.26651 6.75387 2.51813 7.51813C1.75387 8.26651 1.16311 9.17346 0.7875 10.175C0.41625 11.1275 0.163125 12.2187 0.09 13.8125C0.01875 15.4156 0 15.9256 0 20.0019C0 24.0744 0.01875 24.5844 0.09 26.1838C0.165 27.7812 0.41625 28.8706 0.7875 29.825C1.17188 30.8112 1.68375 31.6475 2.51813 32.4819C3.35063 33.3162 4.18687 33.83 5.17313 34.2125C6.12937 34.5837 7.21688 34.8369 8.81437 34.91C10.4156 34.9812 10.9256 35 15 35C19.0744 35 19.5825 34.9812 21.1838 34.91C22.7794 34.835 23.8725 34.5837 24.8269 34.2125C25.8277 33.8366 26.734 33.2459 27.4819 32.4819C28.3162 31.6475 28.8281 30.8112 29.2125 29.825C29.5819 28.8706 29.835 27.7812 29.91 26.1838C29.9812 24.5844 30 24.0744 30 20C30 15.9256 29.9812 15.4156 29.91 13.8144C29.835 12.2188 29.5819 11.1275 29.2125 10.175C28.8369 9.17346 28.2461 8.26651 27.4819 7.51813C26.7335 6.75387 25.8265 6.16311 24.825 5.7875C23.8687 5.41625 22.7775 5.16313 21.1819 5.09C19.5806 5.01875 19.0725 5 14.9963 5H15ZM13.6556 7.70375H15.0019C19.0069 7.70375 19.4812 7.71688 21.0619 7.79C22.5244 7.85563 23.3194 8.10125 23.8481 8.30562C24.5475 8.5775 25.0481 8.90375 25.5731 9.42875C26.0981 9.95375 26.4225 10.4525 26.6944 11.1537C26.9006 11.6806 27.1444 12.4756 27.21 13.9381C27.2831 15.5188 27.2981 15.9931 27.2981 19.9963C27.2981 23.9994 27.2831 24.4756 27.21 26.0562C27.1444 27.5187 26.8988 28.3119 26.6944 28.8406C26.4522 29.4911 26.0686 30.0796 25.5712 30.5637C25.0462 31.0887 24.5475 31.4131 23.8463 31.685C23.3213 31.8913 22.5262 32.135 21.0619 32.2025C19.4812 32.2738 19.0069 32.2906 15.0019 32.2906C10.9969 32.2906 10.5206 32.2738 8.94 32.2025C7.4775 32.135 6.68437 31.8913 6.15562 31.685C5.50469 31.4436 4.9155 31.0606 4.43062 30.5637C3.93239 30.0793 3.54812 29.49 3.30562 28.8387C3.10125 28.3119 2.85563 27.5169 2.79 26.0544C2.71875 24.4738 2.70375 23.9994 2.70375 19.9925C2.70375 15.9856 2.71875 15.515 2.79 13.9344C2.8575 12.4719 3.10125 11.6769 3.3075 11.1481C3.57938 10.4488 3.90562 9.94812 4.43062 9.42312C4.95563 8.89812 5.45437 8.57375 6.15562 8.30188C6.68437 8.09563 7.4775 7.85188 8.94 7.78437C10.3238 7.72062 10.86 7.70188 13.6556 7.7V7.70375ZM23.0081 10.1937C22.7717 10.1937 22.5377 10.2403 22.3193 10.3308C22.1009 10.4212 21.9025 10.5538 21.7353 10.721C21.5682 10.8881 21.4356 11.0865 21.3451 11.3049C21.2547 11.5233 21.2081 11.7574 21.2081 11.9938C21.2081 12.2301 21.2547 12.4642 21.3451 12.6826C21.4356 12.901 21.5682 13.0994 21.7353 13.2665C21.9025 13.4337 22.1009 13.5663 22.3193 13.6567C22.5377 13.7472 22.7717 13.7937 23.0081 13.7937C23.4855 13.7937 23.9434 13.6041 24.2809 13.2665C24.6185 12.929 24.8081 12.4711 24.8081 11.9938C24.8081 11.5164 24.6185 11.0585 24.2809 10.721C23.9434 10.3834 23.4855 10.1937 23.0081 10.1937ZM15.0019 12.2975C13.9801 12.2816 12.9654 12.469 12.0168 12.849C11.0682 13.229 10.2047 13.7939 9.47653 14.5108C8.74835 15.2277 8.17006 16.0823 7.77533 17.0249C7.3806 17.9674 7.17731 18.9791 7.17731 20.0009C7.17731 21.0228 7.3806 22.0345 7.77533 22.977C8.17006 23.9196 8.74835 24.7742 9.47653 25.4911C10.2047 26.208 11.0682 26.7729 12.0168 27.1529C12.9654 27.5328 13.9801 27.7203 15.0019 27.7044C17.0241 27.6728 18.9529 26.8473 20.3718 25.4061C21.7908 23.9649 22.5861 22.0234 22.5861 20.0009C22.5861 17.9784 21.7908 16.037 20.3718 14.5958C18.9529 13.1545 17.0241 12.3291 15.0019 12.2975ZM15.0019 14.9994C15.6586 14.9994 16.3088 15.1287 16.9155 15.38C17.5222 15.6313 18.0735 15.9997 18.5379 16.464C19.0022 16.9284 19.3705 17.4796 19.6219 18.0863C19.8732 18.693 20.0025 19.3433 20.0025 20C20.0025 20.6567 19.8732 21.307 19.6219 21.9137C19.3705 22.5204 19.0022 23.0716 18.5379 23.536C18.0735 24.0003 17.5222 24.3687 16.9155 24.62C16.3088 24.8713 15.6586 25.0006 15.0019 25.0006C13.6756 25.0006 12.4037 24.4738 11.4659 23.536C10.5281 22.5982 10.0013 21.3262 10.0013 20C10.0013 18.6738 10.5281 17.4018 11.4659 16.464C12.4037 15.5262 13.6756 14.9994 15.0019 14.9994Z" fill="white"/>
</g>
<path d="M70.1275 4.99707H70.35C72.405 5.00457 82.8175 5.07957 85.625 5.83457C86.4737 6.06499 87.2471 6.51413 87.8679 7.13709C88.4887 7.76006 88.9351 8.53503 89.1625 9.38457C89.415 10.3346 89.5925 11.5921 89.7125 12.8896L89.7375 13.1496L89.7925 13.7996L89.8125 14.0596C89.975 16.3446 89.995 18.4846 89.9975 18.9521V19.1396C89.995 19.6246 89.9725 21.9096 89.7925 24.2896L89.7725 24.5521L89.75 24.8121C89.625 26.2421 89.44 27.6621 89.1625 28.7071C88.9351 29.5566 88.4887 30.3316 87.8679 30.9546C87.2471 31.5775 86.4737 32.0267 85.625 32.2571C82.725 33.0371 71.7025 33.0921 70.175 33.0946H69.82C69.0475 33.0946 65.8525 33.0796 62.5025 32.9646L62.0775 32.9496L61.86 32.9396L61.4325 32.9221L61.005 32.9046C58.23 32.7821 55.5875 32.5846 54.37 32.2546C53.5216 32.0244 52.7484 31.5756 52.1276 30.9531C51.5069 30.3306 51.0603 29.5562 50.8325 28.7071C50.555 27.6646 50.37 26.2421 50.245 24.8121L50.225 24.5496L50.205 24.2896C50.0809 22.5956 50.0125 20.898 50 19.1996L50 18.8921C50.005 18.3546 50.025 16.4971 50.16 14.4471L50.1775 14.1896L50.185 14.0596L50.205 13.7996L50.26 13.1496L50.285 12.8896C50.405 11.5921 50.5825 10.3321 50.835 9.38457C51.0624 8.53503 51.5088 7.76006 52.1296 7.13709C52.7504 6.51413 53.5238 6.06499 54.3725 5.83457C55.59 5.50957 58.2325 5.30957 61.0075 5.18457L61.4325 5.16707L61.8625 5.15207L62.0775 5.14457L62.505 5.12707C64.8843 5.05058 67.2645 5.00807 69.645 4.99957L70.1275 4.99707ZM66 13.0221V25.0671L76.3925 19.0471L66 13.0221Z" fill="white"/>
<g clip-path="url(#clip1_0_171)">
<path d="M110 7.14875C110 5.96188 110.986 5 112.203 5H137.797C139.014 5 140 5.96188 140 7.14875V32.8512C140 34.0381 139.014 35 137.797 35H112.203C110.986 35 110 34.0381 110 32.8512V7.14875ZM119.268 30.1138V16.5669H114.766V30.1138H119.268ZM117.018 14.7163C118.587 14.7163 119.564 13.6775 119.564 12.3763C119.536 11.0469 118.589 10.0363 117.048 10.0363C115.507 10.0363 114.5 11.0487 114.5 12.3763C114.5 13.6775 115.477 14.7163 116.988 14.7163H117.018ZM126.221 30.1138V22.5481C126.221 22.1431 126.251 21.7381 126.371 21.4494C126.695 20.6412 127.436 19.8031 128.681 19.8031C130.31 19.8031 130.961 21.0444 130.961 22.8669V30.1138H135.462V22.3438C135.462 18.1812 133.243 16.2463 130.28 16.2463C127.891 16.2463 126.821 17.5588 126.221 18.4831V18.53H126.191L126.221 18.4831V16.5669H121.721C121.777 17.8381 121.721 30.1138 121.721 30.1138H126.221Z" fill="white"/>
</g>
<g clip-path="url(#clip2_0_171)">
<path d="M176.875 5H180.588C180.858 6.34062 181.6 8.03188 182.903 9.71C184.178 11.3544 185.869 12.5 188.125 12.5V16.25C184.838 16.25 182.369 14.7238 180.625 12.8206V25.625C180.625 27.4792 180.075 29.2918 179.045 30.8335C178.015 32.3752 176.551 33.5768 174.838 34.2864C173.125 34.9959 171.24 35.1816 169.421 34.8199C167.602 34.4581 165.932 33.5652 164.621 32.2541C163.31 30.943 162.417 29.2725 162.055 27.454C161.693 25.6354 161.879 23.7504 162.589 22.0373C163.298 20.3243 164.5 18.8601 166.042 17.83C167.583 16.7998 169.396 16.25 171.25 16.25V20C170.137 20 169.05 20.3299 168.125 20.948C167.2 21.5661 166.479 22.4446 166.053 23.4724C165.627 24.5002 165.516 25.6312 165.733 26.7224C165.95 27.8135 166.486 28.8158 167.273 29.6025C168.059 30.3891 169.061 30.9249 170.153 31.1419C171.244 31.359 172.375 31.2476 173.403 30.8218C174.43 30.3961 175.309 29.6751 175.927 28.7501C176.545 27.8251 176.875 26.7375 176.875 25.625V5Z" fill="white"/>
</g>
<defs>
<clipPath id="clip0_0_171">
<rect width="30" height="30" fill="white" transform="translate(0 5)"/>
</clipPath>
<clipPath id="clip1_0_171">
<rect width="30" height="30" fill="white" transform="translate(110 5)"/>
</clipPath>
<clipPath id="clip2_0_171">
<rect width="30" height="30" fill="white" transform="translate(160 5)"/>
</clipPath>
</defs>
</svg>
