<svg width="60" height="60" viewBox="0 0 60 60" fill="none" xmlns="http://www.w3.org/2000/svg">
<path d="M26.125 38.75C27.125 39.75 28.4167 40.2396 30 40.2188C31.5833 40.1979 32.75 39.625 33.5 38.5L47.5 17.5L26.5 31.5C25.375 32.25 24.7812 33.3958 24.7188 34.9375C24.6562 36.4792 25.125 37.75 26.125 38.75ZM30 10C32.4583 10 34.8229 10.3438 37.0938 11.0312C39.3646 11.7188 41.5 12.75 43.5 14.125L38.75 17.125C37.375 16.4167 35.9479 15.8854 34.4688 15.5312C32.9896 15.1771 31.5 15 30 15C24.4583 15 19.7396 16.9479 15.8438 20.8438C11.9479 24.7396 10 29.4583 10 35C10 36.75 10.2396 38.4792 10.7188 40.1875C11.1979 41.8958 11.875 43.5 12.75 45H47.25C48.2083 43.4167 48.9062 41.7708 49.3438 40.0625C49.7812 38.3542 50 36.5833 50 34.75C50 33.25 49.8229 31.7917 49.4688 30.375C49.1146 28.9583 48.5833 27.5833 47.875 26.25L50.875 21.5C52.125 23.4583 53.1146 25.5417 53.8438 27.75C54.5729 29.9583 54.9583 32.25 55 34.625C55.0417 37 54.7708 39.2708 54.1875 41.4375C53.6042 43.6042 52.75 45.6667 51.625 47.625C51.1667 48.375 50.5417 48.9583 49.75 49.375C48.9583 49.7917 48.125 50 47.25 50H12.75C11.875 50 11.0417 49.7917 10.25 49.375C9.45833 48.9583 8.83333 48.375 8.375 47.625C7.29167 45.75 6.45833 43.7604 5.875 41.6562C5.29167 39.5521 5 37.3333 5 35C5 31.5417 5.65625 28.3021 6.96875 25.2812C8.28125 22.2604 10.0729 19.6146 12.3438 17.3438C14.6146 15.0729 17.2708 13.2812 20.3125 11.9688C23.3542 10.6562 26.5833 10 30 10Z" fill="#009444"/>
</svg>
