<svg width="30" height="30" viewBox="0 0 30 30" fill="none" xmlns="http://www.w3.org/2000/svg">
<path d="M21.2373 21.2627V23.7373H18.75C18.0592 23.7373 17.4675 23.9837 16.9756 24.4756C16.4837 24.9675 16.2373 25.5592 16.2373 26.25V27.4873H13.7627V26.25C13.7627 25.5592 13.5163 24.9675 13.0244 24.4756C12.5325 23.9837 11.9408 23.7373 11.25 23.7373H8.7627V21.2627H21.2373ZM15 2.5127C17.4342 2.5127 19.4988 3.36013 21.1943 5.05566C22.8899 6.7512 23.7373 8.81576 23.7373 11.25C23.7373 13.6842 22.8899 15.7488 21.1943 17.4443C19.4988 19.1399 17.4342 19.9873 15 19.9873C12.5658 19.9873 10.5012 19.1399 8.80566 17.4443C7.11013 15.7488 6.2627 13.6842 6.2627 11.25C6.2627 8.81576 7.11013 6.7512 8.80566 5.05566C10.5012 3.36013 12.5658 2.5127 15 2.5127ZM15 4.9873C13.2675 4.9873 11.7904 5.59823 10.5693 6.81934C9.34823 8.04044 8.7373 9.51753 8.7373 11.25C8.7373 12.9825 9.34823 14.4596 10.5693 15.6807C11.7904 16.9018 13.2675 17.5127 15 17.5127C16.7325 17.5127 18.2096 16.9018 19.4307 15.6807C20.6518 14.4596 21.2627 12.9825 21.2627 11.25C21.2627 9.51753 20.6518 8.04044 19.4307 6.81934C18.2096 5.59823 16.7325 4.9873 15 4.9873ZM12.5 8.7627C12.851 8.7627 13.1447 8.88104 13.3818 9.11816C13.619 9.35529 13.7373 9.64898 13.7373 10C13.7373 10.351 13.619 10.6447 13.3818 10.8818C13.1447 11.119 12.851 11.2373 12.5 11.2373C12.149 11.2373 11.8553 11.119 11.6182 10.8818C11.381 10.6447 11.2627 10.351 11.2627 10C11.2627 9.64898 11.381 9.35529 11.6182 9.11816C11.8553 8.88104 12.149 8.7627 12.5 8.7627ZM17.5 8.7627C17.851 8.7627 18.1447 8.88104 18.3818 9.11816C18.619 9.35529 18.7373 9.64898 18.7373 10C18.7373 10.351 18.619 10.6447 18.3818 10.8818C18.1447 11.119 17.851 11.2373 17.5 11.2373C17.149 11.2373 16.8553 11.119 16.6182 10.8818C16.381 10.6447 16.2627 10.351 16.2627 10C16.2627 9.64898 16.381 9.35529 16.6182 9.11816C16.8553 8.88104 17.149 8.7627 17.5 8.7627ZM15 6.2627C15.351 6.2627 15.6447 6.38104 15.8818 6.61816C16.119 6.85529 16.2373 7.14898 16.2373 7.5C16.2373 7.85102 16.119 8.14471 15.8818 8.38184C15.6447 8.61896 15.351 8.7373 15 8.7373C14.649 8.7373 14.3553 8.61896 14.1182 8.38184C13.881 8.14471 13.7627 7.85102 13.7627 7.5C13.7627 7.14898 13.881 6.85529 14.1182 6.61816C14.3553 6.38104 14.649 6.2627 15 6.2627Z" fill="#7DDB8A" stroke="#7DDB8A" stroke-width="0.025"/>
</svg>
