<svg width="151" height="60" viewBox="0 0 151 60" fill="none" xmlns="http://www.w3.org/2000/svg">
<path d="M78.8153 18.8433V4.89434H73.9429V1.98586H87.2074V4.89434H82.335V18.8433H78.8153Z" fill="#009444"/>
<path d="M88.9446 18.8433V1.98424H92.3475V8.48075H92.4173C92.7433 7.70202 93.2315 7.10374 93.8803 6.68754C94.5291 6.27135 95.319 6.06326 96.2516 6.06326C97.1843 6.06326 97.9417 6.26322 98.5938 6.66478C99.2458 7.06634 99.7502 7.63211 100.104 8.36532C100.457 9.09691 100.634 9.96994 100.634 10.9828V18.8449H97.2183V11.6835C97.2183 10.8121 97.0123 10.1276 96.6004 9.63341C96.1884 9.13918 95.5931 8.89207 94.8178 8.89207C94.3198 8.89207 93.8868 9.01075 93.5186 9.24811C93.1488 9.48547 92.8617 9.81225 92.6557 10.2301C92.4497 10.6463 92.3475 11.1275 92.3475 11.6721V18.8449H88.9446V18.8433Z" fill="#009444"/>
<path d="M114.32 12.3354C114.32 11.0738 114.079 9.97157 113.592 9.02863C113.106 8.08732 112.418 7.35573 111.529 6.83874C110.639 6.32012 109.586 6.06163 108.365 6.06163C107.143 6.06163 106.087 6.32826 105.189 6.8615C104.292 7.39638 103.594 8.15072 103.096 9.12943C102.6 10.1065 102.35 11.2624 102.35 12.5923V12.6037C102.35 13.9368 102.6 15.0878 103.096 16.0616C103.594 17.0355 104.302 17.7849 105.218 18.3101C106.134 18.8352 107.229 19.1002 108.506 19.1002C109.399 19.1002 110.178 18.9848 110.843 18.749C111.508 18.5149 112.071 18.2044 112.533 17.8142C112.995 17.4257 113.362 16.9965 113.636 16.5282C113.909 16.0616 114.09 15.5983 114.183 15.1382L114.217 15.0098H111.094L111.07 15.0797C110.992 15.3138 110.845 15.5447 110.627 15.7706C110.412 15.9966 110.131 16.1836 109.787 16.3315C109.446 16.4795 109.043 16.5542 108.575 16.5542C107.985 16.5542 107.476 16.4242 107.049 16.1624C106.621 15.9023 106.293 15.5251 106.065 15.0358C105.851 14.5757 105.735 14.0311 105.724 13.4003H114.324V12.337L114.32 12.3354ZM105.758 11.238C105.81 10.8186 105.911 10.4463 106.061 10.1228C106.29 9.62854 106.61 9.25136 107.017 8.99449C107.425 8.73762 107.893 8.60919 108.423 8.60919C108.953 8.60919 109.414 8.73437 109.815 8.98148C110.215 9.23185 110.528 9.60415 110.752 10.0984C110.903 10.4268 111.004 10.804 111.052 11.2364H105.76L105.758 11.238Z" fill="#009444"/>
<path d="M79.3408 38.2841L73.7223 21.425H77.615L81.4608 34.6733H81.5305L85.3649 21.425H89.269L83.6391 38.2841H79.3376H79.3408Z" fill="#009444"/>
<path d="M92.2907 24.1595C91.7782 24.1595 91.3451 23.9823 90.9915 23.6279C90.6379 23.2735 90.4611 22.8557 90.4611 22.3712C90.4611 21.8867 90.6379 21.4624 90.9915 21.1145C91.3451 20.7682 91.7782 20.5942 92.2907 20.5942C92.8033 20.5942 93.2347 20.7682 93.5851 21.1145C93.9354 21.4608 94.109 21.8802 94.109 22.3712C94.109 22.8622 93.9338 23.2735 93.5851 23.6279C93.2347 23.9823 92.8049 24.1595 92.2907 24.1595ZM90.5763 38.2841V25.7593H93.9922V38.2841H90.5763Z" fill="#009444"/>
<path d="M96.2646 38.2841V25.7593H99.6675V27.9443H99.7373C99.9238 27.1737 100.261 26.5738 100.751 26.1446C101.241 25.717 101.851 25.5024 102.581 25.5024C102.767 25.5024 102.946 25.5138 103.117 25.5382C103.288 25.5609 103.435 25.5934 103.56 25.6308V28.645C103.421 28.5832 103.241 28.5344 103.023 28.4987C102.806 28.4629 102.572 28.4466 102.324 28.4466C101.765 28.4466 101.286 28.5556 100.89 28.7734C100.495 28.9913 100.191 29.3115 99.9805 29.731C99.7713 30.1521 99.6659 30.6658 99.6659 31.2738V38.2841H96.263H96.2646Z" fill="#009444"/>
<path d="M110.381 38.5409C108.997 38.5409 107.972 38.2483 107.304 37.6647C106.636 37.081 106.301 36.1186 106.301 34.779V28.3296H104.564V25.7593H106.301V22.698H109.74V25.7593H112.024V28.3296H109.74V34.405C109.74 34.9887 109.87 35.3967 110.131 35.626C110.39 35.8552 110.778 35.9706 111.291 35.9706C111.446 35.9706 111.583 35.9641 111.699 35.9527C111.816 35.9414 111.925 35.9284 112.025 35.9121V38.4125C111.839 38.4434 111.607 38.4727 111.331 38.5003C111.055 38.5279 110.739 38.5409 110.381 38.5409Z" fill="#009444"/>
<path d="M118.144 38.5409C117.234 38.5409 116.457 38.3524 115.813 37.9736C115.167 37.5964 114.677 37.0566 114.345 36.3559C114.011 35.6552 113.844 34.818 113.844 33.8441V25.7593H117.247V33.1304C117.247 33.9482 117.44 34.5839 117.824 35.0342C118.208 35.4862 118.781 35.7121 119.543 35.7121C119.924 35.7121 120.268 35.6455 120.575 35.5138C120.881 35.3821 121.144 35.1919 121.362 34.9464C121.579 34.7009 121.746 34.4083 121.863 34.0701C121.98 33.732 122.038 33.3597 122.038 32.9549V25.7576H125.441V38.2825H122.038V36.2145H121.957C121.748 36.6892 121.465 37.1022 121.112 37.4533C120.758 37.8045 120.335 38.0727 119.842 38.2597C119.349 38.4466 118.783 38.5393 118.147 38.5393L118.144 38.5409Z" fill="#009444"/>
<path d="M137.87 27.4891C137.432 26.8583 136.816 26.3689 136.023 26.0226C135.229 25.6764 134.294 25.5024 133.213 25.5024C132.133 25.5024 131.173 25.6731 130.377 26.0113C129.578 26.3494 128.957 26.8193 128.511 27.4175C128.065 28.0174 127.807 28.7035 127.736 29.4741L127.726 29.6139H130.848L130.873 29.5099C130.957 29.1034 131.187 28.7702 131.561 28.51C131.935 28.2499 132.438 28.1182 133.075 28.1182C133.744 28.1182 134.255 28.2776 134.603 28.5978C134.954 28.9181 135.127 29.3538 135.127 29.9082V30.6739L132.037 30.8658C131.004 30.9357 130.125 31.1259 129.398 31.438C128.672 31.7485 128.117 32.1761 127.738 32.7175C127.358 33.2589 127.167 33.9108 127.167 34.6749V34.6977C127.167 35.4293 127.343 36.0828 127.699 36.6551C128.052 37.2273 128.545 37.6777 129.178 37.9996C129.812 38.3215 130.544 38.484 131.374 38.484C131.917 38.484 132.425 38.4028 132.895 38.2402C133.366 38.0776 133.783 37.8386 134.149 37.5265C134.514 37.216 134.817 36.8485 135.058 36.4275H135.129V38.2857H138.532V29.6968C138.532 28.8563 138.311 28.1199 137.872 27.4907L137.87 27.4891ZM135.126 33.7157C135.126 34.1449 135.011 34.5318 134.782 34.8781C134.551 35.2244 134.238 35.4975 133.838 35.6959C133.436 35.8958 132.985 35.995 132.479 35.995C131.888 35.995 131.418 35.865 131.067 35.6032C130.717 35.3431 130.544 34.9822 130.544 34.5221V34.4993C130.544 34.0555 130.716 33.7011 131.058 33.4361C131.398 33.1727 131.896 33.0199 132.548 32.9809L135.126 32.8069V33.7157Z" fill="#009444"/>
<path d="M140.801 38.2841V21.425H144.204V38.2841H140.801Z" fill="#009444"/>
<path d="M82.3707 58.0159C81.112 58.0159 79.9831 57.8175 78.984 57.4208C77.9849 57.0241 77.1349 56.447 76.431 55.691C75.7271 54.9351 75.1902 54.0149 74.8171 52.9272C74.4441 51.8412 74.2576 50.6122 74.2576 49.2417V49.2303C74.2576 47.4241 74.5836 45.8747 75.2372 44.5855C75.8893 43.2963 76.8187 42.3062 78.0222 41.612C79.2273 40.9194 80.6482 40.5715 82.288 40.5715C83.6407 40.5715 84.8329 40.8137 85.8661 41.2966C86.8993 41.7794 87.7411 42.4363 88.3899 43.2654C89.0387 44.0945 89.4571 45.0391 89.6437 46.0991L89.6793 46.2747H86.1353L86.0996 46.1462C85.8207 45.3366 85.3535 44.7042 84.7015 44.2473C84.0494 43.7921 83.2482 43.5645 82.301 43.5645C81.3537 43.5645 80.5817 43.7873 79.9166 44.2311C79.2516 44.6749 78.744 45.3171 78.3904 46.1592C78.0368 46.9997 77.86 48.0175 77.86 49.2092V49.2205C77.86 50.1244 77.9654 50.9357 78.1746 51.6559C78.3839 52.3761 78.6888 52.9858 79.0894 53.4849C79.4901 53.984 79.9718 54.3644 80.5346 54.6294C81.0974 54.8944 81.73 55.0261 82.4291 55.0261C83.1898 55.0261 83.8629 54.8847 84.4452 54.6001C85.0275 54.3156 85.4898 53.9157 85.832 53.3971C86.1743 52.8785 86.3559 52.2737 86.3802 51.5811L86.3916 51.347H82.5572V48.7068H89.8302V50.6463C89.8302 51.7908 89.6615 52.82 89.3225 53.7304C88.9851 54.6424 88.4953 55.4163 87.8546 56.0552C87.2139 56.6941 86.4305 57.1802 85.506 57.5151C84.5815 57.85 83.5369 58.0175 82.3707 58.0175V58.0159Z" fill="#009444"/>
<path d="M91.8593 57.7248V45.2H95.2622V47.385H95.332C95.5185 46.6144 95.8559 46.0145 96.3457 45.5853C96.8355 45.1578 97.4454 44.9432 98.1753 44.9432C98.3618 44.9432 98.5402 44.9545 98.7122 44.9789C98.8825 45.0017 99.0301 45.0342 99.155 45.0716V48.0857C99.0155 48.024 98.8354 47.9752 98.6181 47.9394C98.4007 47.9037 98.1672 47.8874 97.919 47.8874C97.3594 47.8874 96.8809 47.9963 96.4852 48.2142C96.0894 48.432 95.7861 48.7523 95.5753 49.1717C95.3644 49.5912 95.2606 50.1066 95.2606 50.7146V57.7248H91.8577H91.8593Z" fill="#009444"/>
<path d="M111.639 51.217C111.639 49.9554 111.398 48.8531 110.911 47.9102C110.426 46.9689 109.737 46.2373 108.848 45.7203C107.957 45.2017 106.905 44.9432 105.683 44.9432C104.462 44.9432 103.406 45.2098 102.508 45.743C101.611 46.2779 100.913 47.0323 100.417 48.011C99.9189 48.988 99.6708 50.1423 99.6708 51.4738V51.4852C99.6708 52.8183 99.9189 53.9693 100.417 54.9432C100.913 55.917 101.62 56.6665 102.537 57.1916C103.455 57.7167 104.55 57.9817 105.825 57.9817C106.718 57.9817 107.497 57.8663 108.162 57.6306C108.827 57.3964 109.39 57.0859 109.854 56.6957C110.316 56.3072 110.682 55.878 110.955 55.4098C111.227 54.9432 111.409 54.4798 111.501 54.0197L111.537 53.8913H108.413L108.389 53.9612C108.311 54.1953 108.163 54.4262 107.948 54.6522C107.73 54.8781 107.45 55.0651 107.108 55.2131C106.765 55.361 106.361 55.4358 105.894 55.4358C105.304 55.4358 104.795 55.3057 104.368 55.044C103.94 54.7839 103.614 54.4067 103.383 53.9157C103.169 53.4572 103.056 52.911 103.044 52.2818H111.643V51.2186L111.639 51.217ZM103.079 50.1196C103.129 49.7001 103.229 49.3278 103.38 49.0043C103.611 48.5101 103.928 48.1329 104.336 47.876C104.744 47.6192 105.211 47.4907 105.742 47.4907C106.272 47.4907 106.733 47.6159 107.135 47.863C107.536 48.1134 107.847 48.4841 108.073 48.9783C108.222 49.3067 108.322 49.6855 108.371 50.1179H103.08L103.079 50.1196Z" fill="#009444"/>
<path d="M124.891 51.217C124.891 49.9554 124.649 48.8531 124.164 47.9102C123.678 46.9689 122.99 46.2373 122.101 45.7203C121.211 45.2017 120.155 44.9432 118.935 44.9432C117.715 44.9432 116.658 45.2098 115.761 45.743C114.862 46.2779 114.165 47.0323 113.668 48.011C113.171 48.988 112.922 50.1423 112.922 51.4738V51.4852C112.922 52.8183 113.171 53.9693 113.668 54.9432C114.165 55.917 114.874 56.6665 115.788 57.1916C116.706 57.7167 117.801 57.9817 119.076 57.9817C119.97 57.9817 120.75 57.8663 121.413 57.6306C122.078 57.3964 122.643 57.0859 123.105 56.6957C123.567 56.3072 123.934 55.878 124.206 55.4098C124.479 54.9432 124.662 54.4798 124.755 54.0197L124.789 53.8913H121.665L121.642 53.9612C121.564 54.1953 121.415 54.4262 121.199 54.6522C120.982 54.8781 120.701 55.0651 120.359 55.2131C120.017 55.361 119.613 55.4358 119.147 55.4358C118.555 55.4358 118.046 55.3057 117.621 55.044C117.193 54.7839 116.865 54.4067 116.637 53.9157C116.421 53.4572 116.307 52.911 116.296 52.2818H124.894V51.2186L124.891 51.217ZM116.332 50.1196C116.382 49.7001 116.484 49.3278 116.635 49.0043C116.864 48.5101 117.182 48.1329 117.59 47.876C117.998 47.6192 118.466 47.4907 118.993 47.4907C119.521 47.4907 119.984 47.6159 120.387 47.863C120.786 48.1134 121.1 48.4841 121.324 48.9783C121.473 49.3067 121.574 49.6855 121.623 50.1179H116.332V50.1196Z" fill="#009444"/>
<path d="M126.639 57.7248V45.2H130.042V47.2566H130.112C130.438 46.5397 130.92 45.9755 131.557 45.5626C132.195 45.1496 132.983 44.9432 133.924 44.9432C135.299 44.9432 136.362 45.3577 137.111 46.1869C137.86 47.016 138.235 48.167 138.235 49.64V57.7248H134.832V50.3537C134.832 49.5359 134.639 48.9019 134.255 48.4499C133.87 47.998 133.296 47.772 132.535 47.772C132.029 47.772 131.591 47.889 131.218 48.1231C130.845 48.3572 130.555 48.6808 130.351 49.0921C130.145 49.505 130.042 49.9846 130.042 50.5293V57.7265H126.639V57.7248Z" fill="#009444"/>
<path d="M145.534 57.9817C144.384 57.9817 143.403 57.8143 142.59 57.4794C141.777 57.1445 141.146 56.6795 140.696 56.0828C140.245 55.4878 139.972 54.7952 139.88 54.0084L139.868 53.9027H143.19L143.213 54.0084C143.322 54.4993 143.566 54.8814 143.948 55.1529C144.329 55.426 144.858 55.5626 145.532 55.5626C145.967 55.5626 146.337 55.5106 146.64 55.4049C146.943 55.2992 147.179 55.1496 147.346 54.9546C147.513 54.7595 147.597 54.527 147.597 54.2539V54.2425C147.597 53.9076 147.477 53.6393 147.235 53.4361C146.994 53.2329 146.567 53.0671 145.954 52.9337L143.832 52.4785C143.025 52.3078 142.348 52.0607 141.805 51.7372C141.262 51.4137 140.853 51.0121 140.58 50.5341C140.308 50.0545 140.172 49.505 140.172 48.8807V48.8694C140.172 48.0679 140.387 47.3737 140.819 46.79C141.25 46.2064 141.86 45.7528 142.648 45.4293C143.437 45.1057 144.36 44.9448 145.417 44.9448C146.475 44.9448 147.459 45.122 148.231 45.4764C149.005 45.8308 149.599 46.3072 150.014 46.9071C150.429 47.507 150.65 48.1735 150.672 48.9051V49.0222H147.537L147.526 48.9295C147.471 48.4857 147.263 48.1134 146.903 47.8142C146.541 47.5151 146.046 47.3639 145.417 47.3639C145.028 47.3639 144.69 47.4192 144.403 47.5281C144.116 47.637 143.894 47.7899 143.738 47.9833C143.583 48.1784 143.505 48.4125 143.505 48.684V48.6954C143.505 48.9051 143.557 49.0953 143.662 49.2628C143.768 49.4302 143.944 49.5766 144.193 49.7001C144.441 49.8253 144.775 49.9342 145.195 50.0269L147.316 50.4821C148.63 50.7552 149.573 51.1633 150.144 51.7096C150.715 52.2542 151 52.9874 151 53.9059V53.9173C151 54.7351 150.766 55.4472 150.301 56.0552C149.835 56.6632 149.191 57.1363 148.372 57.4745C147.552 57.8126 146.606 57.9833 145.534 57.9833V57.9817Z" fill="#009444"/>
<path d="M0 41.1974C1.20513 39.8204 3.01526 38.845 4.69888 38.1573C16.4258 33.3694 29.8964 39.1864 41.7822 40.1293C53.115 41.0283 63.2103 39.4351 68.1654 28.1881C68.2222 28.0581 68.2206 27.8727 68.4071 27.8435C68.3519 31.4039 67.5053 34.8619 65.7584 37.9589C61.6953 45.1626 52.9318 49.24 44.7716 48.4629C39.007 47.915 33.7178 45.335 28.3376 43.441C19.4167 40.3016 9.22421 37.8939 0.00162233 41.1974H0Z" fill="#009444"/>
<path d="M67.7664 17.4793L64.2937 16.2015C64.0813 15.8828 64.357 12.02 64.2499 11.2234C64.2305 11.0755 64.2289 10.9454 64.091 10.8495C59.7895 8.54091 55.3874 6.28273 50.7145 4.79517C45.6134 3.17266 42.6143 3.05561 37.4597 4.60496C32.5597 6.07789 27.8397 8.49051 23.3679 10.9259V24.0539C23.7555 28.2743 24.5471 32.4769 26.0409 36.4421L22.1433 35.8568C21.5091 34.1287 21.0209 32.3224 20.6495 30.5146C19.2124 23.5287 19.9196 16.2958 19.7363 9.19121L19.9147 8.83517C25.4051 5.71535 31.3091 2.61829 37.4353 0.94701C43.7838 -0.784418 47.9133 -0.00893255 53.9487 2.19722C58.7336 3.94653 63.4471 6.30712 67.7664 8.98311V17.4777V17.4793Z" fill="#009444"/>
<path d="M38.4183 8.50514L36.1215 10.3179C35.0932 11.3909 33.275 13.3076 34.8953 14.6505C36.4119 15.9072 39.179 14.5155 40.9583 14.1985C43.7205 13.7075 46.3562 13.9026 48.0058 16.4843C50.5328 20.443 47.3862 23.0654 46.0546 26.5656C44.984 29.3766 44.9792 32.5956 46.3173 35.3236C43.6654 33.0264 44.2542 29.1392 43.3588 26.0535C42.8187 24.192 41.5584 22.046 40.0727 20.7958C37.8181 18.897 34.7347 18.8027 32.3034 17.1411C30.4738 15.8909 30.1299 14.6245 31.4405 12.789C32.9814 10.6316 35.9074 9.16357 38.4199 8.50677L38.4183 8.50514Z" fill="#009444"/>
<path d="M63.3903 43.015C61.2785 47.8972 56.638 51.4462 51.4412 52.4737C41.3297 54.4733 29.2151 46.925 19.7184 43.8393C15.4737 42.459 10.0579 41.2576 5.59908 41.0917C5.46933 41.0869 5.2017 41.1714 5.22765 40.9861C10.8721 40.3293 16.5604 41.1421 22.0054 42.6183C33.9497 45.8585 44.053 53.3629 56.8115 47.4875C59.3856 46.3023 60.8957 44.9854 63.0156 43.228C63.1356 43.1288 63.1875 42.9695 63.3887 43.015H63.3903Z" fill="#009444"/>
<path d="M55.1733 52.524C53.2643 54.3481 51.1849 56.0438 48.932 57.4403C48.142 57.9297 44.3953 60.0448 43.7075 59.9993C43.4529 59.9814 42.2348 59.3945 41.9023 59.24C37.2375 57.0697 32.7462 53.2963 29.4568 49.3685C29.3692 49.2644 28.8469 48.6466 28.9216 48.5702C30.3781 49.1945 31.8346 49.8269 33.2993 50.4366C34.1735 50.8008 35.4906 51.134 36.2529 51.5405C36.7801 51.8217 37.5116 52.5549 38.0647 52.9321C39.8586 54.1579 41.7076 55.3122 43.727 56.1381C43.9395 56.169 45.3247 55.478 45.6393 55.3203C46.1519 55.0619 47.477 54.1335 47.8858 54.0425C48.4632 53.9157 49.3861 53.9921 49.996 53.9124C51.7818 53.6767 53.5011 53.1678 55.1733 52.5257V52.524Z" fill="#009444"/>
<path d="M46.8493 38.6352C46.8785 38.8108 46.705 38.7328 46.5849 38.7409C42.7408 38.9571 40.0597 35.5951 38.9032 32.3273C37.4872 28.3247 36.9017 23.9466 34.2563 20.4723C36.0923 20.5357 38.1377 21.2998 39.4871 22.5533C42.131 25.0098 41.6428 28.3621 42.4197 31.5843C43.0604 34.2408 44.3498 37.2777 46.8493 38.6369V38.6352Z" fill="#009444"/>
<path d="M45.3295 5.00652C51.7542 4.13511 52.0186 13.2816 46.3643 13.5271C40.9826 13.7612 40.4441 5.6682 45.3295 5.00652Z" fill="#009444"/>
<path d="M65.9482 19.1945C65.3529 20.9568 65.1826 23.4263 67.7664 23.0345C67.6626 24.2928 67.7421 25.7674 67.5053 26.9932C67.1663 28.7474 65.6302 31.3551 64.4608 32.7061C64.2937 32.8996 62.2111 35.0196 62.1105 34.8944C63.7358 29.6416 64.4851 24.1693 64.2451 18.6547L65.9482 19.1945Z" fill="#009444"/>
<path d="M42.0466 38.5296C42.1975 38.684 42.0385 38.723 41.8893 38.7425C41.453 38.7978 40.9664 38.6824 40.5106 38.8385C39.3931 38.723 38.4134 38.684 37.3526 38.2597C32.7592 36.421 33.4128 29.3424 35.9107 26.0291C36.3308 28.8092 36.8352 31.6136 38.0063 34.1872C38.8254 35.9885 40.0905 37.8809 42.0466 38.5312V38.5296Z" fill="#009444"/>
<path d="M66.8029 18.7653L49.412 12.9386C49.7218 12.6963 49.9522 12.1615 50.3966 12.2606L66.3293 17.5817C68.1216 18.2548 69.3073 19.6058 68.3795 21.5616C68.0502 22.2574 67.5961 22.5907 66.8013 22.3436C65.6189 21.9761 66.5694 19.5505 66.8029 18.7636V18.7653Z" fill="#009444"/>
<path d="M41.0718 9.16032L41.1935 10.4268L37.9933 9.46596C37.8376 9.31802 38.853 8.58155 39.0297 8.52303L41.0734 9.16032H41.0718Z" fill="#009444"/>
</svg>
