<svg width="129" height="51" viewBox="0 0 129 51" fill="none" xmlns="http://www.w3.org/2000/svg">
<path d="M67.3323 16.0163V4.1597H63.1698V1.6875H74.5017V4.1597H70.3392V16.0163H67.3323Z" fill="white"/>
<path d="M75.9858 16.0167V1.68652H78.8929V7.20856H78.9525C79.231 6.54663 79.6481 6.0381 80.2024 5.68433C80.7567 5.33057 81.4315 5.15369 82.2282 5.15369C83.025 5.15369 83.6721 5.32366 84.2291 5.66498C84.7862 6.00631 85.2171 6.48721 85.5192 7.11044C85.8213 7.7323 85.9723 8.47437 85.9723 9.33529V16.0181H83.0541V9.93088C83.0541 9.19019 82.8781 8.60841 82.5262 8.18832C82.1742 7.76822 81.6656 7.55818 81.0033 7.55818C80.5779 7.55818 80.2079 7.65905 79.8934 7.86081C79.5775 8.06257 79.3322 8.34033 79.1562 8.69547C78.9802 9.04924 78.8929 9.45828 78.8929 9.92121V16.0181H75.9858V16.0167Z" fill="white"/>
<path d="M97.6645 10.4851C97.6645 9.41271 97.4581 8.47579 97.0424 7.67429C96.6267 6.87418 96.0392 6.25233 95.2798 5.81289C94.5191 5.37206 93.6198 5.15234 92.5764 5.15234C91.533 5.15234 90.6309 5.37898 89.8632 5.83224C89.097 6.28688 88.5011 6.92807 88.0757 7.75997C87.6517 8.59049 87.4383 9.57301 87.4383 10.7034V10.7131C87.4383 11.8462 87.6517 12.8246 88.0757 13.6524C88.5011 14.4801 89.1053 15.1172 89.8882 15.5635C90.6711 16.0099 91.6064 16.2351 92.6969 16.2351C93.4604 16.2351 94.1256 16.137 94.6937 15.9366C95.2618 15.7376 95.7426 15.4737 96.1375 15.142C96.5325 14.8118 96.8456 14.4469 97.0798 14.049C97.3126 13.6524 97.4678 13.2585 97.5468 12.8674L97.5759 12.7583H94.9085L94.8877 12.8177C94.8212 13.0167 94.6951 13.2129 94.5094 13.405C94.3251 13.5971 94.0854 13.756 93.7916 13.8818C93.5006 14.0075 93.1556 14.0711 92.7565 14.0711C92.2521 14.0711 91.817 13.9605 91.4526 13.738C91.0868 13.5169 90.8069 13.1963 90.6115 12.7804C90.4286 12.3893 90.3302 11.9264 90.3205 11.3902H97.6673V10.4864L97.6645 10.4851ZM90.3496 9.55228C90.394 9.19576 90.4799 8.87931 90.6087 8.60431C90.8041 8.18421 91.0771 7.86362 91.4249 7.64528C91.7741 7.42694 92.1731 7.31777 92.6263 7.31777C93.0794 7.31777 93.4729 7.42417 93.8152 7.63422C94.1574 7.84703 94.4249 8.16348 94.6161 8.58358C94.745 8.86272 94.8309 9.18332 94.8724 9.5509H90.351L90.3496 9.55228Z" fill="white"/>
<path d="M67.7813 32.5411L62.9813 18.2109H66.3069L69.5923 29.472H69.6519L72.9276 18.2109H76.2629L71.4533 32.5411H67.7785H67.7813Z" fill="white"/>
<path d="M78.8444 20.5354C78.4066 20.5354 78.0366 20.3847 77.7345 20.0835C77.4324 19.7822 77.2814 19.4271 77.2814 19.0153C77.2814 18.6035 77.4324 18.2428 77.7345 17.9471C78.0366 17.6527 78.4066 17.5049 78.8444 17.5049C79.2823 17.5049 79.6509 17.6527 79.9502 17.9471C80.2495 18.2414 80.3978 18.598 80.3978 19.0153C80.3978 19.4326 80.2481 19.7822 79.9502 20.0835C79.6509 20.3847 79.2837 20.5354 78.8444 20.5354ZM77.3798 32.5412V21.8951H80.298V32.5412H77.3798Z" fill="white"/>
<path d="M82.2393 32.5412V21.8951H85.1465V23.7524H85.206C85.3654 23.0973 85.6536 22.5874 86.0721 22.2226C86.4906 21.8592 87.0116 21.6768 87.6351 21.6768C87.7945 21.6768 87.9469 21.6864 88.0938 21.7072C88.2393 21.7265 88.3654 21.7541 88.4721 21.7859V24.3479C88.3529 24.2954 88.1991 24.254 88.0134 24.2236C87.8277 24.1932 87.6282 24.1794 87.4162 24.1794C86.9381 24.1794 86.5294 24.2719 86.1912 24.4571C85.8531 24.6423 85.594 24.9145 85.4139 25.2711C85.2351 25.629 85.1451 26.0656 85.1451 26.5825V32.5412H82.2379H82.2393Z" fill="white"/>
<path d="M94.2988 32.7595C93.1168 32.7595 92.2411 32.5108 91.6702 32.0147C91.0993 31.5186 90.8138 30.7005 90.8138 29.5618V24.0798H89.3298V21.8951H90.8138V19.293H93.7514V21.8951H95.7025V24.0798H93.7514V29.244C93.7514 29.7401 93.8623 30.0869 94.0854 30.2818C94.3071 30.4766 94.6383 30.5747 95.0761 30.5747C95.2092 30.5747 95.3256 30.5692 95.4253 30.5595C95.5251 30.5499 95.6179 30.5388 95.7038 30.525V32.6503C95.5445 32.6766 95.3463 32.7015 95.1108 32.725C94.8752 32.7484 94.605 32.7595 94.2988 32.7595Z" fill="white"/>
<path d="M100.931 32.7594C100.153 32.7594 99.4895 32.5991 98.9394 32.2771C98.3879 31.9565 97.9694 31.4977 97.6853 30.9021C97.3999 30.3065 97.2572 29.5948 97.2572 28.7671V21.8949H100.164V28.1604C100.164 28.8555 100.329 29.3958 100.658 29.7786C100.986 30.1628 101.475 30.3549 102.126 30.3549C102.452 30.3549 102.746 30.2982 103.008 30.1863C103.27 30.0743 103.494 29.9127 103.68 29.704C103.865 29.4953 104.008 29.2466 104.108 28.9592C104.208 28.6717 104.258 28.3553 104.258 28.0112V21.8936H107.165V32.5396H104.258V30.7819H104.188C104.01 31.1854 103.768 31.5364 103.466 31.8349C103.164 32.1334 102.803 32.3614 102.381 32.5203C101.96 32.6792 101.477 32.758 100.933 32.758L100.931 32.7594Z" fill="white"/>
<path d="M117.783 23.3654C117.409 22.8293 116.882 22.4133 116.205 22.119C115.527 21.8246 114.728 21.6768 113.805 21.6768C112.882 21.6768 112.062 21.8219 111.381 22.1093C110.7 22.3967 110.169 22.7961 109.788 23.3046C109.407 23.8145 109.186 24.3977 109.125 25.0527L109.117 25.1716H111.785L111.805 25.0831C111.877 24.7376 112.074 24.4544 112.393 24.2333C112.713 24.0122 113.142 23.9002 113.687 23.9002C114.258 23.9002 114.694 24.0356 114.992 24.3079C115.292 24.5801 115.44 24.9505 115.44 25.4217V26.0726L112.8 26.2356C111.918 26.295 111.166 26.4567 110.546 26.722C109.925 26.986 109.451 27.3494 109.127 27.8096C108.803 28.2698 108.639 28.8239 108.639 29.4734V29.4927C108.639 30.1146 108.79 30.6701 109.094 31.1565C109.396 31.643 109.817 32.0257 110.357 32.2994C110.899 32.573 111.524 32.7112 112.233 32.7112C112.698 32.7112 113.131 32.6421 113.533 32.5039C113.935 32.3657 114.291 32.1625 114.604 31.8972C114.916 31.6333 115.175 31.321 115.38 30.9631H115.441V32.5426H118.348V25.242C118.348 24.5276 118.16 23.9016 117.784 23.3668L117.783 23.3654ZM115.439 28.6581C115.439 29.0229 115.34 29.3518 115.145 29.6461C114.948 29.9405 114.681 30.1726 114.338 30.3412C113.995 30.5112 113.609 30.5955 113.177 30.5955C112.673 30.5955 112.271 30.4849 111.972 30.2624C111.672 30.0413 111.524 29.7346 111.524 29.3435V29.3241C111.524 28.9469 111.671 28.6456 111.963 28.4204C112.254 28.1965 112.68 28.0666 113.237 28.0335L115.439 27.8856V28.6581Z" fill="white"/>
<path d="M120.287 32.5411V18.2109H123.194V32.5411H120.287Z" fill="white"/>
<path d="M70.3697 49.313C69.2944 49.313 68.33 49.1444 67.4764 48.8073C66.6229 48.4701 65.8968 47.9795 65.2954 47.3369C64.694 46.6944 64.2353 45.9122 63.9166 44.9877C63.5979 44.0646 63.4386 43.0199 63.4386 41.855V41.8453C63.4386 40.31 63.7171 38.9931 64.2755 37.8972C64.8326 36.8014 65.6266 35.9598 66.6547 35.3698C67.6843 34.7811 68.8981 34.4854 70.299 34.4854C71.4547 34.4854 72.4731 34.6912 73.3558 35.1017C74.2385 35.5121 74.9576 36.0704 75.5119 36.7751C76.0662 37.4799 76.4237 38.2828 76.583 39.1838L76.6135 39.333H73.5858L73.5553 39.2239C73.317 38.5357 72.9179 37.9981 72.3609 37.6098C71.8039 37.2229 71.1193 37.0294 70.3101 37.0294C69.5009 37.0294 68.8413 37.2187 68.2732 37.596C67.7051 37.9732 67.2713 38.5191 66.9693 39.2349C66.6672 39.9493 66.5162 40.8144 66.5162 41.8273V41.837C66.5162 42.6053 66.6062 43.2949 66.785 43.9071C66.9637 44.5193 67.2242 45.0375 67.5665 45.4617C67.9088 45.886 68.3203 46.2093 68.8011 46.4346C69.2819 46.6598 69.8224 46.7717 70.4196 46.7717C71.0695 46.7717 71.6445 46.6515 72.142 46.4097C72.6394 46.1679 73.0343 45.8279 73.3267 45.3871C73.6191 44.9463 73.7743 44.4322 73.7951 43.8435L73.8048 43.6445H70.5291V41.4003H76.7424V43.0489C76.7424 44.0218 76.5983 44.8965 76.3087 45.6704C76.0204 46.4456 75.602 47.1034 75.0546 47.6465C74.5073 48.1896 73.838 48.6027 73.0482 48.8874C72.2584 49.1721 71.366 49.3144 70.3697 49.3144V49.313Z" fill="white"/>
<path d="M78.4758 49.0656V38.4195H81.383V40.2768H81.4426C81.6019 39.6218 81.8901 39.1118 82.3086 38.747C82.7271 38.3836 83.2481 38.2012 83.8716 38.2012C84.031 38.2012 84.1834 38.2108 84.3303 38.2316C84.4758 38.2509 84.6019 38.2786 84.7086 38.3103V40.8724C84.5894 40.8199 84.4356 40.7784 84.2499 40.748C84.0642 40.7176 83.8647 40.7038 83.6527 40.7038C83.1746 40.7038 82.7659 40.7964 82.4278 40.9815C82.0897 41.1667 81.8305 41.4389 81.6504 41.7955C81.4703 42.152 81.3816 42.5901 81.3816 43.1069V49.0656H78.4745H78.4758Z" fill="white"/>
<path d="M95.3741 43.5339C95.3741 42.4615 95.1676 41.5246 94.7519 40.7231C94.3376 39.923 93.7487 39.3012 92.9893 38.8617C92.2286 38.4209 91.3293 38.2012 90.2859 38.2012C89.2425 38.2012 88.3404 38.4278 87.5728 38.8811C86.8065 39.3357 86.2106 39.9769 85.7866 40.8088C85.3612 41.6393 85.1492 42.6205 85.1492 43.7522V43.7619C85.1492 44.8951 85.3612 45.8734 85.7866 46.7012C86.2106 47.5289 86.8148 48.166 87.5977 48.6123C88.382 49.0587 89.3173 49.2839 90.4064 49.2839C91.17 49.2839 91.8351 49.1858 92.4032 48.9855C92.9713 48.7865 93.4521 48.5225 93.8484 48.1909C94.2434 47.8606 94.5565 47.4958 94.7893 47.0978C95.0221 46.7012 95.1773 46.3073 95.2563 45.9163L95.2868 45.8071H92.618L92.5972 45.8665C92.5307 46.0655 92.4046 46.2617 92.2203 46.4538C92.0346 46.6459 91.7949 46.8048 91.5025 46.9306C91.2101 47.0563 90.8651 47.1199 90.466 47.1199C89.9616 47.1199 89.5265 47.0093 89.1621 46.7869C88.7963 46.5658 88.5178 46.2452 88.321 45.8278C88.1381 45.4381 88.0411 44.9738 88.0314 44.439H95.3768V43.5353L95.3741 43.5339ZM88.0605 42.6011C88.1035 42.2446 88.1894 41.9281 88.3182 41.6531C88.515 41.233 88.7866 40.9124 89.1344 40.6941C89.4836 40.4758 89.8827 40.3666 90.3358 40.3666C90.7889 40.3666 91.1824 40.473 91.5261 40.6831C91.8683 40.8959 92.1344 41.2109 92.327 41.631C92.4545 41.9102 92.5404 42.2322 92.5819 42.5997H88.0619L88.0605 42.6011Z" fill="white"/>
<path d="M106.695 43.5339C106.695 42.4615 106.488 41.5246 106.074 40.7231C105.658 39.923 105.071 39.3012 104.312 38.8617C103.551 38.4209 102.649 38.2012 101.607 38.2012C100.565 38.2012 99.6613 38.4278 98.895 38.8811C98.1273 39.3357 97.5315 39.9769 97.1075 40.8088C96.6821 41.6393 96.4701 42.6205 96.4701 43.7522V43.7619C96.4701 44.8951 96.6821 45.8734 97.1075 46.7012C97.5315 47.5289 98.1371 48.166 98.9186 48.6123C99.7029 49.0587 100.638 49.2839 101.727 49.2839C102.491 49.2839 103.157 49.1858 103.724 48.9855C104.292 48.7865 104.774 48.5225 105.169 48.1909C105.564 47.8606 105.877 47.4958 106.11 47.0978C106.343 46.7012 106.5 46.3073 106.579 45.9163L106.608 45.8071H103.939L103.919 45.8665C103.853 46.0655 103.725 46.2617 103.541 46.4538C103.355 46.6459 103.116 46.8048 102.823 46.9306C102.531 47.0563 102.186 47.1199 101.788 47.1199C101.283 47.1199 100.847 47.0093 100.484 46.7869C100.119 46.5658 99.8387 46.2452 99.6433 45.8278C99.459 45.4381 99.362 44.9738 99.3523 44.439H106.698V43.5353L106.695 43.5339ZM99.3828 42.6011C99.4257 42.2446 99.513 41.9281 99.6419 41.6531C99.8373 41.233 100.109 40.9124 100.458 40.6941C100.806 40.4758 101.206 40.3666 101.657 40.3666C102.107 40.3666 102.503 40.473 102.847 40.6831C103.188 40.8959 103.457 41.2109 103.648 41.631C103.775 41.9102 103.861 42.2322 103.903 42.5997H99.3828V42.6011Z" fill="white"/>
<path d="M108.189 49.0656V38.4195H111.096V40.1676H111.155C111.434 39.5582 111.845 39.0787 112.39 38.7277C112.935 38.3767 113.608 38.2012 114.412 38.2012C115.587 38.2012 116.494 38.5536 117.135 39.2583C117.775 39.9631 118.095 40.9415 118.095 42.1935V49.0656H115.188V42.8001C115.188 42.105 115.023 41.5661 114.694 41.1819C114.366 40.7977 113.875 40.6057 113.226 40.6057C112.793 40.6057 112.419 40.7052 112.1 40.9042C111.782 41.1031 111.534 41.3781 111.359 41.7278C111.183 42.0788 111.096 42.4864 111.096 42.9494V49.067H108.189V49.0656Z" fill="white"/>
<path d="M124.33 49.2845C123.348 49.2845 122.51 49.1422 121.815 48.8575C121.121 48.5728 120.582 48.1776 120.197 47.6705C119.812 47.1647 119.579 46.576 119.5 45.9072L119.49 45.8173H122.328L122.347 45.9072C122.44 46.3245 122.649 46.6492 122.975 46.88C123.301 47.1122 123.752 47.2283 124.329 47.2283C124.7 47.2283 125.016 47.184 125.275 47.0942C125.534 47.0044 125.735 46.8773 125.878 46.7114C126.021 46.5456 126.093 46.348 126.093 46.1158V46.1062C126.093 45.8215 125.99 45.5935 125.784 45.4207C125.577 45.248 125.213 45.1071 124.689 44.9937L122.877 44.6068C122.187 44.4617 121.609 44.2517 121.145 43.9767C120.68 43.7017 120.331 43.3603 120.098 42.9541C119.866 42.5464 119.749 42.0793 119.749 41.5487V41.539C119.749 40.8577 119.934 40.2677 120.302 39.7716C120.671 39.2755 121.192 38.8899 121.865 38.6149C122.539 38.3399 123.327 38.2031 124.231 38.2031C125.134 38.2031 125.975 38.3538 126.635 38.655C127.296 38.9563 127.803 39.3612 128.158 39.8711C128.512 40.381 128.701 40.9476 128.72 41.5694V41.6689H126.042L126.032 41.5901C125.985 41.2129 125.807 40.8964 125.5 40.6422C125.191 40.3879 124.768 40.2594 124.231 40.2594C123.898 40.2594 123.61 40.3064 123.364 40.399C123.119 40.4915 122.929 40.6214 122.796 40.7859C122.663 40.9517 122.597 41.1507 122.597 41.3815V41.3911C122.597 41.5694 122.641 41.7311 122.731 41.8734C122.821 42.0158 122.972 42.1401 123.184 42.2452C123.396 42.3516 123.682 42.4441 124.041 42.5229L125.853 42.9098C126.976 43.142 127.781 43.4889 128.268 43.9532C128.756 44.4161 129 45.0393 129 45.8201V45.8298C129 46.5249 128.8 47.1301 128.403 47.647C128.005 48.1638 127.455 48.5659 126.755 48.8534C126.054 49.1408 125.246 49.2859 124.33 49.2859V49.2845Z" fill="white"/>
<path d="M0 35.0178C1.02955 33.8474 2.57595 33.0182 4.01428 32.4337C14.0326 28.364 25.5406 33.3084 35.6948 34.1099C45.3764 34.8741 54.0008 33.5199 58.234 23.96C58.2825 23.8494 58.2811 23.6919 58.4405 23.667C58.3934 26.6933 57.6701 29.6326 56.1777 32.2651C52.7066 38.3883 45.2198 41.8541 38.2486 41.1935C33.3239 40.7278 28.8052 38.5348 24.209 36.9249C16.5878 34.2564 7.88029 32.2098 0.00138596 35.0178H0Z" fill="white"/>
<path d="M57.8932 14.8574L54.9264 13.7712C54.7449 13.5004 54.9805 10.217 54.889 9.53989C54.8724 9.41414 54.871 9.30359 54.7532 9.22206C51.0784 7.25977 47.3177 5.34032 43.3256 4.07589C38.9677 2.69676 36.4056 2.59727 32.002 3.91421C27.8159 5.16621 23.7836 7.21693 19.9633 9.28701V20.4458C20.2945 24.0332 20.9707 27.6054 22.2469 30.9758L18.9171 30.4783C18.3753 29.0094 17.9582 27.4741 17.6409 25.9374C16.4132 19.9994 17.0174 13.8514 16.8608 7.81253L17.0132 7.50989C21.7037 4.85804 26.7475 2.22554 31.9812 0.804959C37.4047 -0.666755 40.9326 -0.00759267 46.0887 1.86763C50.1764 3.35455 54.2031 5.36105 57.8932 7.63564V14.856V14.8574Z" fill="white"/>
<path d="M32.8209 7.22949L30.8588 8.7703C29.9803 9.68235 28.4269 11.3116 29.8112 12.453C31.1068 13.5212 33.4708 12.3383 34.9908 12.0689C37.3506 11.6515 39.6023 11.8174 41.0116 14.0118C43.1704 17.3767 40.4822 19.6057 39.3446 22.5809C38.4301 24.9702 38.4259 27.7064 39.5691 30.0252C37.3035 28.0726 37.8065 24.7684 37.0416 22.1456C36.5802 20.5634 35.5035 18.7393 34.2343 17.6766C32.3082 16.0625 29.674 15.9824 27.5969 14.5701C26.0339 13.5074 25.7401 12.4309 26.8598 10.8708C28.1761 9.03701 30.6759 7.78916 32.8223 7.23088L32.8209 7.22949Z" fill="white"/>
<path d="M54.1546 36.5628C52.3505 40.7126 48.3861 43.7292 43.9464 44.6026C35.3082 46.3023 24.9586 39.8862 16.8456 37.2634C13.2193 36.0901 8.59253 35.0689 4.78333 34.928C4.67248 34.9238 4.44384 34.9957 4.46601 34.8382C9.28813 34.2799 14.1477 34.9708 18.7993 36.2256C29.0034 38.9797 37.6347 45.3585 48.5344 40.3643C50.7334 39.3569 52.0235 38.2376 53.8345 36.7438C53.9371 36.6595 53.9814 36.5241 54.1532 36.5628H54.1546Z" fill="white"/>
<path d="M47.1348 44.6459C45.5039 46.1964 43.7275 47.6377 41.8028 48.8248C41.128 49.2407 37.9271 51.0385 37.3396 50.9999C37.122 50.9847 36.0814 50.4858 35.7973 50.3545C31.8121 48.5097 27.9752 45.3023 25.1651 41.9637C25.0903 41.8752 24.6441 41.3501 24.7078 41.2852C25.9522 41.8158 27.1965 42.3534 28.4477 42.8716C29.1946 43.1811 30.3198 43.4644 30.971 43.8099C31.4214 44.0489 32.0463 44.6722 32.5188 44.9928C34.0514 46.0347 35.631 47.0159 37.3562 47.7179C37.5377 47.7441 38.7211 47.1568 38.9899 47.0228C39.4278 46.803 40.5598 46.014 40.909 45.9366C41.4023 45.8288 42.1908 45.8938 42.7118 45.8261C44.2374 45.6257 45.7062 45.1931 47.1348 44.6473V44.6459Z" fill="white"/>
<path d="M40.0236 32.8398C40.0485 32.9891 39.9003 32.9228 39.7977 32.9297C36.5137 33.1135 34.2232 30.2557 33.2352 27.4781C32.0255 24.0759 31.5253 20.3545 29.2653 17.4014C30.8339 17.4553 32.5812 18.1047 33.7341 19.1702C35.9927 21.2582 35.5756 24.1077 36.2393 26.8466C36.7867 29.1046 37.8883 31.686 40.0236 32.8412V32.8398Z" fill="white"/>
<path d="M38.7252 4.25579C44.2138 3.51509 44.4397 11.2896 39.6093 11.4983C35.0116 11.6973 34.5516 4.81822 38.7252 4.25579Z" fill="white"/>
<path d="M56.3398 16.3152C55.8313 17.8132 55.6858 19.9123 57.8932 19.5793C57.8045 20.6488 57.8724 21.9022 57.6701 22.9442C57.3805 24.4352 56.0682 26.6518 55.0692 27.8001C54.9264 27.9646 53.1473 29.7666 53.0613 29.6602C54.4498 25.1953 55.09 20.5438 54.8849 15.8564L56.3398 16.3152Z" fill="white"/>
<path d="M35.9206 32.7504C36.0495 32.8816 35.9137 32.9148 35.7862 32.9314C35.4135 32.9784 34.9978 32.8803 34.6084 33.0129C33.6537 32.9148 32.8168 32.8816 31.9105 32.521C27.9863 30.958 28.5447 24.9413 30.6787 22.125C31.0376 24.488 31.4685 26.8718 32.4689 29.0593C33.1687 30.5905 34.2495 32.199 35.9206 32.7517V32.7504Z" fill="white"/>
<path d="M57.0701 15.9504L42.213 10.9977C42.4776 10.7918 42.6744 10.3371 43.0541 10.4214L56.6654 14.9444C58.1966 15.5165 59.2095 16.6648 58.4169 18.3272C58.1356 18.9187 57.7477 19.202 57.0687 18.9919C56.0585 18.6796 56.8705 16.6178 57.0701 15.949V15.9504Z" fill="white"/>
<path d="M35.0878 7.78584L35.1918 8.86233L32.4578 8.04564C32.3248 7.91988 33.1923 7.29389 33.3433 7.24414L35.0892 7.78584H35.0878Z" fill="white"/>
</svg>
