<svg preserveAspectRatio="none" width="100%" height="100%" overflow="visible" style="display: block;" viewBox="0 0 60 60" fill="none" xmlns="http://www.w3.org/2000/svg">
<g id="verified_24dp_E3E3E3_FILL0_wght400_GRAD0_opsz24 1">
<path id="Vector" d="M21.5 56.25L16.75 48.25L7.75 46.25L8.625 37L2.5 30L8.625 23L7.75 13.75L16.75 11.75L21.5 3.75L30 7.375L38.5 3.75L43.25 11.75L52.25 13.75L51.375 23L57.5 30L51.375 37L52.25 46.25L43.25 48.25L38.5 56.25L30 52.625L21.5 56.25ZM23.625 49.875L30 47.125L36.5 49.875L40 43.875L46.875 42.25L46.25 35.25L50.875 30L46.25 24.625L46.875 17.625L40 16.125L36.375 10.125L30 12.875L23.5 10.125L20 16.125L13.125 17.625L13.75 24.625L9.125 30L13.75 35.25L13.125 42.375L20 43.875L23.625 49.875ZM27.375 38.875L41.5 24.75L38 21.125L27.375 31.75L22 26.5L18.5 30L27.375 38.875Z" fill="var(--fill-0, #009444)"/>
</g>
</svg>
