<svg width="24" height="24" viewBox="0 0 24 24" fill="none" xmlns="http://www.w3.org/2000/svg">
<path d="M12 16.0127C12.6968 16.0127 13.2857 16.2525 13.7666 16.7334C14.2475 17.2143 14.4873 17.8032 14.4873 18.5C14.4873 19.1968 14.2475 19.7857 13.7666 20.2666C13.2857 20.7475 12.6968 20.9873 12 20.9873C11.3032 20.9873 10.7143 20.7475 10.2334 20.2666C9.75247 19.7857 9.5127 19.1968 9.5127 18.5C9.5127 17.8032 9.75247 17.2143 10.2334 16.7334C10.7143 16.2525 11.3032 16.0127 12 16.0127ZM12 10.0127C13.5317 10.0127 14.9589 10.3042 16.2822 10.8867C17.6017 11.4676 18.7512 12.2555 19.7314 13.25L17.6494 15.332C16.9171 14.602 16.0685 14.0288 15.1045 13.6133C14.1363 13.196 13.1014 12.9873 12 12.9873C10.8986 12.9873 9.86367 13.196 8.89551 13.6133C7.93149 14.0288 7.08197 14.601 6.34961 15.3311L4.26758 13.2002C5.24786 12.2221 6.39806 11.4467 7.71777 10.874C9.04104 10.2998 10.4684 10.0127 12 10.0127ZM12 4.0127C14.3651 4.0127 16.5718 4.45429 18.6201 5.33691C20.6647 6.21796 22.4522 7.43878 23.9824 9L21.8994 11.082C20.6171 9.802 19.1314 8.80004 17.4424 8.07617C15.7491 7.35047 13.9349 6.9873 12 6.9873C10.0651 6.9873 8.25092 7.35047 6.55762 8.07617C4.86838 8.80013 3.38208 9.80176 2.09961 11.082L0.0175781 9C1.5478 7.43878 3.33527 6.21796 5.37988 5.33691C7.42823 4.45429 9.63493 4.0127 12 4.0127Z" fill="#7DDB8A" stroke="#7DDB8A" stroke-width="0.025"/>
</svg>
