<svg width="1579" height="593" viewBox="0 0 1579 593" fill="none" xmlns="http://www.w3.org/2000/svg">
<g style="mix-blend-mode:screen">
<path d="M1658.25 942.731C1290.66 668.405 744.425 774.512 426.237 1077.82C379.985 1121.67 337.804 1169.83 300.76 1221.64L293.9 1216.7C331.554 1164.64 374.33 1116.34 421.162 1072.43C742.109 769.8 1290.76 665.46 1658.25 942.731Z" fill="#5EB861"/>
<path d="M1679.6 921.51C1300.51 651.346 746.924 759.663 426.161 1073.26C379.693 1118.5 337.534 1168.17 300.797 1221.57L293.841 1216.77C331.185 1163.09 373.954 1113.26 421.01 1067.95C744.467 755.01 1300.57 648.399 1679.6 921.51Z" fill="#23CEBC"/>
<path d="M1690.27 910.899C1362.32 680.396 900.233 730.574 577.972 946.98C469.386 1019.94 373.969 1112.99 300.822 1221.55L293.818 1216.8C368.119 1107.81 464.708 1014.59 574.443 941.707C898.892 726.361 1362.48 677.99 1690.27 910.89L1690.27 910.899Z" fill="#014421"/>
<path d="M1700.95 900.289C1368.03 671.491 902.81 722.659 578.517 942.746C469.348 1016.86 373.644 1111.37 300.847 1221.52L293.807 1216.85C330.793 1161.53 373.541 1110.15 420.796 1063.41C746.677 740.1 1310.68 631.346 1700.95 900.299L1700.95 900.289Z" fill="#014421"/>
<path d="M1711.62 889.679C1317.93 626.695 751.921 747.341 426.469 1067.52C379.316 1114.25 336.897 1165.79 300.859 1221.48L293.77 1216.86C330.45 1160.82 373.519 1109.08 421.275 1062.25C749.39 742.725 1317.89 623.769 1711.62 889.679Z" fill="#4CB050"/>
<path d="M1722.3 879.066C1323.12 618.288 752.933 739.665 426.358 1065.16C379.123 1112.62 336.729 1164.94 300.891 1221.44L293.766 1216.9C330.253 1160.04 373.285 1107.5 421.134 1059.94C750.385 735.063 1323.05 615.368 1722.3 879.066Z" fill="#2F7D32"/>
<path d="M1732.98 868.465C1328.44 609.73 753.843 731.99 426.192 1062.78C378.867 1110.98 336.529 1164.1 300.909 1221.42L293.745 1216.94C330.015 1159.25 373.009 1105.9 420.933 1057.59C751.266 727.394 1328.33 606.809 1732.98 868.465Z" fill="#0E5C4E"/>
<path d="M1743.65 857.855C1333.72 601.253 754.787 724.277 426.05 1060.42C378.645 1109.35 336.351 1163.25 300.932 1221.39L293.722 1216.98C329.786 1158.46 372.734 1104.31 420.748 1055.27C752.184 719.707 1333.57 598.331 1743.66 857.865L1743.65 857.855Z" fill="#105E50"/>
<path d="M1754.33 847.244C1339.03 592.729 755.698 716.561 425.884 1058.04C378.399 1107.7 336.151 1162.41 300.945 1221.36L293.697 1217C329.557 1157.67 372.447 1102.72 420.549 1052.93C753.076 711.995 1338.84 589.805 1754.33 847.244Z" fill="#104F2E"/>
<path d="M1765 836.634C1345.09 584.045 755.928 709 425.681 1055.63C378.117 1106.03 335.94 1161.55 300.969 1221.32L293.683 1217.04C329.303 1156.85 372.133 1101.09 420.313 1050.55C753.288 704.448 1344.87 581.117 1765 836.644L1765 836.634Z" fill="#014421"/>
<path d="M1775.68 826.024C1350.51 575.437 756.763 701.259 425.483 1053.25C377.842 1104.4 335.72 1160.71 300.972 1221.29L293.648 1217.06C329.043 1156.06 371.813 1099.48 420.08 1048.2C754.093 696.713 1350.24 572.51 1775.67 826.026L1775.68 826.024Z" fill="#2F7D32"/>
<path d="M1786.35 815.413C1356.07 566.706 757.489 693.582 425.258 1050.84C377.549 1102.72 335.497 1159.85 301.005 1221.25L293.645 1217.09C328.781 1155.26 371.489 1097.85 419.83 1045.81C754.81 689.039 1355.78 563.773 1786.36 815.411L1786.35 815.413Z" fill="#014421"/>
<path d="M1797.03 804.801C1361.57 558.028 758.259 685.825 425.047 1048.44C377.259 1101.06 335.286 1158.99 301.03 1221.22L293.632 1217.13C328.531 1154.46 371.169 1096.24 419.588 1043.46C755.563 681.295 1361.24 555.114 1797.04 804.81L1797.03 804.801Z" fill="#104F2E"/>
<path d="M1807.71 794.19C1367.2 549.212 758.905 678.063 424.786 1046C376.933 1099.38 335.031 1158.13 301.041 1221.18L293.606 1217.15C328.245 1153.64 370.801 1094.6 419.283 1041.05C756.17 673.541 1366.82 546.276 1807.71 794.18L1807.71 794.19Z" fill="#014421"/>
<path d="M1818.38 783.59C1373.43 540.442 758.988 670.481 424.546 1043.61C376.626 1097.73 334.802 1157.29 301.069 1221.17L293.605 1217.2C327.988 1152.86 370.471 1093 419.029 1038.69C756.254 665.97 1373.03 537.511 1818.39 783.588L1818.38 783.59Z" fill="#0E5C4E"/>
<path d="M1829.06 772.979C1379.16 531.574 759.542 662.769 424.256 1041.17C376.27 1096.05 334.537 1156.42 301.082 1221.13L293.582 1217.23C327.684 1152.06 370.082 1091.35 418.706 1036.3C756.781 658.273 1378.73 528.648 1829.07 772.987L1829.06 772.979Z" fill="#014421"/>
<path d="M1839.73 762.369C1384.83 522.757 760.132 654.978 423.98 1038.76C375.928 1094.39 334.286 1155.58 301.086 1221.1L293.559 1217.27C327.403 1151.26 369.709 1089.73 418.397 1033.92C757.342 650.489 1384.35 519.844 1839.73 762.378L1839.73 762.369Z" fill="#105E50"/>
<path d="M1850.41 751.758C1385.7 509.387 762.154 637.879 423.514 1035.49C375.645 1092.33 334.167 1154.58 301.109 1221.07L293.543 1217.29C327.245 1150.32 369.381 1087.75 417.872 1030.72C759.352 633.382 1385.29 506.45 1850.41 751.758Z" fill="#105E50"/>
<path d="M1861.09 741.146C1391.29 500.261 762.871 630.061 423.261 1033.09C375.325 1090.67 333.924 1153.72 301.132 1221.03L293.54 1217.32C326.964 1149.52 369.029 1086.14 417.597 1028.36C760.056 625.597 1390.81 497.317 1861.1 741.153L1861.09 741.146Z" fill="#014421"/>
<path d="M1871.76 730.535C1396.95 491.009 763.543 622.416 422.942 1030.67C374.939 1088.99 333.63 1152.86 301.145 1221L293.514 1217.35C326.637 1148.7 368.609 1084.49 417.242 1025.96C760.698 617.959 1396.44 488.052 1871.76 730.535Z" fill="#4CB050"/>
<path d="M1882.44 719.925C1402.54 481.813 764.218 614.597 422.646 1028.26C374.587 1087.33 333.348 1152.01 301.149 1220.96L293.491 1217.38C326.326 1147.91 368.226 1082.87 416.924 1023.58C761.344 610.145 1401.99 478.862 1882.44 719.925Z" fill="#5EB861"/>
<path d="M1893.11 709.314C1615.44 573.063 1285.85 560.196 992.338 651.466C700.198 740.769 430.295 938.886 301.162 1220.93L293.476 1217.41C424.699 934.183 696.79 735.92 991.092 647.416C1285.49 557.339 1615.63 571.582 1893.1 709.307L1893.11 709.314Z" fill="#014421"/>
<path d="M1903.79 698.714C1447.54 479.556 858.961 582.093 499.384 936.865C417.297 1018.87 348.586 1114.91 301.178 1220.91L293.464 1217.45C325.698 1146.29 367.415 1079.62 416.243 1018.82C762.577 594.481 1413.16 460.338 1903.79 698.714Z" fill="#5EB861"/>
<path d="M1914.46 688.103C1453.42 470.164 860.498 574.05 499.256 933.366C416.875 1016.4 348.156 1113.65 301.191 1220.87L293.449 1217.47C341.34 1109.46 410.958 1011.86 494.385 928.509C858.166 569.791 1453.03 467.487 1914.46 688.094L1914.46 688.103Z" fill="#104F2E"/>
<path d="M1925.14 677.493C1459.94 460.555 861.475 566.351 499.072 929.838C416.346 1013.85 347.671 1112.38 301.205 1220.84L293.436 1217.51C340.836 1108.24 410.416 1009.35 494.187 925.015C859.125 562.105 1459.54 457.881 1925.14 677.493Z" fill="#105E50"/>
<path d="M1935.82 666.88C1430.79 435.222 767.286 575.535 420.961 1016.14C372.617 1078.99 331.872 1147.75 301.22 1220.82L293.422 1217.54C324.698 1143.89 366.113 1074.72 415.107 1011.62C764.32 571.134 1430.12 432.278 1935.81 666.882L1935.82 666.88Z" fill="#4CB050"/>
<path d="M1946.5 656.27C1453.63 433.843 816.958 558.274 458.355 967.148C445.896 981.878 432.243 998.362 420.628 1013.75C372.206 1077.34 331.537 1146.89 301.233 1220.78L293.419 1217.57C324.361 1143.07 365.698 1073.1 414.761 1009.26C426.548 993.813 440.317 977.303 452.974 962.491C814.287 553.964 1453.08 431.056 1946.5 656.28L1946.5 656.27Z" fill="#2F7D32"/>
<path d="M1957.17 645.66C1463.92 426.473 829.979 547.934 468.025 952.805C451.611 971.356 435.199 991.563 420.258 1011.33C371.793 1075.68 331.226 1146.04 301.247 1220.75L293.403 1217.6C324.017 1142.26 365.251 1071.47 414.365 1006.86C429.506 987.023 446.099 966.758 462.732 948.13C827.381 543.629 1463.42 423.717 1957.17 645.66Z" fill="#4CB050"/>
<path d="M1967.84 635.049C1447.81 407.077 768.946 551.991 419.828 1008.86C371.321 1073.98 330.889 1145.17 301.26 1220.72L293.39 1217.63C323.643 1141.46 364.75 1069.83 413.915 1004.44C765.904 547.616 1447.14 404.153 1967.86 635.057L1967.84 635.049Z" fill="#104F2E"/>
<path d="M1978.52 624.439C1695.25 501.832 1369.8 488.723 1074.05 572.984C742.392 666.931 428.209 891.317 301.265 1220.69L293.377 1217.66C323.301 1140.67 364.282 1068.2 413.489 1002.05C766.371 539.728 1452.82 394.744 1978.52 624.449L1978.52 624.439Z" fill="#014421"/>
<path d="M1989.19 613.838C1607.42 451.151 1153.18 483.323 791.227 682.894C575.379 801.79 388.567 987.256 301.281 1220.67L293.363 1217.7C352.433 1061.76 456.604 925.651 583.453 818.541C965.524 498.472 1531.65 416.99 1989.19 613.838Z" fill="#2F7D32"/>
<path d="M1999.88 603.225C1464.99 378.737 770.313 528.171 418.592 1001.57C369.955 1068.97 329.881 1142.64 301.292 1220.63L293.358 1217.72C322.573 1139.06 363.314 1064.93 412.612 997.223C767.244 523.812 1464.17 375.802 1999.88 603.216L1999.88 603.225Z" fill="#104F2E"/>
<path d="M2010.55 592.615C1471.33 369.267 770.206 520.518 418.16 999.145C369.472 1067.32 329.529 1141.79 301.308 1220.6L293.354 1217.75C322.187 1138.26 362.815 1063.3 412.155 994.825C767.138 516.168 1470.48 366.331 2010.55 592.615Z" fill="#5EB861"/>
</g>
</svg>
