<svg width="24" height="24" viewBox="0 0 24 24" fill="none" xmlns="http://www.w3.org/2000/svg">
<path d="M21.9824 14.9492L14.9502 21.9824L10.7168 17.749L12.0986 16.3672L14.9414 19.1592L14.9502 19.168L14.959 19.1592L20.5986 13.5176L21.9824 14.9492ZM4 4.0127H20C20.5467 4.0127 21.014 4.20734 21.4033 4.59668C21.7927 4.98602 21.9873 5.45334 21.9873 6V11.9873H4.0127V8.0127H20.0127V5.9873H3.9873V18.0127H8.08789V19.9873H4C3.45334 19.9873 2.98602 19.7927 2.59668 19.4033C2.20734 19.014 2.0127 18.5467 2.0127 18V6C2.0127 5.45334 2.20734 4.98602 2.59668 4.59668C2.98602 4.20734 3.45334 4.0127 4 4.0127Z" fill="#7DDB8A" stroke="#7DDB8A" stroke-width="0.025"/>
</svg>
