<svg width="239" height="173" viewBox="0 0 239 173" fill="none" xmlns="http://www.w3.org/2000/svg">
<path d="M143.198 3.88232H140.525V6.76143H143.198V3.88232Z" fill="#AFACAD"/>
<path d="M198.751 39.6782H196.078V42.5573H198.751V39.6782Z" fill="#AFACAD"/>
<path d="M228.552 36.5924C229.209 36.2549 229.739 35.7727 230.14 35.1322C230.542 34.4985 230.823 33.727 230.989 32.8316C231.155 31.9293 231.238 30.9168 231.238 29.7941V9.64038H228.565V29.7941C228.565 30.6069 228.527 31.2957 228.45 31.8605C228.374 32.4253 228.24 32.8798 228.048 33.2311C227.857 33.5755 227.602 33.8304 227.283 33.9888C226.957 34.1472 226.543 34.223 226.033 34.223C225.79 34.223 225.573 34.2092 225.401 34.1885C225.222 34.1679 224.98 34.1059 224.667 34.0094L223.966 36.7783C224.699 36.9988 225.427 37.1021 226.135 37.1021C227.085 37.0952 227.895 36.9299 228.552 36.5924Z" fill="#AFACAD"/>
<path d="M219.367 4.53667H215.699V3.86856C215.699 3.5035 215.769 3.2211 215.916 3.02136C216.037 2.85605 216.324 2.7734 216.739 2.7734H218.576V0.769043H216.694C215.674 0.769043 214.876 1.05833 214.34 1.63002C213.798 2.20171 213.524 3.13845 213.524 4.39892V6.74766H219.373V4.53667H219.367Z" fill="#AFACAD"/>
<path d="M193.405 39.6782H190.733V42.5573H193.405V39.6782Z" fill="#AFACAD"/>
<path d="M148.544 3.88232H145.871V6.76143H148.544V3.88232Z" fill="#AFACAD"/>
<path d="M207.33 26.8943C208.344 27.6727 209.518 28.2512 210.851 28.6232C212.184 28.9951 213.601 29.1811 215.093 29.1811H215.801L216.701 27.1492V30.0076C216.701 31.5161 216.299 32.5975 215.501 33.2449C214.698 33.8924 213.575 34.2161 212.127 34.2161C211.304 34.2161 210.564 34.1334 209.907 33.9612C209.25 33.7959 208.498 33.5066 207.656 33.1003L206.82 35.8692C207.841 36.2755 208.753 36.5855 209.544 36.7852C210.335 36.9919 211.132 37.0883 211.929 37.0883C214.532 37.0883 216.426 36.4202 217.606 35.0908C218.786 33.7546 219.373 31.9638 219.373 29.7115V9.64038H215.1C213.454 9.64038 211.948 9.89523 210.59 10.398C209.231 10.9009 208.07 11.5896 207.101 12.4644C206.131 13.3391 205.378 14.3861 204.849 15.5983C204.313 16.8106 204.045 18.1262 204.045 19.5382C204.045 21.2395 204.339 22.6997 204.932 23.9119C205.512 25.1173 206.316 26.116 207.33 26.8943ZM207.33 16.6935C207.738 15.8325 208.287 15.0955 208.963 14.4825C209.639 13.8695 210.418 13.4011 211.285 13.0636C212.127 12.7399 213.001 12.5746 213.907 12.5677V12.5608H218.225L216.701 13.3805V26.3089H213.996C212.995 26.3089 212.057 26.1573 211.177 25.8543C210.296 25.5581 209.525 25.1173 208.855 24.5387C208.185 23.9601 207.662 23.2576 207.286 22.4173C206.909 21.577 206.718 20.6195 206.718 19.5382C206.711 18.505 206.916 17.5545 207.33 16.6935Z" fill="#AFACAD"/>
<path d="M141.253 36.6957H146.802V34.5398C146.853 34.6431 146.911 34.7464 146.968 34.836C147.37 35.4697 147.899 35.9587 148.556 36.2962C149.213 36.6337 150.017 36.799 150.974 36.799H199.676V9.64038H197.003V33.9268H194.228H151.07C150.559 33.9268 150.138 33.851 149.819 33.6926C149.5 33.5342 149.239 33.2862 149.054 32.935C148.869 32.5837 148.735 32.1291 148.652 31.5643C148.575 30.9995 148.537 30.3107 148.537 29.4979V9.64038H141.316C133.93 9.64038 128.903 15.9565 128.903 23.168V23.2438C128.91 30.4553 133.866 36.6957 141.253 36.6957ZM131.755 23.0923C131.755 17.1481 135.709 12.368 141.253 12.368H147.504L145.864 13.2496V29.4979C145.864 30.6275 145.947 31.64 146.113 32.5355C146.209 33.0589 146.349 33.5342 146.528 33.9681H141.316C135.767 33.9681 131.748 29.1122 131.748 23.168V23.0923H131.755Z" fill="#AFACAD"/>
<path d="M115.546 29.5462L116.713 32.8661L99.7458 9.60596H97.0986V36.6406H99.8542V16.2665L98.2851 12.3266L116.05 36.6406H118.308V9.60596H115.546V29.5462Z" fill="#AFACAD"/>
<path d="M153.589 79.8272L168.988 63.9783V53.1094H127.832V65.4868H148.933L156.76 60.0592L137.221 81.2392L139.314 90.4275H144.882C152.365 90.4275 156.804 93.4306 156.804 98.7755V98.9615C156.804 103.838 153.238 106.931 148.193 106.931C142.018 106.931 137.668 104.12 133.49 99.0511L124.266 108.522C129.484 115.182 137.056 119.866 148.021 119.866C161.595 119.866 169.944 110.767 169.944 98.3898V98.2039C169.951 86.0193 161.856 81.3287 153.589 79.8272Z" fill="#AFACAD"/>
<path d="M79.7105 9.14453C72.0815 9.14453 66.8828 15.6673 66.8828 23.1268V23.2025C66.8828 30.6552 72.005 37.1021 79.6403 37.1021C87.2757 37.1021 92.468 30.5794 92.468 23.1268V23.051C92.4616 15.5915 87.3395 9.14453 79.7105 9.14453ZM89.5274 23.2025C89.5274 29.3396 85.445 34.285 79.7105 34.285C73.976 34.285 69.8234 29.2638 69.8234 23.1268V23.051C69.8234 16.914 73.9122 11.9685 79.6403 11.9685C85.3748 11.9685 89.5274 16.9897 89.5274 23.1268V23.2025Z" fill="#AFACAD"/>
<path d="M205.857 51.98C187.065 51.98 173.402 67.264 173.402 85.9231V86.1091C173.402 104.768 186.886 119.866 205.678 119.866C224.47 119.866 238.133 104.582 238.133 85.9231V85.7371C238.14 67.0781 224.649 51.98 205.857 51.98ZM224.132 86.1091C224.132 97.3638 216.65 106.552 205.857 106.552C195.07 106.552 187.409 97.1778 187.409 85.9231V85.7371C187.409 74.4825 194.892 65.2941 205.678 65.2941C216.465 65.2941 224.126 74.6684 224.126 85.9231V86.1091H224.132Z" fill="#AFACAD"/>
<path d="M61.9965 9.60596H59.1643V36.6337H61.9965V9.60596Z" fill="#AFACAD"/>
<path d="M13.6964 111.243L16.2798 109.093L29.5923 98.0179C40.3788 89.0155 45.603 83.5811 45.603 72.6088V72.4228C45.603 60.135 37.2532 52.1658 24.636 52.1658C13.7602 52.1658 7.93004 56.9459 1.92762 65.7623L11.3235 73.9175C15.8461 67.9182 19.0674 65.108 23.7685 65.108C28.5526 65.108 31.9461 68.111 31.9461 73.642C31.9461 79.0764 28.9863 82.6443 21.4211 89.3944L1.14941 107.303V118.743H46.2217V106.27H22.9967L13.6964 111.243Z" fill="#AFACAD"/>
<path d="M13.8815 36.8335L24.6616 9.60596H21.6189L13.0969 31.764L13.3648 34.7396L12.6631 32.8936L5.2829 13.6353L3.73924 9.60596H0.588135L11.3746 36.8335H13.8815Z" fill="#AFACAD"/>
<path d="M31.3402 9.60596H28.5081V36.6337H31.3402V9.60596Z" fill="#AFACAD"/>
<path d="M46.3305 21.6529C40.8128 20.3787 39.5243 18.9529 39.5243 16.4044V16.3286C39.5243 13.8972 41.6038 11.9686 44.8633 11.9686C47.4404 11.9686 49.775 12.8572 52.1032 14.9029L53.749 12.5472C51.2038 10.3431 48.5885 9.22729 44.9335 9.22729C40.1686 9.22729 36.6921 12.3544 36.6921 16.6041V16.6799C36.6921 21.1225 39.3457 23.1269 45.1121 24.4838C50.381 25.6823 51.6312 27.108 51.6312 29.6221V29.6979C51.6312 32.3634 49.4114 34.292 46.0434 34.292C42.567 34.292 40.0601 33.0178 37.4448 30.4693L35.6907 32.7078C38.7014 35.6076 41.961 37.0334 45.935 37.0334C50.9168 37.0334 54.4953 34.0234 54.4953 29.3879V29.3121C54.4953 25.1726 51.9182 22.9685 46.3305 21.6529Z" fill="#AFACAD"/>
<path d="M82.6126 47.6611L85.6999 50.8502L82.7401 54.177L79.6528 50.9879L82.6126 47.6611Z" fill="#28316F"/>
<path d="M89.6738 50.9879L92.7548 54.177L95.7145 50.8502L92.6336 47.6611L89.6738 50.9879Z" fill="#B4B1B3"/>
<path d="M85.3301 55.1757L87.7349 57.6622L90.0376 55.0724L87.6328 52.5859L85.3301 55.1757Z" fill="#D5D505"/>
<path d="M94.1389 56.5946L96.5373 59.0811L98.8401 56.4913L96.4417 54.0117L94.1389 56.5946Z" fill="#75B12F"/>
<path d="M81.4006 59.1293L83.8054 61.6158L86.1082 59.026L83.7098 56.5464L81.4006 59.1293Z" fill="#D5D505"/>
<path d="M89.4634 59.4324L91.8618 61.9189L94.1645 59.329L91.7661 56.8425L89.4634 59.4324Z" fill="#29B0BA"/>
<path d="M86.3123 62.408L87.9962 64.1575L89.6228 62.3391L87.9325 60.5896L86.3123 62.408Z" fill="#75B12F"/>
<path d="M92.6848 63.7857L94.3688 65.5283L95.9954 63.7099L94.305 61.9604L92.6848 63.7857Z" fill="#5AAC4C"/>
<path d="M111.838 48.8969L106.599 49.9338L107.558 55.5841L112.797 54.5471L111.838 48.8969Z" fill="#2983C6"/>
<path d="M103.942 51.4623L99.7385 52.2935L100.507 56.8258L104.711 55.9947L103.942 51.4623Z" fill="#213466"/>
<path d="M112.092 57.7876L107.888 58.6201L108.658 63.1525L112.861 62.32L112.092 57.7876Z" fill="#29B0BA"/>
<path d="M105.352 58.6263L102.077 59.2742L102.676 62.8039L105.951 62.156L105.352 58.6263Z" fill="#D5D505"/>
<path d="M111.724 65.3279L108.449 65.9758L109.048 69.5055L112.323 68.8576L111.724 65.3279Z" fill="#B4B1B3"/>
<path d="M100.447 60.0662L97.1719 60.7141L97.7707 64.2438L101.046 63.5959L100.447 60.0662Z" fill="#29B0BA"/>
<path d="M106.392 64.6876L103.117 65.3354L103.716 68.8651L106.991 68.2172L106.392 64.6876Z" fill="#75B12F"/>
<path d="M101.25 65.3138L98.947 65.7695L99.368 68.2491L101.671 67.7934L101.25 65.3138Z" fill="#B4B1B3"/>
<path d="M105.685 70.4454L103.382 70.8999L103.802 73.3798L106.105 72.9253L105.685 70.4454Z" fill="#5AAC4C"/>
<path d="M122.186 68.4348L119.896 73.6213L124.706 76.0872L126.996 70.9075L122.186 68.4348Z" fill="#28316F"/>
<path d="M115.355 66.0378L113.518 70.1981L117.377 72.1818L119.214 68.0215L115.355 66.0378Z" fill="#29B0BA"/>
<path d="M118.512 76.2869L116.675 80.4471L120.541 82.4239L122.378 78.2705L118.512 76.2869Z" fill="#75B12F"/>
<path d="M113.454 73.1667L112.025 76.4109L115.03 77.9469L116.465 74.7096L113.454 73.1667Z" fill="#D5D505"/>
<path d="M114.985 82.6238L113.55 85.861L116.554 87.4039L117.989 84.1598L114.985 82.6238Z" fill="#D5D505"/>
<path d="M108.695 71.238L107.267 74.4822L110.271 76.0182L111.706 72.7809L108.695 71.238Z" fill="#2983C6"/>
<path d="M111.011 78.7319L109.576 81.9761L112.586 83.5121L114.015 80.2748L111.011 78.7319Z" fill="#B4B1B3"/>
<path d="M107.394 76.4521L106.386 78.732L108.504 79.8134L109.506 77.5335L107.394 76.4521Z" fill="#75B12F"/>
<path d="M108.204 83.3913L107.2 85.6677L109.314 86.7539L110.318 84.4775L108.204 83.3913Z" fill="#29B0BA"/>
<path d="M124.776 93.2725L120.107 96.0276L122.671 101.063L127.341 98.3075L124.776 93.2725Z" fill="#2983C6"/>
<path d="M120.541 87.0181L116.79 89.2359L118.85 93.2722L122.595 91.0543L120.541 87.0181Z" fill="#29B0BA"/>
<path d="M117.536 97.3223L113.792 99.5401L115.846 103.576L119.597 101.359L117.536 97.3223Z" fill="#29B0BA"/>
<path d="M115.132 91.5984L112.21 93.3272L113.811 96.4681L116.733 94.7461L115.132 91.5984Z" fill="#28316F"/>
<path d="M111.234 100.229L108.319 101.958L109.92 105.099L112.835 103.377L111.234 100.229Z" fill="#5AAC4C"/>
<path d="M112.319 87.0388L109.404 88.7608L110.998 91.9085L113.92 90.1797L112.319 87.0388Z" fill="#213466"/>
<path d="M110.124 94.5742L107.203 96.2962L108.804 99.4439L111.725 97.7151L110.124 94.5742Z" fill="#D5D505"/>
<path d="M108.434 90.4414L106.38 91.6537L107.509 93.8646L109.557 92.6524L108.434 90.4414Z" fill="#B4B1B3"/>
<path d="M105.308 96.5852L103.254 97.7975L104.383 100.008L106.437 98.7962L105.308 96.5852Z" fill="#29B0BA"/>
<path d="M108.116 114.305L107.464 120.007L112.75 120.712L113.402 115.01L108.116 114.305Z" fill="#75B12F"/>
<path d="M109.116 106.737L108.592 111.31L112.833 111.878L113.358 107.305L109.116 106.737Z" fill="#213466"/>
<path d="M101.093 113.205L100.568 117.778L104.81 118.346L105.335 113.773L101.093 113.205Z" fill="#29B0BA"/>
<path d="M103.172 107.192L102.765 110.754L106.069 111.195L106.477 107.634L103.172 107.192Z" fill="#75B12F"/>
<path d="M95.3299 111.731L94.9221 115.292L98.2265 115.734L98.6343 112.172L95.3299 111.731Z" fill="#B4B1B3"/>
<path d="M103.379 101.703L102.97 105.265L106.275 105.707L106.683 102.146L103.379 101.703Z" fill="#B4B1B3"/>
<path d="M97.5091 106.423L97.1003 109.985L100.405 110.427L100.814 106.866L97.5091 106.423Z" fill="#75B12F"/>
<path d="M99.3526 102.147L99.0659 104.649L101.389 104.96L101.676 102.458L99.3526 102.147Z" fill="#B4B1B3"/>
<path d="M93.4764 105.163L93.1899 107.665L95.5132 107.975L95.7996 105.473L93.4764 105.163Z" fill="#B4B1B3"/>
<path d="M92.3529 125.521L88.4491 121.616L84.8196 125.824L88.7234 129.73L92.3529 125.521Z" fill="#D5D505"/>
<path d="M91.6322 45.0851L87.7284 41.1797L84.0989 45.3881L88.0091 49.2935L91.6322 45.0851Z" fill="#75B12F"/>
<path d="M96.5185 119.219L93.3865 116.085L90.4778 119.46L93.6098 122.594L96.5185 119.219Z" fill="#29B0BA"/>
<path d="M86.5036 119.398L83.3653 116.264L80.4565 119.639L83.5949 122.773L86.5036 119.398Z" fill="#75B12F"/>
<path d="M90.7776 115.134L88.3409 112.689L86.0764 115.32L88.5131 117.758L90.7776 115.134Z" fill="#2983C6"/>
<path d="M81.9492 113.867L79.5125 111.428L77.248 114.053L79.6911 116.498L81.9492 113.867Z" fill="#D5D505"/>
<path d="M93.9094 110.815L91.4727 108.377L89.2083 111.001L91.6449 113.447L93.9094 110.815Z" fill="#D5D505"/>
<path d="M86.5803 110.946L84.1436 108.508L81.8792 111.132L84.3158 113.577L86.5803 110.946Z" fill="#B4B1B3"/>
<path d="M89.6865 107.916L87.9707 106.194L86.376 108.047L88.0919 109.762L89.6865 107.916Z" fill="#213466"/>
<path d="M83.2952 106.655L81.5793 104.94L79.9846 106.786L81.7005 108.501L83.2952 106.655Z" fill="#B4B1B3"/>
<path d="M68.5464 115.12L63.324 116.25L64.3693 121.883L69.5917 120.753L68.5464 115.12Z" fill="#2983C6"/>
<path d="M75.552 113.737L71.3616 114.644L72.1997 119.162L76.3901 118.256L75.552 113.737Z" fill="#29B0BA"/>
<path d="M67.3525 107.579L63.1621 108.487L64.0015 113.005L68.1919 112.097L67.3525 107.579Z" fill="#75B12F"/>
<path d="M73.2948 107.809L70.03 108.515L70.6827 112.034L73.9475 111.328L73.2948 107.809Z" fill="#D5D505"/>
<path d="M78.1796 106.28L74.9148 106.986L75.5675 110.505L78.8323 109.799L78.1796 106.28Z" fill="#28316F"/>
<path d="M72.1708 101.768L68.906 102.474L69.5587 105.992L72.8235 105.286L72.1708 101.768Z" fill="#2983C6"/>
<path d="M76.5373 102.338L74.2417 102.834L74.6998 105.306L76.9953 104.81L76.5373 102.338Z" fill="#75B12F"/>
<path d="M72.0454 97.2735L69.75 97.7708L70.2092 100.243L72.5046 99.7453L72.0454 97.2735Z" fill="#B4B1B3"/>
<path d="M53.7233 102.529L55.9368 97.3016L51.0825 94.9253L48.8755 100.146L53.7233 102.529Z" fill="#29B0BA"/>
<path d="M60.5932 104.802L62.3601 100.615L58.4754 98.6997L56.7021 102.894L60.5932 104.802Z" fill="#D5D505"/>
<path d="M57.2763 94.6155L59.0496 90.4209L55.1585 88.5129L53.3853 92.7076L57.2763 94.6155Z" fill="#2983C6"/>
<path d="M60.7202 92.8808L59.3413 96.146L62.371 97.6377L63.7499 94.3725L60.7202 92.8808Z" fill="#29B0BA"/>
<path d="M66.4359 105.808L67.8137 102.543L64.7838 101.055L63.406 104.32L66.4359 105.808Z" fill="#B4B1B3"/>
<path d="M59.0709 83.461L57.6914 86.7258L60.7208 88.2183L62.1003 84.9534L59.0709 83.461Z" fill="#28316F"/>
<path d="M65.5321 94.7349L64.1526 97.9998L67.182 99.4922L68.5615 96.2274L65.5321 94.7349Z" fill="#5AAC4C"/>
<path d="M63.091 87.2959L61.7104 90.5601L64.7392 92.0536L66.1197 88.7895L63.091 87.2959Z" fill="#D5D505"/>
<path d="M68.3881 94.2502L69.364 91.9566L67.2335 90.9097L66.2576 93.2102L68.3881 94.2502Z" fill="#213466"/>
<path d="M67.4823 87.3211L68.4519 85.0206L66.3214 83.9736L65.3518 86.2742L67.4823 87.3211Z" fill="#75B12F"/>
<path d="M50.7507 77.7472L55.3817 74.9025L52.7408 69.9158L48.1099 72.7604L50.7507 77.7472Z" fill="#29B0BA"/>
<path d="M55.0819 83.9186L58.8007 81.6388L56.6766 77.637L52.9641 79.9168L55.0819 83.9186Z" fill="#75B12F"/>
<path d="M57.9271 73.5661L61.6395 71.2862L59.5218 67.2844L55.8093 69.5643L57.9271 73.5661Z" fill="#213466"/>
<path d="M60.4209 79.2419L63.3104 77.4649L61.6647 74.3516L58.7751 76.1286L60.4209 79.2419Z" fill="#2983C6"/>
<path d="M64.1846 70.5493L67.0742 68.7723L65.4284 65.6521L62.5325 67.4292L64.1846 70.5493Z" fill="#75B12F"/>
<path d="M63.3042 83.7534L66.1938 81.9763L64.5481 78.863L61.6521 80.6401L63.3042 83.7534Z" fill="#29B0BA"/>
<path d="M65.3835 76.1836L68.2731 74.4066L66.6274 71.2864L63.7314 73.0703L65.3835 76.1836Z" fill="#D5D505"/>
<path d="M67.138 80.282L69.1728 79.0353L68.0119 76.845L65.9771 78.0917L67.138 80.282Z" fill="#B4B1B3"/>
<path d="M70.1678 74.0897L72.2026 72.8361L71.0417 70.6458L69.0068 71.8924L70.1678 74.0897Z" fill="#75B12F"/>
<path d="M62.3524 50.0747L61.7869 55.7864L67.0828 56.3977L67.6483 50.6861L62.3524 50.0747Z" fill="#75B12F"/>
<path d="M62.4025 58.9352L61.9485 63.5168L66.1979 64.0079L66.6519 59.4262L62.4025 58.9352Z" fill="#B4B1B3"/>
<path d="M70.3356 52.3346L69.8816 56.9163L74.131 57.4073L74.5851 52.8256L70.3356 52.3346Z" fill="#29B0BA"/>
<path d="M69.1782 59.5266L68.8242 63.0947L72.135 63.4776L72.4889 59.9095L69.1782 59.5266Z" fill="#D5D505"/>
<path d="M76.9566 54.8156L76.604 58.384L79.9151 58.7655L80.2677 55.1971L76.9566 54.8156Z" fill="#2983C6"/>
<path d="M69.0654 65.0003L68.7114 68.5684L72.0222 68.9513L72.3761 65.3832L69.0654 65.0003Z" fill="#29B0BA"/>
<path d="M74.8627 60.1712L74.5088 63.7393L77.8195 64.1222L78.1734 60.5541L74.8627 60.1712Z" fill="#75B12F"/>
<path d="M73.9532 65.666L73.7048 68.1726L76.0325 68.4416L76.2809 65.935L73.9532 65.666Z" fill="#213466"/>
<path d="M79.7743 62.544L79.5273 65.0508L81.8552 65.3182L82.1022 62.8114L79.7743 62.544Z" fill="#B4B1B3"/>
<path d="M104.67 88.9812C104.275 88.7401 103.554 88.3338 102.559 87.9963C101.124 87.5003 99.1209 87.1284 96.748 87.5348C95.9507 87.6725 95.1087 87.8998 94.2348 88.2373C94.1519 88.2718 94.069 88.2993 93.986 88.3338C93.5395 88.5128 93.0994 88.7333 92.6529 88.9743C92.2702 89.181 91.8938 89.4083 91.5175 89.6562C90.6563 90.2141 89.808 90.8478 88.9851 91.5366C88.0474 85.4133 88.5067 79.7309 88.7236 76.9413C88.7236 76.9276 88.7427 76.9207 88.7555 76.9276C90.7648 78.2913 90.2034 82.1003 89.7761 83.1955C89.7697 83.2161 89.7952 83.2299 89.8143 83.2161C92.3148 80.0271 91.0965 76.5005 90.5798 75.612C90.567 75.5913 90.5925 75.5707 90.6117 75.5844C90.9753 75.9013 91.2687 76.2388 91.5175 76.5832C92.2893 77.6508 92.5763 78.801 92.6529 79.8204C92.6912 80.3577 92.6784 80.8536 92.6529 81.2807C92.6465 81.3977 92.6401 81.5011 92.6274 81.6044C92.6274 81.6182 92.6401 81.625 92.6529 81.6181C92.6593 81.6181 92.6656 81.6182 92.6656 81.6113C93.3418 80.1786 93.6671 78.0158 92.6529 75.915C92.3786 75.3434 92.0086 74.7786 91.5175 74.2344C91.3771 74.076 91.224 73.9245 91.0646 73.7661C91.0518 73.7523 91.0646 73.7247 91.0837 73.7316C91.2368 73.7729 91.3771 73.8211 91.5175 73.8694C91.9448 74.0278 92.3212 74.2482 92.6529 74.5168C93.412 75.1229 93.9286 75.9495 94.2348 76.8173C94.49 77.5337 94.6048 78.2707 94.6048 78.925C94.6048 78.9526 94.6367 78.9526 94.6431 78.9319C95.1151 77.0653 94.828 75.6533 94.2348 74.627C93.8138 73.89 93.2334 73.3528 92.6529 72.9739C92.2574 72.7191 91.8619 72.54 91.5175 72.4298C91.3133 72.3609 91.1347 72.3196 90.9753 72.2989C90.9498 72.2989 90.9561 72.2576 90.9816 72.2576C91.1666 72.237 91.3452 72.2301 91.5175 72.2232C91.9385 72.2163 92.3148 72.2576 92.6529 72.3196C93.3227 72.4574 93.8457 72.7053 94.2348 72.9946C94.8727 73.4561 95.1916 74.0002 95.3001 74.2206C95.3064 74.2413 95.3383 74.2275 95.3383 74.2069C95.249 73.2219 94.828 72.4505 94.2412 71.8995C93.7883 71.4724 93.2333 71.1762 92.6592 70.9971C92.2829 70.8869 91.9002 70.825 91.5238 70.8181C91.0135 70.8112 90.5224 70.9007 90.1077 71.0936C90.0886 71.1005 90.0759 71.0798 90.0822 71.0591C90.4522 70.4874 90.9753 70.1431 91.5238 69.9571C91.9066 69.8331 92.2957 69.7849 92.6592 69.8124C93.0101 69.8331 93.329 69.9158 93.5906 70.0466C93.6097 70.0535 93.6225 70.0329 93.6097 70.0122C93.3227 69.6609 92.9973 69.3854 92.6592 69.1788C92.2957 68.9584 91.9129 68.8275 91.5238 68.7793C90.5096 68.6553 89.4763 69.1237 88.7874 70.2464C88.781 70.2602 88.7618 70.2602 88.7555 70.2464C88.6215 69.9915 88.4939 69.7091 88.3791 69.413C88.1048 68.7242 87.8816 67.9527 87.7604 67.1813C87.754 67.1538 87.7285 67.1538 87.7285 67.1813C87.6073 67.9527 87.3776 68.7311 87.1034 69.4198C86.9822 69.716 86.861 69.9915 86.727 70.2395C86.7206 70.2533 86.7015 70.2533 86.6951 70.2395C85.4959 68.2765 83.2442 68.3178 81.8728 70.0122C81.86 70.026 81.8728 70.0535 81.8919 70.0466C82.8041 69.5783 84.5327 69.716 85.4002 71.0591C85.413 71.0798 85.3939 71.1005 85.3747 71.0936C84.0416 70.4875 81.9748 70.8801 80.8713 72.2989C80.4758 72.8018 80.2079 73.4423 80.1377 74.2069C80.1377 74.2275 80.1633 74.2413 80.176 74.2206C80.2589 74.0485 80.4758 73.6765 80.8713 73.2977C81.5156 72.6847 82.6382 72.0648 84.4944 72.2507C84.52 72.2576 84.52 72.2921 84.5008 72.2921C83.5504 72.416 81.5921 73.3321 80.8713 75.426C80.5524 76.349 80.4694 77.5061 80.8267 78.925C80.833 78.9457 80.8649 78.9457 80.8649 78.9181C80.8649 78.8837 80.8649 78.8561 80.8713 78.8217C80.8904 76.9207 81.8983 74.3722 84.3924 73.7247C84.4115 73.7178 84.4243 73.7454 84.4115 73.7592C81.624 76.4041 81.8983 79.6689 82.8105 81.5975C82.8232 81.6181 82.8487 81.6113 82.8487 81.5906C82.7275 80.1304 82.6318 77.5337 84.8644 75.5707C84.8835 75.5569 84.9091 75.5775 84.8963 75.5982C84.3796 76.4936 83.1613 80.0133 85.6618 83.2023C85.6745 83.223 85.7064 83.2092 85.7 83.1817C85.279 82.0934 84.7177 78.2776 86.7206 76.9138C86.7334 76.9069 86.7525 76.9138 86.7525 76.9276C86.9694 79.7171 87.4287 85.3996 86.491 91.5228C84.8772 90.1866 83.174 89.0157 81.49 88.3269C81.2795 88.2442 81.0754 88.1685 80.8777 88.0927C79.1363 87.4728 77.5416 87.3006 76.151 87.3695C73.9185 87.4728 72.209 88.196 71.2713 88.6988C71.0799 88.8021 70.9204 88.8986 70.7992 88.9743C70.7482 89.0088 70.7865 89.0845 70.8375 89.0639C70.9842 89.0157 71.1246 88.9674 71.2713 88.9261C72.9872 88.4026 74.6137 88.2649 76.151 88.4095C77.8286 88.5679 79.4042 89.0639 80.8777 89.7802C82.9444 90.7858 84.8134 92.2185 86.5037 93.7338C84.1181 95.9792 82.1024 98.1627 80.8777 98.9272C80.8139 98.9617 80.7565 99.003 80.6991 99.0374C80.4057 98.6035 79.8954 98.3555 79.3404 98.4864C78.8556 98.6035 78.4601 99.0236 78.3517 99.5402C78.256 100.002 78.3645 100.505 78.6069 100.766C79.2575 101.469 80.0102 101.517 80.8777 101.124C82.5298 100.374 84.5837 98.018 87.1034 95.5246C87.3139 95.318 87.5244 95.1045 87.7412 94.8978C87.9581 95.1045 88.1686 95.3111 88.3791 95.5177C89.5209 96.6474 90.567 97.7494 91.5238 98.6861C91.9193 99.0719 92.2957 99.43 92.6592 99.7469C93.2206 100.243 93.75 100.649 94.2412 100.932C95.2044 101.483 96.04 101.551 96.7544 100.87C96.7927 100.835 96.831 100.801 96.8692 100.759C97.0351 100.58 97.2264 99.9948 97.1244 99.5333C97.067 99.2647 96.933 99.0236 96.748 98.8377C96.5822 98.6655 96.3653 98.5346 96.1357 98.4795C95.5807 98.3486 95.0704 98.5966 94.777 99.0305C94.6112 98.941 94.4325 98.817 94.2348 98.6724C93.7819 98.3349 93.2525 97.8596 92.6529 97.2948C92.2957 96.9573 91.9193 96.5854 91.5175 96.1928C90.7393 95.4282 89.8845 94.5879 88.9787 93.7269C89.7824 93.0037 90.6308 92.3011 91.5175 91.6537C91.8874 91.3851 92.2638 91.1233 92.6529 90.8754C93.1696 90.5447 93.6926 90.2417 94.2348 89.9593C95.0449 89.5391 95.8805 89.1879 96.748 88.9192C98.5468 88.3613 100.48 88.1753 102.559 88.5335C103.235 88.6506 103.924 88.8228 104.632 89.057C104.683 89.0914 104.721 89.0157 104.67 88.9812Z" fill="#757A81"/>
<path d="M14.5257 151.53H12.9565V153.224H14.5257V151.53Z" fill="#AFACAD"/>
<path d="M118.608 149.573V138.387H117.077V147.92H111.304V138.387H109.773V147.92H103.694V138.387H101.29C100.333 138.387 99.4652 138.525 98.687 138.808C97.9088 139.09 97.2454 139.483 96.6968 139.979C96.1483 140.481 95.7273 141.074 95.4275 141.762C95.1277 142.451 94.981 143.188 94.981 143.987C94.981 144.965 95.1532 145.799 95.4976 146.501C95.8421 147.204 96.3014 147.776 96.8754 148.23C97.4495 148.685 98.1193 149.022 98.8848 149.236C99.6502 149.456 100.454 149.566 101.296 149.566L118.608 149.573ZM99.0442 147.658C98.5403 147.479 98.1002 147.225 97.7238 146.887C97.3475 146.55 97.0541 146.136 96.8372 145.654C96.6203 145.165 96.5119 144.614 96.5119 143.994C96.5119 143.402 96.6331 142.865 96.8691 142.375C97.1051 141.886 97.4176 141.473 97.8067 141.122C98.1958 140.771 98.636 140.502 99.1335 140.316C99.6311 140.13 100.141 140.041 100.664 140.041H102.176V147.927H100.664C100.09 147.927 99.5481 147.838 99.0442 147.658Z" fill="#AFACAD"/>
<path d="M87.435 134.792H85.9041V149.573H87.435V134.792Z" fill="#AFACAD"/>
<path d="M103.694 134.792H102.125V136.486H103.694V134.792Z" fill="#AFACAD"/>
<path d="M118.627 151.509H117.058V153.203H118.627V151.509Z" fill="#AFACAD"/>
<path d="M17.2049 151.53H15.6357V153.224H17.2049V151.53Z" fill="#AFACAD"/>
<path d="M79.9209 147.927H77.4204C76.5274 147.927 75.8257 147.789 75.3154 147.514C74.8051 147.238 74.4032 146.825 74.1098 146.281C74.1991 145.854 74.2438 145.337 74.2438 144.738V139.421H72.7129V145C72.7129 145.95 72.4769 146.708 72.0048 147.28C71.5328 147.851 70.8184 148.134 69.8616 148.134C69.4151 148.134 69.0068 148.058 68.6368 147.906C68.2669 147.755 67.9479 147.548 67.68 147.287C67.4121 147.025 67.2016 146.722 67.0485 146.37C66.8954 146.019 66.8125 145.647 66.7998 145.248V139.421H65.2689V145.124C65.2689 145.633 65.1987 146.061 65.0584 146.412C64.918 146.763 64.7267 147.052 64.4843 147.28C64.2419 147.507 63.9676 147.672 63.6614 147.776C63.3552 147.879 63.0299 147.927 62.6855 147.927H59.7257V139.421H58.1948V147.927H50.1831L52.8558 141.026C52.4475 140.64 52.0138 140.282 51.5545 139.944C51.0953 139.607 50.6232 139.31 50.1384 139.056C49.6537 138.801 49.1625 138.601 48.6649 138.456C48.1674 138.312 47.6762 138.243 47.1915 138.243C46.6939 138.243 46.1964 138.319 45.6988 138.456C45.2013 138.601 44.7101 138.794 44.219 139.042C43.7278 139.29 43.2558 139.586 42.8029 139.93C42.35 140.275 41.929 140.633 41.5335 141.019L44.2253 147.92H38.931V138.387H36.4879C35.5438 138.387 34.6827 138.532 33.9045 138.821C33.1263 139.111 32.4629 139.503 31.9079 140.006C31.353 140.509 30.9256 141.108 30.6194 141.797C30.3132 142.493 30.1602 143.243 30.1602 144.056C30.1602 145.034 30.326 145.868 30.6641 146.556C31.0022 147.252 31.4614 147.824 32.0419 148.265C32.6224 148.712 33.2921 149.043 34.0576 149.25C34.823 149.463 35.6331 149.566 36.4879 149.566H37.4064V150.042C37.4064 150.91 37.1768 151.523 36.7175 151.894C36.2583 152.266 35.614 152.452 34.7848 152.452C34.3127 152.452 33.8917 152.404 33.5154 152.308C33.139 152.211 32.7117 152.046 32.2269 151.812L31.7485 153.396C32.3353 153.63 32.852 153.802 33.3049 153.919C33.7578 154.037 34.2107 154.099 34.6699 154.099C36.1626 154.099 37.2406 153.72 37.9167 152.955C38.5929 152.191 38.931 151.164 38.931 149.876V149.566H62.6855C63.4254 149.566 64.0824 149.394 64.6629 149.05C65.2433 148.705 65.709 148.244 66.0662 147.672C66.4362 148.333 66.9401 148.85 67.578 149.215C68.2158 149.587 68.9749 149.773 69.8552 149.773C70.7737 149.773 71.5519 149.601 72.1962 149.256C72.8405 148.912 73.3316 148.389 73.6761 147.672C73.8036 147.906 73.9567 148.134 74.1417 148.361C74.3267 148.588 74.5627 148.788 74.8561 148.967C75.1496 149.146 75.5068 149.291 75.915 149.401C76.2276 149.484 76.6039 149.525 77.0122 149.546V149.566H81.4263V134.785H79.8954V147.927H79.9209ZM37.4128 147.927H35.8628C35.2887 147.927 34.7529 147.844 34.2489 147.672C33.745 147.5 33.3049 147.252 32.9222 146.921C32.5394 146.591 32.2396 146.184 32.0228 145.709C31.8059 145.227 31.6974 144.676 31.6974 144.063C31.6974 143.471 31.8123 142.933 32.0483 142.438C32.2843 141.942 32.5968 141.521 32.986 141.17C33.3751 140.819 33.8152 140.55 34.3127 140.357C34.8103 140.165 35.327 140.068 35.8628 140.068H37.4128V147.927ZM45.8455 147.927L43.4599 141.604C44.0467 141.067 44.6463 140.674 45.2651 140.433C45.8838 140.185 46.5281 140.061 47.2042 140.061C47.8931 140.061 48.5756 140.206 49.2518 140.502C49.9279 140.798 50.502 141.163 50.9741 141.604L48.5884 147.927H45.8455Z" fill="#AFACAD"/>
<path d="M9.29525 134.792H7.72607V136.486H9.29525V134.792Z" fill="#AFACAD"/>
<path d="M163.935 134.792H162.366V136.486H163.935V134.792Z" fill="#AFACAD"/>
<path d="M150.355 134.792H148.824V149.573H150.355V134.792Z" fill="#AFACAD"/>
<path d="M101.015 134.792H99.446V136.486H101.015V134.792Z" fill="#AFACAD"/>
<path d="M27.7426 143.092C27.7426 142.444 27.666 141.845 27.5002 141.28C27.3407 140.715 27.0983 140.24 26.7666 139.841C26.3584 139.359 25.9055 139 25.4016 138.759C24.8977 138.518 24.2853 138.401 23.5581 138.401H22.4291V140.047H23.7686C24.1386 140.047 24.4894 140.137 24.8211 140.302C25.1528 140.474 25.4271 140.695 25.644 140.97C25.8609 141.26 26.0076 141.576 26.0905 141.921C26.1734 142.265 26.2181 142.678 26.2181 143.154V147.934H19.0483V149.58H27.7426V143.092Z" fill="#AFACAD"/>
<path d="M231.238 134.792H229.707V149.573H231.238V134.792Z" fill="#AFACAD"/>
<path d="M166.615 134.792H165.045V136.486H166.615V134.792Z" fill="#AFACAD"/>
<path d="M225.254 134.792H223.724V147.927H218.467C218.786 147.169 218.946 146.364 218.946 145.496C218.946 144.648 218.799 143.849 218.518 143.119C218.231 142.382 217.842 141.749 217.345 141.218C216.847 140.681 216.26 140.261 215.578 139.951C214.895 139.641 214.162 139.489 213.371 139.489C212.605 139.489 211.891 139.648 211.228 139.965C210.564 140.282 209.99 140.709 209.499 141.253C209.008 141.797 208.625 142.431 208.344 143.161C208.064 143.891 207.923 144.669 207.923 145.509C207.923 145.95 207.968 146.37 208.051 146.777C208.134 147.183 208.242 147.569 208.383 147.941H203.643C203.962 147.183 204.122 146.377 204.122 145.509C204.122 144.662 203.975 143.863 203.694 143.133C203.407 142.396 203.018 141.762 202.521 141.232C202.023 140.695 201.436 140.275 200.754 139.965C200.071 139.655 199.338 139.503 198.547 139.503C197.781 139.503 197.073 139.662 196.41 139.979C195.746 140.295 195.172 140.722 194.681 141.267C194.19 141.811 193.807 142.444 193.526 143.174C193.246 143.905 193.105 144.683 193.105 145.523C193.105 145.964 193.15 146.384 193.233 146.791C193.316 147.197 193.424 147.583 193.565 147.955H188.711V134.82H187.18V147.955H182.306V145.434C182.306 144.8 182.23 144.201 182.077 143.629C181.924 143.057 181.681 142.575 181.349 142.176C180.954 141.694 180.507 141.335 180.01 141.101C179.512 140.867 178.881 140.75 178.115 140.75H171.348L174.224 134.813H172.559L169.625 140.729C169.676 141.087 169.753 141.397 169.868 141.659C169.976 141.921 170.123 142.169 170.314 142.403H178.109C178.594 142.403 179.008 142.479 179.359 142.644C179.71 142.803 179.991 143.016 180.208 143.292C180.424 143.567 180.571 143.884 180.648 144.242C180.724 144.6 180.763 145 180.763 145.434V147.955H166.621V138.422H164.21C163.253 138.422 162.385 138.56 161.614 138.842C160.835 139.124 160.172 139.517 159.623 140.013C159.075 140.516 158.654 141.108 158.354 141.797C158.054 142.486 157.907 143.223 157.907 144.022C157.907 145 158.08 145.833 158.424 146.536C158.769 147.238 159.228 147.81 159.802 148.265C160.376 148.719 161.046 149.057 161.811 149.27C162.577 149.491 163.38 149.601 164.216 149.601H194.547C195.045 150.179 195.631 150.634 196.314 150.971C196.997 151.309 197.736 151.474 198.54 151.474C199.357 151.474 200.116 151.309 200.824 150.978C201.532 150.648 202.138 150.186 202.648 149.601H209.378C209.875 150.179 210.462 150.634 211.145 150.971C211.827 151.309 212.567 151.474 213.371 151.474C214.187 151.474 214.946 151.309 215.654 150.978C216.362 150.648 216.968 150.186 217.479 149.601H225.254V134.792ZM165.09 147.927H163.578C163.004 147.927 162.468 147.838 161.964 147.658C161.46 147.479 161.02 147.224 160.644 146.887C160.268 146.549 159.974 146.136 159.757 145.654C159.54 145.165 159.432 144.614 159.432 143.994C159.432 143.402 159.547 142.865 159.783 142.375C160.019 141.886 160.331 141.473 160.721 141.122C161.11 140.771 161.55 140.502 162.047 140.316C162.545 140.13 163.055 140.041 163.578 140.041H165.09V147.927ZM202.272 147.197C202.061 147.727 201.774 148.182 201.411 148.568C201.047 148.953 200.62 149.25 200.128 149.463C199.637 149.677 199.108 149.78 198.534 149.78C197.972 149.78 197.456 149.663 196.977 149.442C196.499 149.215 196.084 148.905 195.734 148.513C195.383 148.12 195.108 147.665 194.911 147.142C194.713 146.618 194.617 146.06 194.617 145.475C194.617 144.883 194.719 144.325 194.911 143.794C195.108 143.264 195.383 142.809 195.727 142.417C196.072 142.024 196.48 141.714 196.958 141.48C197.437 141.246 197.96 141.129 198.534 141.129C199.121 141.129 199.656 141.239 200.148 141.459C200.639 141.68 201.066 141.983 201.43 142.369C201.793 142.754 202.074 143.209 202.278 143.739C202.482 144.27 202.584 144.848 202.584 145.482C202.591 146.095 202.482 146.667 202.272 147.197ZM217.102 147.197C216.892 147.727 216.605 148.182 216.241 148.568C215.878 148.953 215.45 149.25 214.959 149.463C214.468 149.677 213.939 149.78 213.364 149.78C212.803 149.78 212.286 149.663 211.808 149.442C211.33 149.215 210.915 148.905 210.564 148.513C210.213 148.12 209.939 147.665 209.741 147.142C209.544 146.618 209.441 146.06 209.441 145.475C209.441 144.883 209.544 144.325 209.741 143.794C209.939 143.264 210.207 142.809 210.551 142.417C210.896 142.024 211.304 141.714 211.782 141.48C212.261 141.246 212.784 141.129 213.358 141.129C213.945 141.129 214.481 141.239 214.972 141.459C215.463 141.68 215.89 141.983 216.254 142.369C216.618 142.754 216.898 143.209 217.102 143.739C217.306 144.27 217.409 144.848 217.409 145.482C217.421 146.095 217.313 146.667 217.102 147.197Z" fill="#AFACAD"/>
<path d="M4.48559 149.243C5.25104 149.463 6.05476 149.573 6.89038 149.573H16.905V138.387H15.3741V147.92H9.29518V138.387H6.88401C5.92719 138.387 5.06605 138.525 4.28785 138.808C3.50964 139.09 2.84625 139.483 2.29768 139.979C1.7491 140.481 1.3281 141.074 1.0283 141.762C0.728497 142.451 0.581787 143.188 0.581787 143.987C0.581787 144.965 0.754012 145.799 1.09847 146.501C1.44292 147.204 1.90219 147.776 2.47628 148.23C3.05037 148.692 3.72014 149.029 4.48559 149.243ZM2.11269 143.994C2.11269 143.402 2.23389 142.865 2.4699 142.375C2.70591 141.886 3.01847 141.473 3.40758 141.122C3.79668 140.771 4.23682 140.502 4.73436 140.316C5.23191 140.13 5.74221 140.041 6.26527 140.041H7.77703V147.927H6.26527C5.69118 147.927 5.15536 147.838 4.65144 147.658C4.14751 147.479 3.70738 147.225 3.33103 146.887C2.95468 146.55 2.66126 146.136 2.44438 145.654C2.22113 145.165 2.11269 144.614 2.11269 143.994Z" fill="#AFACAD"/>
<path d="M113.039 151.53H111.47V153.224H113.039V151.53Z" fill="#AFACAD"/>
<path d="M110.36 151.53H108.791V153.224H110.36V151.53Z" fill="#AFACAD"/>
<path d="M124.559 151.667C124.655 151.151 124.706 150.572 124.706 149.925V149.573H144.372V134.792H142.841V147.927H136.341L139.014 141.025C138.605 140.64 138.172 140.282 137.712 139.944C137.253 139.607 136.781 139.31 136.296 139.056C135.811 138.801 135.32 138.601 134.823 138.456C134.325 138.312 133.834 138.243 133.349 138.243C132.852 138.243 132.354 138.319 131.857 138.456C131.359 138.601 130.868 138.794 130.377 139.042C129.885 139.29 129.413 139.586 128.961 139.93C128.508 140.275 128.087 140.633 127.691 141.019L130.383 147.92H124.687V138.387H123.156V149.925C123.156 150.393 123.137 150.785 123.092 151.109C123.047 151.433 122.971 151.695 122.862 151.894C122.754 152.094 122.607 152.239 122.422 152.328C122.237 152.418 122.001 152.466 121.708 152.466C121.568 152.466 121.446 152.459 121.344 152.445C121.242 152.432 121.102 152.397 120.923 152.342L120.521 153.926C120.942 154.05 121.357 154.112 121.765 154.112C122.314 154.112 122.773 154.016 123.15 153.823C123.526 153.63 123.826 153.355 124.055 152.99C124.304 152.625 124.464 152.184 124.559 151.667ZM129.618 141.604C130.204 141.067 130.804 140.674 131.423 140.433C132.042 140.185 132.686 140.061 133.362 140.061C134.051 140.061 134.733 140.206 135.41 140.502C136.086 140.798 136.66 141.163 137.132 141.604L134.746 147.927H132.016L129.618 141.604Z" fill="#AFACAD"/>
<path d="M6.61605 134.792H5.04688V136.486H6.61605V134.792Z" fill="#AFACAD"/>
<path d="M11.5533 160.401H9.19951L4.00082 166.324V160.401H2.08081V172.172H4.00082V168.763L5.70395 166.875L9.42914 172.172H11.7574L7.0116 165.463L11.5533 160.401Z" fill="#AFACAD"/>
<path d="M15.4254 160.401H13.5054V172.172H15.4254V160.401Z" fill="#AFACAD"/>
<path d="M26.0077 168.542L20.1583 160.401H18.3787V172.172H20.2668V163.797L26.2883 172.172H27.8958V160.401H26.0077V168.542Z" fill="#AFACAD"/>
<path d="M35.8436 167.399H38.6375V169.603C37.9677 170.14 37.03 170.492 36.003 170.492C33.7705 170.492 32.2906 168.708 32.2906 166.29V166.256C32.2906 164.003 33.8151 162.102 35.8308 162.102C37.2214 162.102 38.0442 162.591 38.8862 163.363L40.1046 161.799C38.9819 160.773 37.8082 160.201 35.9074 160.201C32.6159 160.201 30.2749 162.991 30.2749 166.29V166.324C30.2749 169.755 32.5202 172.379 35.9392 172.379C37.872 172.379 39.422 171.539 40.4937 170.547V165.601H35.8436V167.399Z" fill="#AFACAD"/>
<path d="M47.2105 160.401H43.1409V172.172H47.2105C50.6423 172.172 53.0152 169.603 53.0152 166.283V166.249C53.0152 162.942 50.6423 160.401 47.2105 160.401ZM51.0059 166.324C51.0059 168.625 49.5069 170.292 47.2169 170.292H45.0673V162.288H47.2169C49.5133 162.288 51.0059 163.989 51.0059 166.29V166.324Z" fill="#AFACAD"/>
<path d="M60.5423 160.201C57.1871 160.201 54.8206 162.977 54.8206 166.29V166.324C54.8206 169.637 57.1616 172.379 60.5168 172.379C63.872 172.379 66.2449 169.603 66.2449 166.29V166.256C66.2322 162.943 63.8912 160.201 60.5423 160.201ZM64.2229 166.324C64.2229 168.611 62.7111 170.478 60.5423 170.478C58.3735 170.478 56.8299 168.577 56.8299 166.29V166.256C56.8299 163.969 58.3416 162.102 60.5104 162.102C62.6792 162.102 64.2229 164.003 64.2229 166.29V166.324Z" fill="#AFACAD"/>
<path d="M73.9822 165.966L70.6589 160.401H68.6177V172.172H70.5058V163.769L73.9248 169.279H73.9822L77.4331 163.735V172.172H79.3531V160.401H77.3055L73.9822 165.966Z" fill="#AFACAD"/>
<path d="M92.085 160.201C88.7298 160.201 86.3633 162.977 86.3633 166.29V166.324C86.3633 169.637 88.7043 172.379 92.0595 172.379C95.4147 172.379 97.7876 169.603 97.7876 166.29V166.256C97.7813 162.943 95.4403 160.201 92.085 160.201ZM95.7656 166.324C95.7656 168.611 94.2538 170.478 92.085 170.478C89.9163 170.478 88.3726 168.577 88.3726 166.29V166.256C88.3726 163.969 89.8844 162.102 92.0531 162.102C94.2219 162.102 95.7656 164.003 95.7656 166.29V166.324Z" fill="#AFACAD"/>
<path d="M100.167 172.172H102.087V167.378H107.592V165.498H102.087V162.288H108.294V160.401H100.167V172.172Z" fill="#AFACAD"/>
<path d="M119.297 165.346C117.205 164.809 116.707 164.403 116.707 163.5V163.466C116.707 162.695 117.364 162.068 118.487 162.068C119.488 162.068 120.471 162.488 121.453 163.28L122.48 161.716C121.37 160.759 120.107 160.236 118.519 160.236C116.35 160.236 114.787 161.634 114.787 163.645V163.679C114.787 165.849 116.101 166.586 118.423 167.192C120.451 167.695 120.885 168.15 120.885 168.99V169.031C120.885 169.927 120.139 170.512 118.952 170.512C117.594 170.512 116.548 169.954 115.501 168.983L114.347 170.464C115.661 171.724 117.23 172.344 118.901 172.344C121.198 172.344 122.799 171.036 122.799 168.832V168.797C122.805 166.841 121.606 165.952 119.297 165.346Z" fill="#AFACAD"/>
<path d="M128.687 160.318L123.883 172.172H125.848L126.971 169.327H132.137L133.247 172.172H135.276L130.473 160.318H128.687ZM127.672 167.502L129.548 162.791L131.436 167.502H127.672Z" fill="#AFACAD"/>
<path d="M143.823 167.178C143.823 169.348 142.777 170.457 141.074 170.457C139.358 170.457 138.312 169.279 138.312 167.096V160.401H136.392V167.178C136.392 170.588 138.204 172.358 141.042 172.358C143.9 172.358 145.737 170.595 145.737 167.082V160.408H143.817V167.178H143.823Z" fill="#AFACAD"/>
<path d="M152.626 160.401H148.556V172.172H152.626C156.058 172.172 158.43 169.603 158.43 166.283V166.249C158.43 162.942 156.058 160.401 152.626 160.401ZM156.415 166.324C156.415 168.625 154.916 170.292 152.626 170.292H150.476V162.288H152.626C154.922 162.288 156.415 163.989 156.415 166.29V166.324Z" fill="#AFACAD"/>
<path d="M162.781 160.401H160.861V172.172H162.781V160.401Z" fill="#AFACAD"/>
<path d="M174.243 160.318L169.44 172.172H171.405L172.528 169.327H177.694L178.804 172.172H180.833L176.029 160.318H174.243ZM173.229 167.502L175.105 162.791L176.993 167.502H173.229Z" fill="#AFACAD"/>
<path d="M191.568 164.155V164.12C191.568 163.094 191.243 162.219 190.662 161.579C189.961 160.842 188.883 160.401 187.511 160.401H182.644V172.172H184.564V168.067H186.937H186.969L189.655 172.172H191.919L188.972 167.716C190.49 167.247 191.568 166.083 191.568 164.155ZM184.564 166.235V162.281H187.358C188.781 162.281 189.623 162.97 189.623 164.23V164.265C189.623 165.457 188.749 166.235 187.377 166.235H184.564Z" fill="#AFACAD"/>
<path d="M198.125 160.318L193.322 172.172H195.287L196.41 169.327H201.576L202.686 172.172H204.715L199.912 160.318H198.125ZM197.111 167.502L198.987 162.791L200.875 167.502H197.111Z" fill="#AFACAD"/>
<path d="M213.447 166.056C214.257 165.601 215.01 164.844 215.01 163.432V163.397C215.01 162.605 214.761 161.971 214.277 161.448C213.651 160.773 212.669 160.408 211.419 160.408H206.52V172.179H211.572C214.009 172.179 215.61 171.057 215.61 168.949V168.914C215.616 167.316 214.729 166.524 213.447 166.056ZM208.408 162.233H211.17C212.401 162.233 213.09 162.805 213.09 163.728V163.762C213.09 164.837 212.261 165.36 211.03 165.36H208.408V162.233ZM213.696 168.728C213.696 169.789 212.899 170.34 211.591 170.34H208.408V167.11H211.451C212.963 167.11 213.696 167.702 213.696 168.694V168.728Z" fill="#AFACAD"/>
<path d="M219.916 160.401H217.996V172.172H219.916V160.401Z" fill="#AFACAD"/>
<path d="M228.329 160.318H226.549L221.746 172.172H223.711L224.833 169.327H230L231.11 172.172H233.139L228.329 160.318ZM225.535 167.502L227.41 162.791L229.299 167.502H225.535Z" fill="#AFACAD"/>
</svg>
