<svg width="24" height="24" viewBox="0 0 24 24" fill="none" xmlns="http://www.w3.org/2000/svg">
<path d="M6.5 5.0127C6.81407 5.0127 7.09925 5.10332 7.35547 5.28516C7.61153 5.46691 7.78854 5.70656 7.8877 6.00391H7.88867L9.9873 12V20C9.9873 20.2802 9.89331 20.5149 9.7041 20.7041C9.51489 20.8933 9.28019 20.9873 9 20.9873H8C7.71981 20.9873 7.48511 20.8933 7.2959 20.7041C7.10669 20.5149 7.0127 20.2802 7.0127 20V18.9873H2.0127V17.0127H8.0127V11.9873H2.0127V10.0127H7.21777L7.21191 9.99609L6.16211 6.99609L6.15918 6.9873H2.0127V5.0127H6.5ZM17 2.0127C18.5634 2.0127 19.8641 2.55303 20.9033 3.63379C21.9428 4.71486 22.4629 5.98685 22.4629 7.4502C22.4629 7.68282 22.4463 7.90714 22.4131 8.12305C22.3798 8.33928 22.338 8.56395 22.2881 8.79688L20.9902 13.9873H17.9873V20.9873H16.0127V13.9873H13.0098L11.7119 8.79688C11.662 8.56395 11.6202 8.33928 11.5869 8.12305C11.5537 7.90714 11.5371 7.68282 11.5371 7.4502C11.5371 5.98685 12.0572 4.71486 13.0967 3.63379C14.1359 2.55303 15.4366 2.0127 17 2.0127ZM5.5 13.0127C5.91339 13.0127 6.26442 13.157 6.55371 13.4463C6.84301 13.7356 6.9873 14.0866 6.9873 14.5C6.9873 14.9134 6.84301 15.2644 6.55371 15.5537C6.26442 15.843 5.91339 15.9873 5.5 15.9873C5.08661 15.9873 4.73558 15.843 4.44629 15.5537C4.15699 15.2644 4.0127 14.9134 4.0127 14.5C4.0127 14.0866 4.15699 13.7356 4.44629 13.4463C4.73558 13.157 5.08661 13.0127 5.5 13.0127ZM17 3.9873C16.0134 3.9873 15.1847 4.33078 14.5156 5.0166C13.847 5.70213 13.5127 6.51369 13.5127 7.4502C13.5127 7.5842 13.5247 7.7265 13.5498 7.87695C13.5748 8.02713 13.6043 8.16914 13.6377 8.30273L14.5381 12.0029L14.54 12.0127H19.46L19.4619 12.0029L20.3623 8.30273C20.3957 8.1692 20.4252 8.03148 20.4502 7.88965C20.4753 7.74735 20.4873 7.6087 20.4873 7.47461C20.4872 6.5383 20.1528 5.72303 19.4844 5.0293C18.8153 4.33512 17.9866 3.9873 17 3.9873ZM18.9873 9.0127V10.4873H15.0127V9.0127H18.9873ZM17 5.2627C17.6301 5.2627 18.1599 5.47828 18.5908 5.90918C19.0188 6.33718 19.2334 6.86274 19.2363 7.4873H17.7617C17.7586 7.28906 17.6832 7.11483 17.5342 6.96582C17.382 6.81363 17.2035 6.7373 17 6.7373C16.7965 6.7373 16.618 6.81363 16.4658 6.96582C16.3168 7.11483 16.2414 7.28906 16.2383 7.4873H14.7637C14.7666 6.86274 14.9812 6.33718 15.4092 5.90918C15.8401 5.47828 16.3699 5.2627 17 5.2627Z" fill="#7DDB8A" stroke="#7DDB8A" stroke-width="0.025"/>
</svg>
