<svg width="24" height="24" viewBox="0 0 24 24" fill="none" xmlns="http://www.w3.org/2000/svg">
<path d="M12 2.0127C13.3817 2.0127 14.6805 2.27453 15.8955 2.79883C17.1106 3.32321 18.1677 4.03484 19.0664 4.93359C19.9652 5.83235 20.6768 6.88936 21.2012 8.10449C21.7255 9.31953 21.9873 10.6183 21.9873 12C21.9873 13.3817 21.7255 14.6805 21.2012 15.8955C20.6768 17.1106 19.9652 18.1677 19.0664 19.0664C18.1677 19.9652 17.1106 20.6768 15.8955 21.2012C14.6805 21.7255 13.3817 21.9873 12 21.9873C10.6183 21.9873 9.31953 21.7255 8.10449 21.2012C6.88936 20.6768 5.83235 19.9652 4.93359 19.0664C4.03484 18.1677 3.32321 17.1106 2.79883 15.8955C2.27453 14.6805 2.0127 13.3817 2.0127 12C2.0127 10.6183 2.27453 9.31953 2.79883 8.10449C3.32321 6.88936 4.03484 5.83235 4.93359 4.93359C5.83235 4.03484 6.88936 3.32321 8.10449 2.79883C9.31953 2.27453 10.6183 2.0127 12 2.0127ZM9.43945 16.9932L8.78906 18.0928L8.78125 18.0889L8.78906 18.1055L9.4873 19.6045L9.4834 19.6074L9.49609 19.6123C9.89656 19.7458 10.3055 19.8453 10.7227 19.9121C11.14 19.9789 11.566 20.0127 12 20.0127C12.434 20.0127 12.86 19.9789 13.2773 19.9121C13.6945 19.8453 14.1034 19.7458 14.5039 19.6123L14.5059 19.6172L14.5117 19.6055L15.2109 18.1055L15.2197 18.1094L15.2109 18.0938L14.5605 16.9932L14.5713 16.9873H9.4502V16.9756L9.43945 16.9932ZM11.9932 8.43945L8.39258 10.9902L8.38477 10.9951L8.3877 11.0039L9.73828 15.0039L9.74121 15.0127H14.2588L14.2617 15.0039L15.6621 11.0039L15.665 10.9951L15.6572 10.9902L12.0068 8.43945L12 8.43457L11.9932 8.43945ZM3.9873 11.6504C3.98734 12.7347 4.13805 13.7232 4.43848 14.6162C4.73904 15.5096 5.23959 16.3737 5.94043 17.208L5.93359 17.2139L5.95117 17.2129L7.10059 17.1123L7.10156 17.1221L7.11133 17.1064L7.86035 15.7559L7.86621 15.7588L7.8623 15.7461L6.41211 11.3965L6.40039 11.4004L6.41895 11.3936L6.4043 11.3887L5.00391 10.8887L5.00781 10.8789L4.99219 10.8896L3.99219 11.6396L4 11.6504L3.9873 11.6338V11.6504ZM12.9873 6.7002H12.9785L12.9932 6.70996L16.9932 9.50977L16.9883 9.51758L17.0039 9.51172L18.3535 9.06152L18.3564 9.07031L18.3623 9.05371L18.7607 7.70312L18.7686 7.70508L18.7607 7.69336C18.2268 6.89239 17.5839 6.20371 16.833 5.62793C16.0819 5.05204 15.2549 4.62166 14.3535 4.33789L14.3564 4.33008L14.3428 4.33984L12.9932 5.29004L13 5.2998L12.9873 5.28223V6.7002ZM20.0068 11.6396L19.0068 10.9395L19.0117 10.9326L18.9961 10.9385L17.5957 11.3867L17.5938 11.3799L17.5879 11.3965L16.1377 15.7451L16.1328 15.7441L16.1387 15.7559L16.8887 17.1064L16.8809 17.1113L16.8984 17.1123L18.0488 17.2129L18.0479 17.2217L18.0596 17.208C18.7604 16.3737 19.261 15.5096 19.5615 14.6162C19.8619 13.7232 20.0127 12.7347 20.0127 11.6504H20.0215L20.0068 11.6396ZM5.23926 7.69238L5.2334 7.68945L5.23828 7.70312L5.6377 9.05371L5.62891 9.05664L5.64648 9.06152L6.99609 9.51172L6.99316 9.51953L7.00684 9.50977L11.0068 6.70996L11.0127 6.71777V5.2998H11.0215L11.0068 5.29004L9.65723 4.33984L9.66211 4.33301L9.64648 4.33789C8.74509 4.62166 7.91815 5.05204 7.16699 5.62793C6.41616 6.20364 5.7732 6.89155 5.23926 7.69238Z" fill="#7DDB8A" stroke="#7DDB8A" stroke-width="0.025"/>
</svg>
