<svg width="24" height="24" viewBox="0 0 24 24" fill="none" xmlns="http://www.w3.org/2000/svg">
<path d="M19.9893 4.99219L19.9727 4.98242L19.9893 5.00684L21.9766 7.9873H14.9873V13.9873H13.0127V2.0127H21.9766L19.9893 4.99219ZM8.9873 5.00684V8.99316L5.5 10.9854L2.0127 8.99316V5.00684L5.5 3.01367L8.9873 5.00684ZM18.0059 12.6396L16.5127 11.7686V9.47168L19.9873 11.5059V18.4932L14 21.9854L8.0127 18.4932V11.5059L11.4873 9.47168V11.7686L9.99414 12.6396L10 12.6504L9.9873 12.6289V17.3496H9.97559L9.99414 17.3604L13.9941 19.6855L13.9873 19.6973L14.0059 19.6855L18.0059 17.3604L18.0127 17.3711V12.6504H18.0244L18.0059 12.6396ZM7.00586 6.13867L5.50586 5.28906L5.51172 5.2793L5.49414 5.28906L3.99414 6.13867L4 6.15039L3.9873 6.12793V7.84961H3.97461L3.99414 7.86133L5.49414 8.71094L5.48828 8.7207L5.50586 8.71094L7.00586 7.86133L7 7.84961L7.0127 7.87207V6.15039H7.02539L7.00586 6.13867Z" fill="#7DDB8A" stroke="#7DDB8A" stroke-width="0.025"/>
</svg>
