<svg width="129" height="51" viewBox="0 0 129 51" fill="none" xmlns="http://www.w3.org/2000/svg">
<path d="M67.3322 16.0168V4.16019H63.1697V1.68799H74.5017V4.16019H70.3391V16.0168H67.3322Z" fill="white"/>
<path d="M75.9856 16.0167V1.68652H78.8927V7.20856H78.9523C79.2308 6.54663 79.6479 6.0381 80.2022 5.68433C80.7564 5.33057 81.4313 5.15369 82.228 5.15369C83.0248 5.15369 83.6719 5.32366 84.2289 5.66498C84.786 6.00631 85.2169 6.48721 85.519 7.11044C85.8211 7.7323 85.9721 8.47437 85.9721 9.33529V16.0181H83.0539V9.93088C83.0539 9.19019 82.8779 8.60841 82.5259 8.18832C82.174 7.76822 81.6654 7.55818 81.0031 7.55818C80.5777 7.55818 80.2077 7.65905 79.8932 7.86081C79.5772 8.06257 79.332 8.34033 79.156 8.69547C78.98 9.04924 78.8927 9.45828 78.8927 9.92121V16.0181H75.9856V16.0167Z" fill="white"/>
<path d="M97.6645 10.4851C97.6645 9.41271 97.458 8.47579 97.0423 7.67429C96.6266 6.87418 96.0391 6.25233 95.2797 5.81289C94.519 5.37206 93.6197 5.15234 92.5763 5.15234C91.5329 5.15234 90.6308 5.37898 89.8631 5.83224C89.0969 6.28688 88.501 6.92807 88.0756 7.75997C87.6516 8.59049 87.4382 9.57301 87.4382 10.7034V10.7131C87.4382 11.8462 87.6516 12.8246 88.0756 13.6524C88.501 14.4801 89.1052 15.1172 89.8881 15.5635C90.671 16.0099 91.6063 16.2351 92.6968 16.2351C93.4603 16.2351 94.1255 16.137 94.6936 15.9366C95.2617 15.7376 95.7425 15.4737 96.1375 15.142C96.5324 14.8118 96.8455 14.4469 97.0797 14.049C97.3125 13.6524 97.4677 13.2585 97.5467 12.8674L97.5758 12.7583H94.9084L94.8876 12.8177C94.8211 13.0167 94.695 13.2129 94.5093 13.405C94.325 13.5971 94.0853 13.756 93.7915 13.8818C93.5005 14.0075 93.1555 14.0711 92.7564 14.0711C92.252 14.0711 91.8169 13.9605 91.4525 13.738C91.0867 13.5169 90.8068 13.1963 90.6114 12.7804C90.4285 12.3893 90.3301 11.9264 90.3204 11.3902H97.6672V10.4864L97.6645 10.4851ZM90.3495 9.55228C90.3939 9.19576 90.4798 8.87931 90.6086 8.60431C90.804 8.18421 91.077 7.86362 91.4248 7.64528C91.774 7.42694 92.1731 7.31777 92.6262 7.31777C93.0793 7.31777 93.4728 7.42417 93.8151 7.63422C94.1573 7.84703 94.4248 8.16348 94.616 8.58358C94.7449 8.86272 94.8308 9.18332 94.8723 9.5509H90.3509L90.3495 9.55228Z" fill="white"/>
<path d="M67.7812 32.5411L62.9812 18.2109H66.3068L69.5922 29.472H69.6518L72.9275 18.2109H76.2628L71.4532 32.5411H67.7784H67.7812Z" fill="white"/>
<path d="M78.8443 20.5354C78.4064 20.5354 78.0364 20.3847 77.7344 20.0835C77.4323 19.7822 77.2812 19.4271 77.2812 19.0153C77.2812 18.6035 77.4323 18.2428 77.7344 17.9471C78.0364 17.6527 78.4064 17.5049 78.8443 17.5049C79.2822 17.5049 79.6507 17.6527 79.95 17.9471C80.2493 18.2414 80.3976 18.598 80.3976 19.0153C80.3976 19.4326 80.248 19.7822 79.95 20.0835C79.6507 20.3847 79.2835 20.5354 78.8443 20.5354ZM77.3796 32.5412V21.8951H80.2978V32.5412H77.3796Z" fill="white"/>
<path d="M82.2392 32.5412V21.8951H85.1463V23.7524H85.2059C85.3652 23.0973 85.6535 22.5874 86.0719 22.2226C86.4904 21.8592 87.0114 21.6768 87.635 21.6768C87.7943 21.6768 87.9467 21.6864 88.0936 21.7072C88.2391 21.7265 88.3652 21.7541 88.4719 21.7859V24.3479C88.3527 24.2954 88.1989 24.254 88.0133 24.2236C87.8276 24.1932 87.628 24.1794 87.416 24.1794C86.938 24.1794 86.5292 24.2719 86.1911 24.4571C85.853 24.6423 85.5939 24.9145 85.4137 25.2711C85.235 25.629 85.1449 26.0656 85.1449 26.5825V32.5412H82.2378H82.2392Z" fill="white"/>
<path d="M94.2986 32.7595C93.1166 32.7595 92.2409 32.5108 91.67 32.0147C91.0991 31.5186 90.8136 30.7005 90.8136 29.5618V24.0798H89.3296V21.8951H90.8136V19.293H93.7512V21.8951H95.7023V24.0798H93.7512V29.244C93.7512 29.7401 93.8621 30.0869 94.0852 30.2818C94.3069 30.4766 94.6381 30.5747 95.0759 30.5747C95.209 30.5747 95.3254 30.5692 95.4251 30.5595C95.5249 30.5499 95.6177 30.5388 95.7037 30.525V32.6503C95.5443 32.6766 95.3461 32.7015 95.1106 32.725C94.875 32.7484 94.6048 32.7595 94.2986 32.7595Z" fill="white"/>
<path d="M100.93 32.7599C100.153 32.7599 99.4894 32.5995 98.9393 32.2776C98.3878 31.957 97.9693 31.4982 97.6852 30.9026C97.3998 30.307 97.2571 29.5953 97.2571 28.7676V21.8954H100.164V28.1609C100.164 28.856 100.329 29.3963 100.658 29.7791C100.986 30.1633 101.475 30.3554 102.126 30.3554C102.452 30.3554 102.746 30.2987 103.008 30.1868C103.269 30.0748 103.494 29.9131 103.68 29.7045C103.865 29.4958 104.008 29.2471 104.108 28.9597C104.208 28.6722 104.257 28.3558 104.257 28.0117V21.894H107.165V32.5401H104.257V30.7824H104.188C104.009 31.1859 103.768 31.5369 103.466 31.8354C103.164 32.1339 102.803 32.3619 102.381 32.5208C101.96 32.6797 101.476 32.7585 100.933 32.7585L100.93 32.7599Z" fill="white"/>
<path d="M117.783 23.3654C117.409 22.8293 116.882 22.4133 116.205 22.119C115.527 21.8246 114.728 21.6768 113.805 21.6768C112.882 21.6768 112.062 21.8219 111.381 22.1093C110.699 22.3967 110.169 22.7961 109.788 23.3046C109.407 23.8145 109.186 24.3977 109.125 25.0527L109.117 25.1716H111.784L111.805 25.0831C111.877 24.7376 112.074 24.4544 112.393 24.2333C112.713 24.0122 113.142 23.9002 113.687 23.9002C114.258 23.9002 114.694 24.0356 114.992 24.3079C115.292 24.5801 115.44 24.9505 115.44 25.4217V26.0726L112.8 26.2356C111.917 26.295 111.166 26.4567 110.546 26.722C109.925 26.986 109.451 27.3494 109.127 27.8096C108.802 28.2698 108.639 28.8239 108.639 29.4734V29.4927C108.639 30.1146 108.79 30.6701 109.093 31.1565C109.395 31.643 109.817 32.0257 110.357 32.2994C110.899 32.573 111.524 32.7112 112.233 32.7112C112.698 32.7112 113.131 32.6421 113.533 32.5039C113.935 32.3657 114.291 32.1625 114.604 31.8972C114.916 31.6333 115.175 31.321 115.38 30.9631H115.441V32.5426H118.348V25.242C118.348 24.5276 118.16 23.9016 117.784 23.3668L117.783 23.3654ZM115.438 28.6581C115.438 29.0229 115.34 29.3518 115.145 29.6461C114.948 29.9405 114.68 30.1726 114.338 30.3412C113.995 30.5112 113.609 30.5955 113.177 30.5955C112.673 30.5955 112.271 30.4849 111.971 30.2624C111.672 30.0413 111.524 29.7346 111.524 29.3435V29.3241C111.524 28.9469 111.671 28.6456 111.963 28.4204C112.254 28.1965 112.68 28.0666 113.237 28.0335L115.438 27.8856V28.6581Z" fill="white"/>
<path d="M120.287 32.5411V18.2109H123.194V32.5411H120.287Z" fill="white"/>
<path d="M70.3696 49.3135C69.2943 49.3135 68.3299 49.1449 67.4763 48.8078C66.6227 48.4706 65.8966 47.98 65.2953 47.3374C64.6939 46.6948 64.2352 45.9127 63.9165 44.9882C63.5978 44.0651 63.4385 43.0204 63.4385 41.8555V41.8458C63.4385 40.3105 63.717 38.9936 64.2754 37.8977C64.8325 36.8019 65.6264 35.9603 66.6546 35.3702C67.6842 34.7816 68.898 34.4858 70.2989 34.4858C71.4545 34.4858 72.473 34.6917 73.3557 35.1022C74.2384 35.5126 74.9575 36.0709 75.5118 36.7756C76.066 37.4804 76.4236 38.2833 76.5829 39.1843L76.6134 39.3335H73.5857L73.5552 39.2243C73.3169 38.5362 72.9178 37.9986 72.3608 37.6103C71.8037 37.2234 71.1192 37.0299 70.31 37.0299C69.5008 37.0299 68.8412 37.2192 68.2731 37.5965C67.7049 37.9737 67.2712 38.5196 66.9692 39.2354C66.6671 39.9498 66.516 40.8149 66.516 41.8278V41.8375C66.516 42.6058 66.6061 43.2954 66.7849 43.9076C66.9636 44.5197 67.2241 45.038 67.5664 45.4622C67.9086 45.8864 68.3202 46.2098 68.801 46.435C69.2818 46.6603 69.8222 46.7722 70.4195 46.7722C71.0693 46.7722 71.6444 46.652 72.1418 46.4102C72.6393 46.1683 73.0342 45.8284 73.3266 45.3876C73.619 44.9467 73.7742 44.4327 73.7949 43.844L73.8046 43.645H70.5289V41.4008H76.7423V43.0494C76.7423 44.0223 76.5981 44.897 76.3085 45.6709C76.0203 46.4461 75.6018 47.1039 75.0545 47.647C74.5072 48.1901 73.8379 48.6032 73.0481 48.8879C72.2582 49.1726 71.3659 49.3149 70.3696 49.3149V49.3135Z" fill="white"/>
<path d="M78.4758 49.0661V38.42H81.3829V40.2773H81.4425C81.6018 39.6222 81.89 39.1123 82.3085 38.7475C82.727 38.3841 83.248 38.2017 83.8715 38.2017C84.0309 38.2017 84.1833 38.2113 84.3302 38.2321C84.4757 38.2514 84.6018 38.2791 84.7085 38.3108V40.8729C84.5893 40.8203 84.4355 40.7789 84.2498 40.7485C84.0642 40.7181 83.8646 40.7043 83.6526 40.7043C83.1745 40.7043 82.7658 40.7969 82.4277 40.982C82.0896 41.1672 81.8305 41.4394 81.6503 41.796C81.4702 42.1525 81.3815 42.5905 81.3815 43.1074V49.0661H78.4744H78.4758Z" fill="white"/>
<path d="M95.374 43.5344C95.374 42.462 95.1675 41.5251 94.7518 40.7236C94.3375 39.9235 93.7486 39.3016 92.9893 38.8622C92.2285 38.4214 91.3292 38.2017 90.2858 38.2017C89.2424 38.2017 88.3404 38.4283 87.5727 38.8816C86.8064 39.3362 86.2106 39.9774 85.7866 40.8093C85.3612 41.6398 85.1492 42.621 85.1492 43.7527V43.7624C85.1492 44.8955 85.3612 45.8739 85.7866 46.7017C86.2106 47.5294 86.8147 48.1665 87.5976 48.6128C88.3819 49.0592 89.3173 49.2844 90.4064 49.2844C91.1699 49.2844 91.835 49.1863 92.4031 48.9859C92.9713 48.787 93.4521 48.523 93.8484 48.1914C94.2433 47.8611 94.5565 47.4963 94.7893 47.0983C95.022 46.7017 95.1772 46.3078 95.2562 45.9168L95.2867 45.8076H92.6179L92.5971 45.867C92.5306 46.066 92.4045 46.2622 92.2202 46.4543C92.0345 46.6464 91.7948 46.8053 91.5024 46.9311C91.2101 47.0568 90.865 47.1204 90.466 47.1204C89.9616 47.1204 89.5265 47.0098 89.1621 46.7873C88.7962 46.5662 88.5177 46.2456 88.321 45.8283C88.138 45.4386 88.0411 44.9743 88.0314 44.4395H95.3768V43.5358L95.374 43.5344ZM88.0605 42.6016C88.1034 42.2451 88.1893 41.9286 88.3182 41.6536C88.515 41.2335 88.7865 40.9129 89.1343 40.6946C89.4835 40.4763 89.8826 40.3671 90.3357 40.3671C90.7888 40.3671 91.1824 40.4735 91.526 40.6835C91.8683 40.8964 92.1343 41.2114 92.3269 41.6315C92.4544 41.9107 92.5403 42.2326 92.5819 42.6002H88.0618L88.0605 42.6016Z" fill="white"/>
<path d="M106.695 43.5344C106.695 42.462 106.488 41.5251 106.074 40.7236C105.658 39.9235 105.071 39.3016 104.311 38.8622C103.551 38.4214 102.649 38.2017 101.607 38.2017C100.565 38.2017 99.6612 38.4283 98.8949 38.8816C98.1272 39.3362 97.5314 39.9774 97.1074 40.8093C96.682 41.6398 96.47 42.621 96.47 43.7527V43.7624C96.47 44.8955 96.682 45.8739 97.1074 46.7017C97.5314 47.5294 98.1369 48.1665 98.9184 48.6128C99.7027 49.0592 100.638 49.2844 101.727 49.2844C102.491 49.2844 103.157 49.1863 103.724 48.9859C104.292 48.787 104.774 48.523 105.169 48.1914C105.564 47.8611 105.877 47.4963 106.11 47.0983C106.343 46.7017 106.499 46.3078 106.578 45.9168L106.608 45.8076H103.939L103.919 45.867C103.853 46.066 103.725 46.2622 103.541 46.4543C103.355 46.6464 103.116 46.8053 102.823 46.9311C102.531 47.0568 102.186 47.1204 101.788 47.1204C101.282 47.1204 100.847 47.0098 100.484 46.7873C100.118 46.5662 99.8385 46.2456 99.6432 45.8283C99.4589 45.4386 99.3619 44.9743 99.3522 44.4395H106.698V43.5358L106.695 43.5344ZM99.3826 42.6016C99.4256 42.2451 99.5129 41.9286 99.6418 41.6536C99.8371 41.2335 100.109 40.9129 100.458 40.6946C100.806 40.4763 101.206 40.3671 101.657 40.3671C102.107 40.3671 102.503 40.4735 102.847 40.6835C103.188 40.8964 103.457 41.2114 103.648 41.6315C103.775 41.9107 103.861 42.2326 103.903 42.6002H99.3826V42.6016Z" fill="white"/>
<path d="M108.188 49.0661V38.42H111.096V40.1681H111.155C111.434 39.5587 111.845 39.0792 112.39 38.7282C112.934 38.3772 113.608 38.2017 114.412 38.2017C115.587 38.2017 116.494 38.554 117.134 39.2588C117.775 39.9636 118.095 40.942 118.095 42.1939V49.0661H115.187V42.8006C115.187 42.1055 115.023 41.5666 114.694 41.1824C114.366 40.7982 113.875 40.6062 113.225 40.6062C112.793 40.6062 112.419 40.7056 112.1 40.9046C111.782 41.1036 111.533 41.3786 111.359 41.7282C111.183 42.0792 111.096 42.4869 111.096 42.9498V49.0675H108.188V49.0661Z" fill="white"/>
<path d="M124.33 49.2845C123.348 49.2845 122.509 49.1422 121.815 48.8575C121.121 48.5728 120.582 48.1776 120.197 47.6705C119.811 47.1647 119.579 46.576 119.5 45.9072L119.49 45.8173H122.328L122.347 45.9072C122.44 46.3245 122.649 46.6492 122.975 46.88C123.301 47.1122 123.752 47.2283 124.329 47.2283C124.7 47.2283 125.016 47.184 125.275 47.0942C125.534 47.0044 125.735 46.8773 125.878 46.7114C126.021 46.5456 126.093 46.348 126.093 46.1158V46.1062C126.093 45.8215 125.99 45.5935 125.784 45.4207C125.577 45.248 125.213 45.1071 124.689 44.9937L122.877 44.6068C122.186 44.4617 121.609 44.2517 121.144 43.9767C120.68 43.7017 120.331 43.3603 120.098 42.9541C119.866 42.5464 119.749 42.0793 119.749 41.5487V41.539C119.749 40.8577 119.933 40.2677 120.302 39.7716C120.671 39.2755 121.192 38.8899 121.865 38.6149C122.538 38.3399 123.327 38.2031 124.23 38.2031C125.134 38.2031 125.975 38.3538 126.634 38.655C127.295 38.9563 127.803 39.3612 128.157 39.8711C128.512 40.381 128.701 40.9476 128.72 41.5694V41.6689H126.041L126.032 41.5901C125.985 41.2129 125.807 40.8964 125.5 40.6422C125.191 40.3879 124.768 40.2594 124.23 40.2594C123.898 40.2594 123.61 40.3064 123.364 40.399C123.119 40.4915 122.929 40.6214 122.796 40.7859C122.663 40.9517 122.597 41.1507 122.597 41.3815V41.3911C122.597 41.5694 122.641 41.7311 122.731 41.8734C122.821 42.0158 122.972 42.1401 123.184 42.2452C123.396 42.3516 123.682 42.4441 124.041 42.5229L125.853 42.9098C126.975 43.142 127.78 43.4889 128.268 43.9532C128.756 44.4161 129 45.0393 129 45.8201V45.8298C129 46.5249 128.8 47.1301 128.403 47.647C128.005 48.1638 127.455 48.5659 126.755 48.8534C126.054 49.1408 125.246 49.2859 124.33 49.2859V49.2845Z" fill="white"/>
<path d="M0 35.0178C1.02955 33.8474 2.57595 33.0182 4.01428 32.4337C14.0326 28.364 25.5406 33.3084 35.6948 34.1099C45.3764 34.8741 54.0008 33.5199 58.234 23.96C58.2825 23.8494 58.2811 23.6919 58.4405 23.667C58.3934 26.6933 57.6701 29.6326 56.1777 32.2651C52.7066 38.3883 45.2198 41.8541 38.2486 41.1935C33.3239 40.7278 28.8052 38.5348 24.209 36.9249C16.5878 34.2564 7.88029 32.2098 0.00138596 35.0178H0Z" fill="white"/>
<path d="M57.8931 14.8574L54.9264 13.7712C54.7448 13.5004 54.9804 10.217 54.889 9.53989C54.8723 9.41414 54.8709 9.30359 54.7532 9.22206C51.0784 7.25977 47.3177 5.34032 43.3256 4.07589C38.9676 2.69676 36.4055 2.59727 32.0019 3.91421C27.8158 5.16621 23.7835 7.21693 19.9632 9.28701V20.4458C20.2944 24.0332 20.9706 27.6054 22.2468 30.9758L18.917 30.4783C18.3753 29.0094 17.9582 27.4741 17.6409 25.9374C16.4132 19.9994 17.0173 13.8514 16.8607 7.81253L17.0131 7.50989C21.7036 4.85804 26.7475 2.22554 31.9811 0.804959C37.4046 -0.666755 40.9325 -0.00759267 46.0886 1.86763C50.1763 3.35455 54.203 5.36105 57.8931 7.63564V14.856V14.8574Z" fill="white"/>
<path d="M32.8209 7.22949L30.8588 8.7703C29.9802 9.68235 28.4269 11.3116 29.8112 12.453C31.1068 13.5212 33.4707 12.3383 34.9908 12.0689C37.3506 11.6515 39.6023 11.8174 41.0115 14.0118C43.1704 17.3767 40.4822 19.6057 39.3446 22.5809C38.43 24.9702 38.4259 27.7064 39.5691 30.0252C37.3035 28.0726 37.8065 24.7684 37.0416 22.1456C36.5802 20.5634 35.5035 18.7393 34.2342 17.6766C32.3082 16.0625 29.674 15.9824 27.5969 14.5701C26.0339 13.5074 25.7401 12.4309 26.8597 10.8708C28.1761 9.03701 30.6759 7.78916 32.8223 7.23088L32.8209 7.22949Z" fill="white"/>
<path d="M54.1547 36.5628C52.3506 40.7126 48.3862 43.7292 43.9465 44.6026C35.3083 46.3023 24.9587 39.8862 16.8456 37.2634C13.2194 36.0901 8.59262 35.0689 4.78342 34.928C4.67257 34.9238 4.44393 34.9957 4.4661 34.8382C9.28822 34.2799 14.1478 34.9708 18.7994 36.2256C29.0035 38.9797 37.6348 45.3585 48.5345 40.3643C50.7335 39.3569 52.0236 38.2376 53.8346 36.7438C53.9372 36.6595 53.9815 36.5241 54.1533 36.5628H54.1547Z" fill="white"/>
<path d="M47.1349 44.6454C45.504 46.1959 43.7275 47.6372 41.8028 48.8243C41.128 49.2402 37.9271 51.0381 37.3396 50.9994C37.1221 50.9842 36.0814 50.4853 35.7974 50.354C31.8122 48.5092 27.9753 45.3018 25.1651 41.9632C25.0903 41.8747 24.6441 41.3496 24.7079 41.2847C25.9522 41.8153 27.1965 42.3529 28.4478 42.8711C29.1947 43.1806 30.3198 43.4639 30.9711 43.8094C31.4214 44.0485 32.0464 44.6717 32.5189 44.9923C34.0514 46.0342 35.6311 47.0154 37.3562 47.7174C37.5378 47.7436 38.7211 47.1563 38.9899 47.0223C39.4278 46.8026 40.5599 46.0135 40.9091 45.9361C41.4024 45.8283 42.1908 45.8933 42.7118 45.8256C44.2375 45.6252 45.7063 45.1927 47.1349 44.6468V44.6454Z" fill="white"/>
<path d="M40.0237 32.8398C40.0486 32.9891 39.9004 32.9228 39.7978 32.9297C36.5138 33.1135 34.2233 30.2557 33.2353 27.4781C32.0256 24.0759 31.5254 20.3545 29.2654 17.4014C30.834 17.4553 32.5813 18.1047 33.7342 19.1702C35.9928 21.2582 35.5757 24.1077 36.2394 26.8466C36.7868 29.1046 37.8884 31.686 40.0237 32.8412V32.8398Z" fill="white"/>
<path d="M38.7251 4.2553C44.2137 3.51461 44.4396 11.2891 39.6092 11.4978C35.0115 11.6968 34.5515 4.81773 38.7251 4.2553Z" fill="white"/>
<path d="M56.3398 16.3152C55.8312 17.8132 55.6857 19.9123 57.8931 19.5793C57.8044 20.6488 57.8723 21.9022 57.67 22.9442C57.3804 24.4352 56.0682 26.6518 55.0691 27.8001C54.9264 27.9646 53.1472 29.7666 53.0613 29.6602C54.4497 25.1953 55.0899 20.5438 54.8848 15.8564L56.3398 16.3152Z" fill="white"/>
<path d="M35.9206 32.7504C36.0494 32.8816 35.9136 32.9148 35.7861 32.9314C35.4134 32.9784 34.9977 32.8803 34.6083 33.0129C33.6536 32.9148 32.8167 32.8816 31.9104 32.521C27.9862 30.958 28.5447 24.9413 30.6786 22.125C31.0375 24.488 31.4684 26.8718 32.4689 29.0593C33.1686 30.5905 34.2494 32.199 35.9206 32.7517V32.7504Z" fill="white"/>
<path d="M57.07 15.9504L42.2129 10.9977C42.4776 10.7918 42.6743 10.3371 43.054 10.4214L56.6654 14.9444C58.1965 15.5165 59.2095 16.6648 58.4169 18.3272C58.1356 18.9187 57.7476 19.202 57.0686 18.9919C56.0585 18.6796 56.8705 16.6178 57.07 15.949V15.9504Z" fill="white"/>
<path d="M35.0879 7.78633L35.1918 8.86282L32.4579 8.04612C32.3249 7.92037 33.1923 7.29438 33.3433 7.24463L35.0893 7.78633H35.0879Z" fill="white"/>
</svg>
