<svg width="24" height="24" viewBox="0 0 24 24" fill="none" xmlns="http://www.w3.org/2000/svg">
<path d="M4 6.0127H20C20.5467 6.0127 21.014 6.20734 21.4033 6.59668C21.7927 6.98602 21.9873 7.45334 21.9873 8V16C21.9873 16.5467 21.7927 17.014 21.4033 17.4033C21.014 17.7927 20.5467 17.9873 20 17.9873H4C3.45334 17.9873 2.98602 17.7927 2.59668 17.4033C2.20734 17.014 2.0127 16.5467 2.0127 16V8C2.0127 7.45334 2.20734 6.98602 2.59668 6.59668C2.98602 6.20734 3.45334 6.0127 4 6.0127ZM3.9873 16.0127H20.0127V7.9873H3.9873V16.0127ZM14.5 12.0127C14.9134 12.0127 15.2644 12.157 15.5537 12.4463C15.843 12.7356 15.9873 13.0866 15.9873 13.5C15.9873 13.9134 15.843 14.2644 15.5537 14.5537C15.2644 14.843 14.9134 14.9873 14.5 14.9873C14.0866 14.9873 13.7356 14.843 13.4463 14.5537C13.157 14.2644 13.0127 13.9134 13.0127 13.5C13.0127 13.0866 13.157 12.7356 13.4463 12.4463C13.7356 12.157 14.0866 12.0127 14.5 12.0127ZM8.9873 9.0127V11.0127H10.9873V12.9873H8.9873V14.9873H7.0127V12.9873H5.0127V11.0127H7.0127V9.0127H8.9873ZM17.5 9.0127C17.9134 9.0127 18.2644 9.15699 18.5537 9.44629C18.843 9.73558 18.9873 10.0866 18.9873 10.5C18.9873 10.9134 18.843 11.2644 18.5537 11.5537C18.2644 11.843 17.9134 11.9873 17.5 11.9873C17.0866 11.9873 16.7356 11.843 16.4463 11.5537C16.157 11.2644 16.0127 10.9134 16.0127 10.5C16.0127 10.0866 16.157 9.73558 16.4463 9.44629C16.7356 9.15699 17.0866 9.0127 17.5 9.0127Z" fill="#7DDB8A" stroke="#7DDB8A" stroke-width="0.025"/>
</svg>
