<svg width="24" height="24" viewBox="0 0 24 24" fill="none" xmlns="http://www.w3.org/2000/svg">
<path d="M21 4.0127C21.2802 4.0127 21.5149 4.10669 21.7041 4.2959C21.8933 4.48511 21.9873 4.71981 21.9873 5V19C21.9873 19.2802 21.8933 19.5149 21.7041 19.7041C21.5149 19.8933 21.2802 19.9873 21 19.9873C20.9352 19.9873 20.8293 19.9682 20.6816 19.9287C20.5341 19.8892 20.3452 19.8301 20.1162 19.751C19.6575 19.5925 19.0448 19.4216 18.2783 19.2383C17.5113 19.0549 16.6063 18.884 15.5645 18.7256C14.522 18.5671 13.3338 18.4873 12 18.4873C10.6662 18.4873 9.47797 18.5671 8.43555 18.7256C7.3937 18.884 6.48874 19.0549 5.72168 19.2383C4.95519 19.4216 4.34255 19.5925 3.88379 19.751C3.65476 19.8301 3.46587 19.8892 3.31836 19.9287C3.17065 19.9682 3.06483 19.9873 3 19.9873C2.71981 19.9873 2.48511 19.8933 2.2959 19.7041C2.10669 19.5149 2.0127 19.2802 2.0127 19V5C2.0127 4.71981 2.10669 4.48511 2.2959 4.2959C2.48511 4.10669 2.71981 4.0127 3 4.0127C3.06483 4.0127 3.17065 4.03177 3.31836 4.07129C3.46587 4.11077 3.65476 4.1699 3.88379 4.24902C4.34255 4.40749 4.95519 4.57842 5.72168 4.76172C6.48874 4.94515 7.3937 5.11605 8.43555 5.27441C9.47797 5.43286 10.6662 5.5127 12 5.5127C13.3338 5.5127 14.522 5.43286 15.5645 5.27441C16.6063 5.11605 17.5113 4.94515 18.2783 4.76172C19.0448 4.57842 19.6575 4.40749 20.1162 4.24902C20.3452 4.1699 20.5341 4.11077 20.6816 4.07129C20.8293 4.03177 20.9352 4.0127 21 4.0127ZM19.9961 6.36328C18.6969 6.74635 17.3769 7.02966 16.0361 7.21289C14.695 7.39615 13.3494 7.4873 12 7.4873C10.6506 7.4873 9.30497 7.39615 7.96387 7.21289C6.62306 7.02966 5.30308 6.74635 4.00391 6.36328L3.9873 6.3584V17.667L4.00391 17.6621C5.3031 17.279 6.62304 16.9914 7.96387 16.7998C9.30495 16.6082 10.6506 16.5127 12 16.5127C13.3494 16.5127 14.695 16.6082 16.0361 16.7998C17.377 16.9914 18.6969 17.279 19.9961 17.6621L20.0127 17.667V6.3584L19.9961 6.36328ZM18.4697 15.3838C17.397 15.2524 16.3283 15.1539 15.2637 15.0879C14.1884 15.0212 13.1003 14.9873 12 14.9873C10.8997 14.9873 9.81159 15.0212 8.73633 15.0879C7.67141 15.1539 6.60238 15.2523 5.5293 15.3838L9.14941 11.0186L11.1406 13.4082L11.1504 13.4199L11.1592 13.4082L13.999 10.0186L18.4697 15.3838Z" fill="#7DDB8A" stroke="#7DDB8A" stroke-width="0.025"/>
</svg>
