<svg width="33" height="32" viewBox="0 0 33 32" fill="none" xmlns="http://www.w3.org/2000/svg">
<path d="M32.1755 15.5884C32.1755 24.197 25.1426 31.1757 16.4651 31.1757C13.7114 31.1757 11.1246 30.4713 8.87283 29.2379L0.175537 32L3.01064 23.6345C1.58109 21.2867 0.757792 18.5299 0.757792 15.5873C0.758835 6.97871 7.78972 0 16.4672 0C25.1436 0.00208693 32.1755 6.97975 32.1755 15.5884ZM16.4641 2.48554C9.1817 2.48554 3.25794 8.36443 3.25794 15.5915C3.25794 18.4589 4.19288 21.1135 5.77374 23.2735L4.12506 28.1392L9.1984 26.527C11.2853 27.896 13.7823 28.6933 16.4641 28.6933C23.7464 28.6933 29.6723 22.8154 29.6723 15.5884C29.6743 8.36443 23.7475 2.48554 16.4641 2.48554ZM24.3986 19.1789C24.3005 19.0214 24.0438 18.9254 23.6598 18.7334C23.2769 18.5414 21.3809 17.6179 21.0292 17.4927C20.6744 17.3643 20.4178 17.2996 20.1611 17.6826C19.9075 18.0655 19.1687 18.9254 18.9423 19.1821C18.7179 19.4377 18.4936 19.4701 18.1086 19.2812C17.7235 19.0871 16.4818 18.6864 15.0105 17.3852C13.8658 16.371 13.0926 15.1219 12.8693 14.739C12.6429 14.3571 12.8464 14.1505 13.0373 13.9605C13.2095 13.7884 13.4223 13.5139 13.6154 13.2896C13.8084 13.0673 13.8721 12.9098 14.0004 12.6541C14.1267 12.3985 14.063 12.1762 13.9681 11.9832C13.8721 11.7912 13.103 9.91294 12.7806 9.14808C12.4603 8.38426 12.1399 8.51052 11.9145 8.51052C11.6902 8.51052 11.4335 8.47921 11.1768 8.47921C10.9201 8.47921 10.5027 8.57208 10.1511 8.95503C9.79943 9.33799 8.80397 10.2615 8.80397 12.1418C8.80397 14.0242 10.1824 15.8388 10.3754 16.0934C10.5695 16.347 13.0404 20.332 16.9545 21.8617C20.8706 23.3904 20.8706 22.8801 21.576 22.8154C22.2835 22.7507 23.8549 21.8919 24.1742 21.0008C24.4956 20.1055 24.4956 19.3386 24.3986 19.1789Z" fill="white"/>
</svg>
