<svg width="24" height="24" viewBox="0 0 24 24" fill="none" xmlns="http://www.w3.org/2000/svg">
<g clip-path="url(#clip0_2937_2935)">
<path d="M0 0H24V24H0" fill="#BD3D44"/>
<path d="M0 2.71875H24H0ZM0 6.42188H24H0ZM0 10.125H24H0ZM0 13.8281H24H0ZM0 17.5312H24H0ZM0 21.2344H24H0Z" fill="black"/>
<path d="M24 20.2969V22.1719H0V20.2969H24ZM24 16.5938V18.4688H0V16.5938H24ZM24 12.8906V14.7656H0V12.8906H24ZM24 9.1875V11.0625H0V9.1875H24ZM24 5.48438V7.35938H0V5.48438H24ZM24 1.78125V3.65625H0V1.78125H24Z" fill="white"/>
<path d="M0 0H18.2812V12.8906H0V0Z" fill="#192F5D"/>
</g>
<defs>
<clipPath id="clip0_2937_2935">
<rect width="24" height="24" rx="12" fill="white"/>
</clipPath>
</defs>
</svg>
